G04 #@! TF.GenerationSoftware,KiCad,Pcbnew,(6.0.11)*
G04 #@! TF.CreationDate,2023-03-16T10:59:56+01:00*
G04 #@! TF.ProjectId,Horloge,486f726c-6f67-4652-9e6b-696361645f70,rev?*
G04 #@! TF.SameCoordinates,Original*
G04 #@! TF.FileFunction,Copper,L2,Bot*
G04 #@! TF.FilePolarity,Positive*
%FSLAX46Y46*%
G04 Gerber Fmt 4.6, Leading zero omitted, Abs format (unit mm)*
G04 Created by KiCad (PCBNEW (6.0.11)) date 2023-03-16 10:59:56*
%MOMM*%
%LPD*%
G01*
G04 APERTURE LIST*
G04 Aperture macros list*
%AMRoundRect*
0 Rectangle with rounded corners*
0 $1 Rounding radius*
0 $2 $3 $4 $5 $6 $7 $8 $9 X,Y pos of 4 corners*
0 Add a 4 corners polygon primitive as box body*
4,1,4,$2,$3,$4,$5,$6,$7,$8,$9,$2,$3,0*
0 Add four circle primitives for the rounded corners*
1,1,$1+$1,$2,$3*
1,1,$1+$1,$4,$5*
1,1,$1+$1,$6,$7*
1,1,$1+$1,$8,$9*
0 Add four rect primitives between the rounded corners*
20,1,$1+$1,$2,$3,$4,$5,0*
20,1,$1+$1,$4,$5,$6,$7,0*
20,1,$1+$1,$6,$7,$8,$9,0*
20,1,$1+$1,$8,$9,$2,$3,0*%
%AMRotRect*
0 Rectangle, with rotation*
0 The origin of the aperture is its center*
0 $1 length*
0 $2 width*
0 $3 Rotation angle, in degrees counterclockwise*
0 Add horizontal line*
21,1,$1,$2,0,0,$3*%
G04 Aperture macros list end*
G04 #@! TA.AperFunction,ComponentPad*
%ADD10R,1.700000X1.700000*%
G04 #@! TD*
G04 #@! TA.AperFunction,ComponentPad*
%ADD11O,1.700000X1.700000*%
G04 #@! TD*
G04 #@! TA.AperFunction,SMDPad,CuDef*
%ADD12R,1.050000X1.400000*%
G04 #@! TD*
G04 #@! TA.AperFunction,SMDPad,CuDef*
%ADD13R,4.200000X1.400000*%
G04 #@! TD*
G04 #@! TA.AperFunction,SMDPad,CuDef*
%ADD14R,3.600000X3.000000*%
G04 #@! TD*
G04 #@! TA.AperFunction,SMDPad,CuDef*
%ADD15R,2.600000X3.000000*%
G04 #@! TD*
G04 #@! TA.AperFunction,SMDPad,CuDef*
%ADD16RotRect,1.400000X1.050000X240.000000*%
G04 #@! TD*
G04 #@! TA.AperFunction,SMDPad,CuDef*
%ADD17R,1.500000X1.500000*%
G04 #@! TD*
G04 #@! TA.AperFunction,SMDPad,CuDef*
%ADD18RoundRect,0.088500X-0.516500X-0.206500X0.516500X-0.206500X0.516500X0.206500X-0.516500X0.206500X0*%
G04 #@! TD*
G04 #@! TA.AperFunction,SMDPad,CuDef*
%ADD19RoundRect,0.250000X0.450000X-0.350000X0.450000X0.350000X-0.450000X0.350000X-0.450000X-0.350000X0*%
G04 #@! TD*
G04 #@! TA.AperFunction,SMDPad,CuDef*
%ADD20RoundRect,0.250000X-0.350000X-0.450000X0.350000X-0.450000X0.350000X0.450000X-0.350000X0.450000X0*%
G04 #@! TD*
G04 #@! TA.AperFunction,SMDPad,CuDef*
%ADD21RotRect,1.400000X1.050000X300.000000*%
G04 #@! TD*
G04 #@! TA.AperFunction,SMDPad,CuDef*
%ADD22RoundRect,0.250000X0.337500X0.475000X-0.337500X0.475000X-0.337500X-0.475000X0.337500X-0.475000X0*%
G04 #@! TD*
G04 #@! TA.AperFunction,ViaPad*
%ADD23C,0.800000*%
G04 #@! TD*
G04 #@! TA.AperFunction,Conductor*
%ADD24C,0.250000*%
G04 #@! TD*
G04 APERTURE END LIST*
D10*
X81280000Y-82550000D03*
D11*
X83820000Y-82550000D03*
X86360000Y-82550000D03*
D12*
X101510000Y-89640000D03*
X101510000Y-93240000D03*
X102960000Y-89640000D03*
X102960000Y-93240000D03*
D13*
X71755000Y-88845000D03*
X71755000Y-85145000D03*
D14*
X83720000Y-85862681D03*
D15*
X83720000Y-107262681D03*
D16*
X100042728Y-98721409D03*
X98242728Y-101839101D03*
X101298464Y-99446409D03*
X99498464Y-102564101D03*
D17*
X88900000Y-82550000D03*
X96520000Y-97790000D03*
D18*
X76215000Y-82865000D03*
X76215000Y-81915000D03*
X76215000Y-80965000D03*
X78725000Y-80965000D03*
X78725000Y-82865000D03*
D19*
X95885000Y-101965000D03*
X95885000Y-99965000D03*
D17*
X83820000Y-78740000D03*
X96520000Y-93980000D03*
D20*
X94885000Y-84455000D03*
X96885000Y-84455000D03*
D21*
X98239318Y-81034990D03*
X100039318Y-84152682D03*
X99495054Y-80309990D03*
X101295054Y-83427682D03*
D20*
X93885000Y-90805000D03*
X95885000Y-90805000D03*
D17*
X98425000Y-87630000D03*
D22*
X78507500Y-78740000D03*
X76432500Y-78740000D03*
D23*
X90170000Y-90170000D03*
X90170000Y-93980000D03*
X80645000Y-96520000D03*
X90170000Y-99060000D03*
X88900000Y-93980000D03*
X102235000Y-86995000D03*
X80645000Y-74295000D03*
X88900000Y-96520000D03*
X101600000Y-96520000D03*
X81915000Y-76200000D03*
X77470000Y-90170000D03*
X78740000Y-90259500D03*
X94763208Y-87630000D03*
D24*
X90170000Y-90170000D02*
X94885000Y-85455000D01*
X90170000Y-93980000D02*
X93345000Y-90805000D01*
X78725000Y-80965000D02*
X78725000Y-78957500D01*
X93075000Y-101965000D02*
X95885000Y-101965000D01*
X78507500Y-78740000D02*
X83820000Y-78740000D01*
X93345000Y-90805000D02*
X93885000Y-90805000D01*
X90170000Y-99060000D02*
X93075000Y-101965000D01*
X83185000Y-99060000D02*
X90170000Y-99060000D01*
X79695000Y-80965000D02*
X78725000Y-80965000D01*
X80645000Y-96520000D02*
X83185000Y-99060000D01*
X81280000Y-82550000D02*
X79695000Y-80965000D01*
X94885000Y-85455000D02*
X94885000Y-84455000D01*
X81915000Y-76200000D02*
X81915000Y-75565000D01*
X81915000Y-75565000D02*
X80645000Y-74295000D01*
X71755000Y-88845000D02*
X76890000Y-88845000D01*
X76890000Y-88845000D02*
X79872319Y-85862681D01*
X87492319Y-85862681D02*
X88900000Y-84455000D01*
X83720000Y-85862681D02*
X87492319Y-85862681D01*
X88900000Y-84455000D02*
X88900000Y-82550000D01*
X83720000Y-85862681D02*
X79872319Y-85862681D01*
X73345000Y-82865000D02*
X76215000Y-82865000D01*
X71755000Y-84455000D02*
X71755000Y-85145000D01*
X73345000Y-82865000D02*
X71755000Y-84455000D01*
X85090000Y-97790000D02*
X96520000Y-97790000D01*
X98425000Y-97155000D02*
X100084320Y-97155000D01*
X96520000Y-99060000D02*
X96520000Y-97790000D01*
X99498464Y-101119003D02*
X101171058Y-99446409D01*
X96782309Y-97527691D02*
X98052309Y-97527691D01*
X95885000Y-99695000D02*
X96520000Y-99060000D01*
X100084320Y-97155000D02*
X101298464Y-98369144D01*
X99498464Y-102564101D02*
X99498464Y-101119003D01*
X101298464Y-98369144D02*
X101298464Y-99446409D01*
X98052309Y-97527691D02*
X98425000Y-97155000D01*
X77470000Y-90170000D02*
X85090000Y-97790000D01*
X96520000Y-93980000D02*
X96520000Y-91440000D01*
X102360000Y-90240000D02*
X102960000Y-89640000D01*
X102960000Y-93240000D02*
X102360000Y-92640000D01*
X83730500Y-95250000D02*
X78740000Y-90259500D01*
X96520000Y-91440000D02*
X95885000Y-90805000D01*
X83730500Y-95250000D02*
X95250000Y-95250000D01*
X96805000Y-94265000D02*
X102360000Y-94265000D01*
X102360000Y-94265000D02*
X102960000Y-93665000D01*
X95250000Y-95250000D02*
X96520000Y-93980000D01*
X102360000Y-92640000D02*
X102360000Y-90240000D01*
X101167648Y-83427682D02*
X99495054Y-81755088D01*
X101295054Y-85759946D02*
X101295054Y-83427682D01*
X99425000Y-87630000D02*
X101295054Y-85759946D01*
X94763208Y-87630000D02*
X98425000Y-87630000D01*
X98425000Y-85995000D02*
X98425000Y-87630000D01*
X99495054Y-81755088D02*
X99495054Y-80309990D01*
X96885000Y-84455000D02*
X98425000Y-85995000D01*
X98425000Y-87630000D02*
X99425000Y-87630000D01*
G04 #@! TA.AperFunction,Conductor*
G36*
X83915060Y-71950574D02*
G01*
X84667469Y-71966992D01*
X84672950Y-71967232D01*
X85516055Y-72022491D01*
X85521523Y-72022970D01*
X86361403Y-72114951D01*
X86366854Y-72115668D01*
X87201958Y-72244204D01*
X87207371Y-72245159D01*
X87628286Y-72328883D01*
X88036050Y-72409992D01*
X88041388Y-72411176D01*
X88862111Y-72612006D01*
X88867420Y-72613429D01*
X89678565Y-72849856D01*
X89683808Y-72851509D01*
X90483892Y-73123100D01*
X90489028Y-73124970D01*
X91276526Y-73431211D01*
X91281585Y-73433307D01*
X91597375Y-73572258D01*
X92054945Y-73773594D01*
X92059927Y-73775917D01*
X92817692Y-74149605D01*
X92822569Y-74152143D01*
X93192961Y-74355347D01*
X93563372Y-74558561D01*
X93568077Y-74561278D01*
X94290436Y-74999617D01*
X94295060Y-75002563D01*
X94997596Y-75471982D01*
X95002065Y-75475111D01*
X95343869Y-75725732D01*
X95683466Y-75974735D01*
X95687827Y-75978082D01*
X96346733Y-76506910D01*
X96350945Y-76510443D01*
X96986201Y-77067547D01*
X96990254Y-77071261D01*
X97600586Y-77655527D01*
X97604473Y-77659414D01*
X98188739Y-78269746D01*
X98192453Y-78273799D01*
X98749557Y-78909055D01*
X98753090Y-78913267D01*
X98896792Y-79092316D01*
X98923832Y-79157962D01*
X98911087Y-79227805D01*
X98861527Y-79280301D01*
X98397407Y-79548260D01*
X98397398Y-79548266D01*
X98394455Y-79549965D01*
X98391714Y-79551971D01*
X98391708Y-79551975D01*
X98350358Y-79582239D01*
X98350356Y-79582241D01*
X98343982Y-79586906D01*
X98326859Y-79607715D01*
X98312654Y-79624978D01*
X98253925Y-79664871D01*
X98236046Y-79669208D01*
X98196587Y-79675775D01*
X98181572Y-79680258D01*
X98134748Y-79700911D01*
X98128672Y-79703994D01*
X97870978Y-79852774D01*
X97860018Y-79864269D01*
X97859669Y-79866077D01*
X97862062Y-79873564D01*
X98523288Y-81018841D01*
X98540026Y-81087836D01*
X98516806Y-81154928D01*
X98477169Y-81190960D01*
X98146348Y-81381960D01*
X97487403Y-81762402D01*
X97476443Y-81773897D01*
X97476094Y-81775705D01*
X97478487Y-81783192D01*
X97717060Y-82196410D01*
X97720764Y-82202093D01*
X97750997Y-82243403D01*
X97761762Y-82254796D01*
X97861090Y-82336529D01*
X97876282Y-82345767D01*
X97993570Y-82395915D01*
X98010733Y-82400514D01*
X98045178Y-82404652D01*
X98110427Y-82432636D01*
X98150189Y-82491454D01*
X98154459Y-82550332D01*
X98140612Y-82633973D01*
X98150204Y-82816991D01*
X98198872Y-82993680D01*
X98284346Y-83155797D01*
X98288748Y-83161006D01*
X98288750Y-83161009D01*
X98398232Y-83290563D01*
X98398236Y-83290567D01*
X98402639Y-83295777D01*
X98408062Y-83299924D01*
X98408064Y-83299925D01*
X98425015Y-83312885D01*
X98548231Y-83407090D01*
X98554411Y-83409972D01*
X98554413Y-83409973D01*
X98692566Y-83474395D01*
X98745851Y-83521313D01*
X98765312Y-83589590D01*
X98755170Y-83638127D01*
X98742447Y-83667882D01*
X98737848Y-83685044D01*
X98722634Y-83811694D01*
X98723037Y-83829466D01*
X98744157Y-83956357D01*
X98748641Y-83971373D01*
X98769293Y-84018198D01*
X98772376Y-84024274D01*
X99008656Y-84433523D01*
X99020151Y-84444483D01*
X99021959Y-84444832D01*
X99029446Y-84442439D01*
X100023169Y-83868712D01*
X100092164Y-83851974D01*
X100159256Y-83875194D01*
X100195288Y-83914831D01*
X100323288Y-84136533D01*
X100340026Y-84205528D01*
X100316806Y-84272620D01*
X100277169Y-84308652D01*
X99287402Y-84880094D01*
X99276442Y-84891589D01*
X99276094Y-84893396D01*
X99278487Y-84900884D01*
X99517060Y-85314102D01*
X99520764Y-85319785D01*
X99550997Y-85361095D01*
X99561762Y-85372488D01*
X99661090Y-85454221D01*
X99676282Y-85463459D01*
X99793570Y-85513607D01*
X99810732Y-85518206D01*
X99937384Y-85533420D01*
X99955156Y-85533017D01*
X100082048Y-85511897D01*
X100097064Y-85507414D01*
X100143888Y-85486761D01*
X100149964Y-85483678D01*
X100472554Y-85297430D01*
X100541549Y-85280692D01*
X100608641Y-85303912D01*
X100652528Y-85359719D01*
X100661554Y-85406549D01*
X100661554Y-85445352D01*
X100641552Y-85513473D01*
X100624653Y-85534443D01*
X99675005Y-86484090D01*
X99612695Y-86518114D01*
X99541879Y-86513049D01*
X99510349Y-86495820D01*
X99421705Y-86429385D01*
X99285316Y-86378255D01*
X99223134Y-86371500D01*
X99184500Y-86371500D01*
X99116379Y-86351498D01*
X99069886Y-86297842D01*
X99058500Y-86245500D01*
X99058500Y-86073767D01*
X99059027Y-86062584D01*
X99060702Y-86055091D01*
X99058562Y-85987000D01*
X99058500Y-85983043D01*
X99058500Y-85955144D01*
X99057996Y-85951153D01*
X99057063Y-85939311D01*
X99056779Y-85930258D01*
X99055674Y-85895111D01*
X99053462Y-85887497D01*
X99053461Y-85887492D01*
X99050023Y-85875659D01*
X99046012Y-85856295D01*
X99044467Y-85844064D01*
X99043474Y-85836203D01*
X99040557Y-85828836D01*
X99040556Y-85828831D01*
X99027198Y-85795092D01*
X99023354Y-85783865D01*
X99013230Y-85749022D01*
X99011018Y-85741407D01*
X99003563Y-85728802D01*
X99000707Y-85723972D01*
X98992012Y-85706224D01*
X98984552Y-85687383D01*
X98959934Y-85653498D01*
X98958564Y-85651613D01*
X98952048Y-85641693D01*
X98933580Y-85610465D01*
X98933578Y-85610462D01*
X98929542Y-85603638D01*
X98915221Y-85589317D01*
X98902380Y-85574283D01*
X98895131Y-85564306D01*
X98890472Y-85557893D01*
X98884368Y-85552843D01*
X98884363Y-85552838D01*
X98856402Y-85529707D01*
X98847621Y-85521717D01*
X98030404Y-84704499D01*
X97996379Y-84642187D01*
X97993500Y-84615404D01*
X97993500Y-83954600D01*
X97992323Y-83943255D01*
X97983238Y-83855692D01*
X97983237Y-83855688D01*
X97982526Y-83848834D01*
X97976065Y-83829466D01*
X97928868Y-83688002D01*
X97926550Y-83681054D01*
X97833478Y-83530652D01*
X97708303Y-83405695D01*
X97665205Y-83379129D01*
X97563968Y-83316725D01*
X97563966Y-83316724D01*
X97557738Y-83312885D01*
X97397254Y-83259655D01*
X97396389Y-83259368D01*
X97396387Y-83259368D01*
X97389861Y-83257203D01*
X97383025Y-83256503D01*
X97383022Y-83256502D01*
X97339831Y-83252077D01*
X97285400Y-83246500D01*
X96484600Y-83246500D01*
X96481354Y-83246837D01*
X96481350Y-83246837D01*
X96385692Y-83256762D01*
X96385688Y-83256763D01*
X96378834Y-83257474D01*
X96372298Y-83259655D01*
X96372296Y-83259655D01*
X96279654Y-83290563D01*
X96211054Y-83313450D01*
X96060652Y-83406522D01*
X95976207Y-83491115D01*
X95974216Y-83493109D01*
X95911934Y-83527188D01*
X95841114Y-83522185D01*
X95796025Y-83493264D01*
X95713483Y-83410866D01*
X95708303Y-83405695D01*
X95665205Y-83379129D01*
X95563968Y-83316725D01*
X95563966Y-83316724D01*
X95557738Y-83312885D01*
X95397254Y-83259655D01*
X95396389Y-83259368D01*
X95396387Y-83259368D01*
X95389861Y-83257203D01*
X95383025Y-83256503D01*
X95383022Y-83256502D01*
X95339831Y-83252077D01*
X95285400Y-83246500D01*
X94484600Y-83246500D01*
X94481354Y-83246837D01*
X94481350Y-83246837D01*
X94385692Y-83256762D01*
X94385688Y-83256763D01*
X94378834Y-83257474D01*
X94372298Y-83259655D01*
X94372296Y-83259655D01*
X94279654Y-83290563D01*
X94211054Y-83313450D01*
X94060652Y-83406522D01*
X94055479Y-83411704D01*
X94015690Y-83451562D01*
X93935695Y-83531697D01*
X93931855Y-83537927D01*
X93931854Y-83537928D01*
X93851281Y-83668642D01*
X93842885Y-83682262D01*
X93822000Y-83745229D01*
X93792497Y-83834179D01*
X93787203Y-83850139D01*
X93786503Y-83856975D01*
X93786502Y-83856978D01*
X93785901Y-83862842D01*
X93776500Y-83954600D01*
X93776500Y-84955400D01*
X93787474Y-85061166D01*
X93843450Y-85228946D01*
X93933036Y-85373715D01*
X93951873Y-85442163D01*
X93930712Y-85509933D01*
X93914986Y-85529110D01*
X90219500Y-89224595D01*
X90157188Y-89258621D01*
X90130405Y-89261500D01*
X90074513Y-89261500D01*
X90068061Y-89262872D01*
X90068056Y-89262872D01*
X89981113Y-89281353D01*
X89887712Y-89301206D01*
X89881682Y-89303891D01*
X89881681Y-89303891D01*
X89719278Y-89376197D01*
X89719276Y-89376198D01*
X89713248Y-89378882D01*
X89558747Y-89491134D01*
X89554326Y-89496044D01*
X89554325Y-89496045D01*
X89469983Y-89589717D01*
X89430960Y-89633056D01*
X89335473Y-89798444D01*
X89276458Y-89980072D01*
X89275768Y-89986633D01*
X89275768Y-89986635D01*
X89269742Y-90043971D01*
X89256496Y-90170000D01*
X89276458Y-90359928D01*
X89335473Y-90541556D01*
X89430960Y-90706944D01*
X89558747Y-90848866D01*
X89713248Y-90961118D01*
X89719276Y-90963802D01*
X89719278Y-90963803D01*
X89881681Y-91036109D01*
X89887712Y-91038794D01*
X89981113Y-91058647D01*
X90068056Y-91077128D01*
X90068061Y-91077128D01*
X90074513Y-91078500D01*
X90265487Y-91078500D01*
X90271939Y-91077128D01*
X90271944Y-91077128D01*
X90358887Y-91058647D01*
X90452288Y-91038794D01*
X90458319Y-91036109D01*
X90620722Y-90963803D01*
X90620724Y-90963802D01*
X90626752Y-90961118D01*
X90781253Y-90848866D01*
X90909040Y-90706944D01*
X91004527Y-90541556D01*
X91063542Y-90359928D01*
X91080907Y-90194706D01*
X91107920Y-90129050D01*
X91117122Y-90118782D01*
X91868019Y-89367885D01*
X100477000Y-89367885D01*
X100481475Y-89383124D01*
X100482865Y-89384329D01*
X100490548Y-89386000D01*
X101237885Y-89386000D01*
X101253124Y-89381525D01*
X101254329Y-89380135D01*
X101256000Y-89372452D01*
X101256000Y-88450116D01*
X101251525Y-88434877D01*
X101250135Y-88433672D01*
X101242452Y-88432001D01*
X100940331Y-88432001D01*
X100933510Y-88432371D01*
X100882648Y-88437895D01*
X100867396Y-88441521D01*
X100746946Y-88486676D01*
X100731351Y-88495214D01*
X100629276Y-88571715D01*
X100616715Y-88584276D01*
X100540214Y-88686351D01*
X100531676Y-88701946D01*
X100486522Y-88822394D01*
X100482895Y-88837649D01*
X100477369Y-88888514D01*
X100477000Y-88895328D01*
X100477000Y-89367885D01*
X91868019Y-89367885D01*
X92492643Y-88743261D01*
X93639726Y-87596179D01*
X93702036Y-87562154D01*
X93772851Y-87567219D01*
X93829687Y-87609766D01*
X93854129Y-87672104D01*
X93865652Y-87781739D01*
X93869666Y-87819928D01*
X93928681Y-88001556D01*
X94024168Y-88166944D01*
X94028586Y-88171851D01*
X94028587Y-88171852D01*
X94111107Y-88263500D01*
X94151955Y-88308866D01*
X94306456Y-88421118D01*
X94312484Y-88423802D01*
X94312486Y-88423803D01*
X94395460Y-88460745D01*
X94480920Y-88498794D01*
X94574321Y-88518647D01*
X94661264Y-88537128D01*
X94661269Y-88537128D01*
X94667721Y-88538500D01*
X94858695Y-88538500D01*
X94865147Y-88537128D01*
X94865152Y-88537128D01*
X94952095Y-88518647D01*
X95045496Y-88498794D01*
X95130956Y-88460745D01*
X95213930Y-88423803D01*
X95213932Y-88423802D01*
X95219960Y-88421118D01*
X95374461Y-88308866D01*
X95378876Y-88303963D01*
X95383788Y-88299540D01*
X95384913Y-88300789D01*
X95438222Y-88267949D01*
X95471408Y-88263500D01*
X97040500Y-88263500D01*
X97108621Y-88283502D01*
X97155114Y-88337158D01*
X97166500Y-88389500D01*
X97166500Y-88428134D01*
X97173255Y-88490316D01*
X97224385Y-88626705D01*
X97311739Y-88743261D01*
X97428295Y-88830615D01*
X97564684Y-88881745D01*
X97626866Y-88888500D01*
X99223134Y-88888500D01*
X99285316Y-88881745D01*
X99421705Y-88830615D01*
X99538261Y-88743261D01*
X99625615Y-88626705D01*
X99676745Y-88490316D01*
X99683500Y-88428134D01*
X99683500Y-88289438D01*
X99703502Y-88221317D01*
X99735440Y-88187501D01*
X99768387Y-88163564D01*
X99778307Y-88157048D01*
X99809535Y-88138580D01*
X99809538Y-88138578D01*
X99816362Y-88134542D01*
X99830683Y-88120221D01*
X99845717Y-88107380D01*
X99855694Y-88100131D01*
X99862107Y-88095472D01*
X99890298Y-88061395D01*
X99898288Y-88052616D01*
X101687307Y-86263598D01*
X101695593Y-86256058D01*
X101702072Y-86251946D01*
X101748698Y-86202294D01*
X101751452Y-86199453D01*
X101771189Y-86179716D01*
X101773669Y-86176519D01*
X101781374Y-86167497D01*
X101806213Y-86141046D01*
X101811640Y-86135267D01*
X101815459Y-86128321D01*
X101815461Y-86128318D01*
X101821402Y-86117512D01*
X101832253Y-86100993D01*
X101839812Y-86091247D01*
X101844668Y-86084987D01*
X101847813Y-86077718D01*
X101847816Y-86077714D01*
X101862228Y-86044409D01*
X101867445Y-86033759D01*
X101888749Y-85995006D01*
X101893787Y-85975383D01*
X101900191Y-85956680D01*
X101905087Y-85945366D01*
X101905087Y-85945365D01*
X101908235Y-85938091D01*
X101909474Y-85930268D01*
X101909477Y-85930258D01*
X101915153Y-85894422D01*
X101917559Y-85882802D01*
X101926582Y-85847657D01*
X101926582Y-85847656D01*
X101928554Y-85839976D01*
X101928554Y-85819722D01*
X101930105Y-85800011D01*
X101932034Y-85787832D01*
X101933274Y-85780003D01*
X101929113Y-85735984D01*
X101928554Y-85724127D01*
X101928554Y-84925512D01*
X101948556Y-84857391D01*
X102002212Y-84810898D01*
X102072486Y-84800794D01*
X102137066Y-84830288D01*
X102173867Y-84885011D01*
X102408491Y-85576192D01*
X102410144Y-85581435D01*
X102479598Y-85819722D01*
X102632962Y-86345888D01*
X102646571Y-86392580D01*
X102647993Y-86397885D01*
X102795346Y-87000062D01*
X102848821Y-87218597D01*
X102850011Y-87223965D01*
X103014841Y-88052629D01*
X103015795Y-88058042D01*
X103050933Y-88286332D01*
X103041527Y-88356703D01*
X102995569Y-88410817D01*
X102926400Y-88431500D01*
X102386866Y-88431500D01*
X102324684Y-88438255D01*
X102305230Y-88445548D01*
X102278518Y-88455562D01*
X102207711Y-88460745D01*
X102190058Y-88455562D01*
X102152606Y-88441522D01*
X102137351Y-88437895D01*
X102086486Y-88432369D01*
X102079672Y-88432000D01*
X101782115Y-88432000D01*
X101766876Y-88436475D01*
X101765671Y-88437865D01*
X101764000Y-88445548D01*
X101764000Y-89768000D01*
X101743998Y-89836121D01*
X101690342Y-89882614D01*
X101638000Y-89894000D01*
X100495116Y-89894000D01*
X100479877Y-89898475D01*
X100478672Y-89899865D01*
X100477001Y-89907548D01*
X100477001Y-90384669D01*
X100477371Y-90391490D01*
X100482895Y-90442352D01*
X100486521Y-90457604D01*
X100531676Y-90578054D01*
X100540214Y-90593649D01*
X100616715Y-90695724D01*
X100629276Y-90708285D01*
X100656345Y-90728572D01*
X100698860Y-90785431D01*
X100703886Y-90856249D01*
X100684994Y-90900216D01*
X100588063Y-91042846D01*
X100585531Y-91049176D01*
X100585529Y-91049180D01*
X100522738Y-91206168D01*
X100522737Y-91206173D01*
X100520204Y-91212505D01*
X100519090Y-91219232D01*
X100519089Y-91219237D01*
X100491475Y-91386039D01*
X100490360Y-91392777D01*
X100490717Y-91399594D01*
X100490717Y-91399598D01*
X100495984Y-91500092D01*
X100499923Y-91575253D01*
X100501734Y-91581826D01*
X100501734Y-91581829D01*
X100542080Y-91728303D01*
X100548447Y-91751418D01*
X100633668Y-91913054D01*
X100679566Y-91967367D01*
X100708257Y-92032305D01*
X100697284Y-92102449D01*
X100658892Y-92149519D01*
X100629276Y-92171715D01*
X100616715Y-92184276D01*
X100540214Y-92286351D01*
X100531676Y-92301946D01*
X100486522Y-92422394D01*
X100482895Y-92437649D01*
X100477369Y-92488514D01*
X100477000Y-92495328D01*
X100477000Y-92967885D01*
X100481475Y-92983124D01*
X100482865Y-92984329D01*
X100490548Y-92986000D01*
X101638000Y-92986000D01*
X101706121Y-93006002D01*
X101752614Y-93059658D01*
X101764000Y-93112000D01*
X101764000Y-93368000D01*
X101743998Y-93436121D01*
X101690342Y-93482614D01*
X101638000Y-93494000D01*
X100495116Y-93494000D01*
X100479877Y-93498475D01*
X100478672Y-93499865D01*
X100474122Y-93520783D01*
X100472610Y-93520454D01*
X100456999Y-93573621D01*
X100403343Y-93620114D01*
X100351001Y-93631500D01*
X97904500Y-93631500D01*
X97836379Y-93611498D01*
X97789886Y-93557842D01*
X97778500Y-93505500D01*
X97778500Y-93181866D01*
X97771745Y-93119684D01*
X97720615Y-92983295D01*
X97633261Y-92866739D01*
X97516705Y-92779385D01*
X97380316Y-92728255D01*
X97318134Y-92721500D01*
X97279500Y-92721500D01*
X97211379Y-92701498D01*
X97164886Y-92647842D01*
X97153500Y-92595500D01*
X97153500Y-91518768D01*
X97154027Y-91507585D01*
X97155702Y-91500092D01*
X97153562Y-91432001D01*
X97153500Y-91428044D01*
X97153500Y-91400144D01*
X97152996Y-91396153D01*
X97152063Y-91384311D01*
X97150923Y-91348036D01*
X97150674Y-91340111D01*
X97145021Y-91320652D01*
X97141012Y-91301293D01*
X97140846Y-91299983D01*
X97138474Y-91281203D01*
X97135558Y-91273837D01*
X97135556Y-91273831D01*
X97122200Y-91240098D01*
X97118355Y-91228868D01*
X97108230Y-91194017D01*
X97108230Y-91194016D01*
X97106019Y-91186407D01*
X97095705Y-91168966D01*
X97087008Y-91151213D01*
X97082472Y-91139758D01*
X97079552Y-91132383D01*
X97053563Y-91096612D01*
X97047047Y-91086692D01*
X97041391Y-91077128D01*
X97024542Y-91048638D01*
X97019753Y-91043849D01*
X96993993Y-90978241D01*
X96993500Y-90967101D01*
X96993500Y-90304600D01*
X96988821Y-90259500D01*
X96983238Y-90205692D01*
X96983237Y-90205688D01*
X96982526Y-90198834D01*
X96975097Y-90176565D01*
X96928868Y-90038002D01*
X96926550Y-90031054D01*
X96833478Y-89880652D01*
X96708303Y-89755695D01*
X96689248Y-89743949D01*
X96563968Y-89666725D01*
X96563966Y-89666724D01*
X96557738Y-89662885D01*
X96453009Y-89628148D01*
X96396389Y-89609368D01*
X96396387Y-89609368D01*
X96389861Y-89607203D01*
X96383025Y-89606503D01*
X96383022Y-89606502D01*
X96339969Y-89602091D01*
X96285400Y-89596500D01*
X95484600Y-89596500D01*
X95481354Y-89596837D01*
X95481350Y-89596837D01*
X95385692Y-89606762D01*
X95385688Y-89606763D01*
X95378834Y-89607474D01*
X95372298Y-89609655D01*
X95372296Y-89609655D01*
X95258982Y-89647460D01*
X95211054Y-89663450D01*
X95060652Y-89756522D01*
X95055479Y-89761704D01*
X94974216Y-89843109D01*
X94911934Y-89877188D01*
X94841114Y-89872185D01*
X94796025Y-89843264D01*
X94713483Y-89760866D01*
X94708303Y-89755695D01*
X94689248Y-89743949D01*
X94563968Y-89666725D01*
X94563966Y-89666724D01*
X94557738Y-89662885D01*
X94453009Y-89628148D01*
X94396389Y-89609368D01*
X94396387Y-89609368D01*
X94389861Y-89607203D01*
X94383025Y-89606503D01*
X94383022Y-89606502D01*
X94339969Y-89602091D01*
X94285400Y-89596500D01*
X93484600Y-89596500D01*
X93481354Y-89596837D01*
X93481350Y-89596837D01*
X93385692Y-89606762D01*
X93385688Y-89606763D01*
X93378834Y-89607474D01*
X93372298Y-89609655D01*
X93372296Y-89609655D01*
X93258982Y-89647460D01*
X93211054Y-89663450D01*
X93060652Y-89756522D01*
X92935695Y-89881697D01*
X92931855Y-89887927D01*
X92931854Y-89887928D01*
X92859727Y-90004940D01*
X92842885Y-90032262D01*
X92832592Y-90063294D01*
X92797200Y-90170000D01*
X92787203Y-90200139D01*
X92776500Y-90304600D01*
X92776500Y-90425406D01*
X92756498Y-90493527D01*
X92739595Y-90514501D01*
X90219500Y-93034595D01*
X90157188Y-93068621D01*
X90130405Y-93071500D01*
X90074513Y-93071500D01*
X90068061Y-93072872D01*
X90068056Y-93072872D01*
X89981113Y-93091353D01*
X89887712Y-93111206D01*
X89881682Y-93113891D01*
X89881681Y-93113891D01*
X89719278Y-93186197D01*
X89719276Y-93186198D01*
X89713248Y-93188882D01*
X89558747Y-93301134D01*
X89430960Y-93443056D01*
X89335473Y-93608444D01*
X89276458Y-93790072D01*
X89256496Y-93980000D01*
X89276458Y-94169928D01*
X89335473Y-94351556D01*
X89338776Y-94357278D01*
X89338777Y-94357279D01*
X89379319Y-94427500D01*
X89396057Y-94496496D01*
X89372836Y-94563587D01*
X89317029Y-94607474D01*
X89270200Y-94616500D01*
X84045094Y-94616500D01*
X83976973Y-94596498D01*
X83955999Y-94579595D01*
X79687122Y-90310717D01*
X79653096Y-90248405D01*
X79650907Y-90234792D01*
X79634232Y-90076135D01*
X79634232Y-90076133D01*
X79633542Y-90069572D01*
X79574527Y-89887944D01*
X79548642Y-89843109D01*
X79489806Y-89741204D01*
X79479040Y-89722556D01*
X79429468Y-89667500D01*
X79355675Y-89585545D01*
X79355674Y-89585544D01*
X79351253Y-89580634D01*
X79240551Y-89500204D01*
X79202094Y-89472263D01*
X79202093Y-89472262D01*
X79196752Y-89468382D01*
X79190724Y-89465698D01*
X79190722Y-89465697D01*
X79028319Y-89393391D01*
X79028318Y-89393391D01*
X79022288Y-89390706D01*
X78928888Y-89370853D01*
X78841944Y-89352372D01*
X78841939Y-89352372D01*
X78835487Y-89351000D01*
X78644513Y-89351000D01*
X78638061Y-89352372D01*
X78638056Y-89352372D01*
X78551112Y-89370853D01*
X78457712Y-89390706D01*
X78451682Y-89393391D01*
X78451681Y-89393391D01*
X78289278Y-89465697D01*
X78289276Y-89465698D01*
X78283248Y-89468382D01*
X78241792Y-89498502D01*
X78239449Y-89500204D01*
X78172581Y-89524062D01*
X78103430Y-89507982D01*
X78083544Y-89493679D01*
X78081253Y-89491134D01*
X77946722Y-89393391D01*
X77932094Y-89382763D01*
X77932093Y-89382762D01*
X77926752Y-89378882D01*
X77920724Y-89376198D01*
X77920722Y-89376197D01*
X77758319Y-89303891D01*
X77758318Y-89303891D01*
X77752288Y-89301206D01*
X77630768Y-89275376D01*
X77568295Y-89241647D01*
X77533973Y-89179498D01*
X77538701Y-89108659D01*
X77567870Y-89063034D01*
X78753040Y-87877865D01*
X80097819Y-86533086D01*
X80160131Y-86499060D01*
X80186914Y-86496181D01*
X81285500Y-86496181D01*
X81353621Y-86516183D01*
X81400114Y-86569839D01*
X81411500Y-86622181D01*
X81411500Y-87410815D01*
X81418255Y-87472997D01*
X81469385Y-87609386D01*
X81556739Y-87725942D01*
X81673295Y-87813296D01*
X81809684Y-87864426D01*
X81871866Y-87871181D01*
X85568134Y-87871181D01*
X85630316Y-87864426D01*
X85766705Y-87813296D01*
X85883261Y-87725942D01*
X85970615Y-87609386D01*
X86021745Y-87472997D01*
X86028500Y-87410815D01*
X86028500Y-86622181D01*
X86048502Y-86554060D01*
X86102158Y-86507567D01*
X86154500Y-86496181D01*
X87413552Y-86496181D01*
X87424735Y-86496708D01*
X87432228Y-86498383D01*
X87440154Y-86498134D01*
X87440155Y-86498134D01*
X87500305Y-86496243D01*
X87504264Y-86496181D01*
X87532175Y-86496181D01*
X87536110Y-86495684D01*
X87536175Y-86495676D01*
X87548012Y-86494743D01*
X87580270Y-86493729D01*
X87584289Y-86493603D01*
X87592208Y-86493354D01*
X87611662Y-86487702D01*
X87631019Y-86483694D01*
X87643249Y-86482149D01*
X87643250Y-86482149D01*
X87651116Y-86481155D01*
X87658487Y-86478236D01*
X87658489Y-86478236D01*
X87692231Y-86464877D01*
X87703461Y-86461032D01*
X87738302Y-86450910D01*
X87738303Y-86450910D01*
X87745912Y-86448699D01*
X87752731Y-86444666D01*
X87752736Y-86444664D01*
X87763347Y-86438388D01*
X87781095Y-86429693D01*
X87799936Y-86422233D01*
X87835706Y-86396245D01*
X87845626Y-86389729D01*
X87876854Y-86371261D01*
X87876857Y-86371259D01*
X87883681Y-86367223D01*
X87898002Y-86352902D01*
X87913036Y-86340061D01*
X87923013Y-86332812D01*
X87929426Y-86328153D01*
X87957617Y-86294076D01*
X87965607Y-86285297D01*
X89292247Y-84958657D01*
X89300537Y-84951113D01*
X89307018Y-84947000D01*
X89353659Y-84897332D01*
X89356413Y-84894491D01*
X89376135Y-84874769D01*
X89378612Y-84871576D01*
X89386317Y-84862555D01*
X89411159Y-84836100D01*
X89416586Y-84830321D01*
X89420407Y-84823371D01*
X89426346Y-84812568D01*
X89437202Y-84796041D01*
X89444757Y-84786302D01*
X89444758Y-84786300D01*
X89449614Y-84780040D01*
X89467174Y-84739460D01*
X89472391Y-84728812D01*
X89489875Y-84697009D01*
X89489876Y-84697007D01*
X89493695Y-84690060D01*
X89498733Y-84670437D01*
X89505137Y-84651734D01*
X89510033Y-84640420D01*
X89510033Y-84640419D01*
X89513181Y-84633145D01*
X89514420Y-84625322D01*
X89514423Y-84625312D01*
X89520099Y-84589476D01*
X89522505Y-84577856D01*
X89531528Y-84542711D01*
X89531528Y-84542710D01*
X89533500Y-84535030D01*
X89533500Y-84514776D01*
X89535051Y-84495065D01*
X89536980Y-84482886D01*
X89538220Y-84475057D01*
X89534059Y-84431038D01*
X89533500Y-84419181D01*
X89533500Y-83934500D01*
X89553502Y-83866379D01*
X89607158Y-83819886D01*
X89659500Y-83808500D01*
X89698134Y-83808500D01*
X89760316Y-83801745D01*
X89896705Y-83750615D01*
X90013261Y-83663261D01*
X90100615Y-83546705D01*
X90151745Y-83410316D01*
X90158500Y-83348134D01*
X90158500Y-81751866D01*
X90151745Y-81689684D01*
X90100615Y-81553295D01*
X90013261Y-81436739D01*
X89896705Y-81349385D01*
X89760316Y-81298255D01*
X89698134Y-81291500D01*
X88101866Y-81291500D01*
X88039684Y-81298255D01*
X87903295Y-81349385D01*
X87786739Y-81436739D01*
X87699385Y-81553295D01*
X87696233Y-81561703D01*
X87652028Y-81679618D01*
X87609386Y-81736382D01*
X87542824Y-81761082D01*
X87473476Y-81745874D01*
X87440576Y-81717710D01*
X87439617Y-81718583D01*
X87292806Y-81557240D01*
X87285273Y-81550215D01*
X87118139Y-81418222D01*
X87109552Y-81412517D01*
X86923117Y-81309599D01*
X86913705Y-81305369D01*
X86712959Y-81234280D01*
X86702988Y-81231646D01*
X86631837Y-81218972D01*
X86618540Y-81220432D01*
X86614000Y-81234989D01*
X86614000Y-83868517D01*
X86618064Y-83882359D01*
X86631478Y-83884393D01*
X86638184Y-83883534D01*
X86648262Y-83881392D01*
X86852255Y-83820191D01*
X86861842Y-83816433D01*
X87053095Y-83722739D01*
X87061945Y-83717464D01*
X87235328Y-83593792D01*
X87243200Y-83587139D01*
X87394052Y-83436812D01*
X87400725Y-83428970D01*
X87430430Y-83387632D01*
X87486425Y-83343985D01*
X87557128Y-83337539D01*
X87620092Y-83370342D01*
X87650734Y-83416929D01*
X87663717Y-83451562D01*
X87699385Y-83546705D01*
X87786739Y-83663261D01*
X87903295Y-83750615D01*
X88039684Y-83801745D01*
X88101866Y-83808500D01*
X88140500Y-83808500D01*
X88208621Y-83828502D01*
X88255114Y-83882158D01*
X88266500Y-83934500D01*
X88266500Y-84140406D01*
X88246498Y-84208527D01*
X88229599Y-84229497D01*
X87266817Y-85192278D01*
X87204507Y-85226302D01*
X87177724Y-85229181D01*
X86154500Y-85229181D01*
X86086379Y-85209179D01*
X86039886Y-85155523D01*
X86028500Y-85103181D01*
X86028500Y-84314547D01*
X86021745Y-84252365D01*
X85970615Y-84115976D01*
X85939980Y-84075100D01*
X85915132Y-84008594D01*
X85930185Y-83939211D01*
X85980359Y-83888981D01*
X86049725Y-83873851D01*
X86065926Y-83876064D01*
X86088249Y-83880606D01*
X86102299Y-83879410D01*
X86106000Y-83869065D01*
X86106000Y-81233102D01*
X86102082Y-81219758D01*
X86087806Y-81217771D01*
X86049324Y-81223660D01*
X86039288Y-81226051D01*
X85836868Y-81292212D01*
X85827359Y-81296209D01*
X85638463Y-81394542D01*
X85629738Y-81400036D01*
X85459433Y-81527905D01*
X85451726Y-81534748D01*
X85304590Y-81688717D01*
X85298109Y-81696722D01*
X85193498Y-81850074D01*
X85138587Y-81895076D01*
X85068062Y-81903247D01*
X85004315Y-81871993D01*
X84983618Y-81847509D01*
X84902822Y-81722617D01*
X84902820Y-81722614D01*
X84900014Y-81718277D01*
X84749670Y-81553051D01*
X84745619Y-81549852D01*
X84745615Y-81549848D01*
X84578414Y-81417800D01*
X84578410Y-81417798D01*
X84574359Y-81414598D01*
X84538028Y-81394542D01*
X84456225Y-81349385D01*
X84378789Y-81306638D01*
X84373920Y-81304914D01*
X84373916Y-81304912D01*
X84173087Y-81233795D01*
X84173083Y-81233794D01*
X84168212Y-81232069D01*
X84163119Y-81231162D01*
X84163116Y-81231161D01*
X83953373Y-81193800D01*
X83953367Y-81193799D01*
X83948284Y-81192894D01*
X83874452Y-81191992D01*
X83730081Y-81190228D01*
X83730079Y-81190228D01*
X83724911Y-81190165D01*
X83504091Y-81223955D01*
X83291756Y-81293357D01*
X83093607Y-81396507D01*
X83089474Y-81399610D01*
X83089471Y-81399612D01*
X82919100Y-81527530D01*
X82914965Y-81530635D01*
X82858537Y-81589684D01*
X82834283Y-81615064D01*
X82772759Y-81650494D01*
X82701846Y-81647037D01*
X82644060Y-81605791D01*
X82625207Y-81572243D01*
X82583767Y-81461703D01*
X82580615Y-81453295D01*
X82493261Y-81336739D01*
X82376705Y-81249385D01*
X82240316Y-81198255D01*
X82178134Y-81191500D01*
X80869595Y-81191500D01*
X80801474Y-81171498D01*
X80780500Y-81154595D01*
X80319907Y-80694002D01*
X96922634Y-80694002D01*
X96923037Y-80711774D01*
X96944157Y-80838665D01*
X96948641Y-80853681D01*
X96969293Y-80900506D01*
X96972376Y-80906582D01*
X97208656Y-81315831D01*
X97220151Y-81326791D01*
X97221959Y-81327140D01*
X97229446Y-81324747D01*
X97876660Y-80951078D01*
X97887620Y-80939583D01*
X97887968Y-80937776D01*
X97885575Y-80930288D01*
X97424406Y-80131520D01*
X97412911Y-80120560D01*
X97411104Y-80120212D01*
X97403616Y-80122605D01*
X97141967Y-80273669D01*
X97136256Y-80277392D01*
X97094961Y-80307614D01*
X97083569Y-80318377D01*
X97001832Y-80417709D01*
X96992594Y-80432903D01*
X96942449Y-80550184D01*
X96937848Y-80567352D01*
X96922634Y-80694002D01*
X80319907Y-80694002D01*
X80198652Y-80572747D01*
X80191112Y-80564461D01*
X80187000Y-80557982D01*
X80137348Y-80511356D01*
X80134507Y-80508602D01*
X80114770Y-80488865D01*
X80111573Y-80486385D01*
X80102551Y-80478680D01*
X80076100Y-80453841D01*
X80070321Y-80448414D01*
X80063375Y-80444595D01*
X80063372Y-80444593D01*
X80052566Y-80438652D01*
X80036047Y-80427801D01*
X80035583Y-80427441D01*
X80020041Y-80415386D01*
X80012772Y-80412241D01*
X80012768Y-80412238D01*
X79979463Y-80397826D01*
X79968813Y-80392609D01*
X79930060Y-80371305D01*
X79910437Y-80366267D01*
X79891734Y-80359863D01*
X79880420Y-80354967D01*
X79880419Y-80354967D01*
X79873145Y-80351819D01*
X79865322Y-80350580D01*
X79865312Y-80350577D01*
X79829476Y-80344901D01*
X79817856Y-80342495D01*
X79782711Y-80333472D01*
X79782710Y-80333472D01*
X79775030Y-80331500D01*
X79754776Y-80331500D01*
X79735065Y-80329949D01*
X79722886Y-80328020D01*
X79715057Y-80326780D01*
X79707165Y-80327526D01*
X79699243Y-80327277D01*
X79699355Y-80323727D01*
X79645500Y-80313432D01*
X79626363Y-80301314D01*
X79549131Y-80242052D01*
X79549126Y-80242049D01*
X79542575Y-80237022D01*
X79436282Y-80192994D01*
X79381001Y-80148446D01*
X79358500Y-80076585D01*
X79358500Y-79826385D01*
X79378502Y-79758264D01*
X79395326Y-79737368D01*
X79439133Y-79693484D01*
X79444305Y-79688303D01*
X79449264Y-79680258D01*
X79533275Y-79543968D01*
X79533276Y-79543966D01*
X79537115Y-79537738D01*
X79562955Y-79459833D01*
X79603386Y-79401473D01*
X79668950Y-79374236D01*
X79682548Y-79373500D01*
X82435500Y-79373500D01*
X82503621Y-79393502D01*
X82550114Y-79447158D01*
X82561500Y-79499500D01*
X82561500Y-79538134D01*
X82568255Y-79600316D01*
X82619385Y-79736705D01*
X82706739Y-79853261D01*
X82823295Y-79940615D01*
X82959684Y-79991745D01*
X83021866Y-79998500D01*
X84618134Y-79998500D01*
X84680316Y-79991745D01*
X84816705Y-79940615D01*
X84933261Y-79853261D01*
X85020615Y-79736705D01*
X85071745Y-79600316D01*
X85078500Y-79538134D01*
X85078500Y-77941866D01*
X85071745Y-77879684D01*
X85020615Y-77743295D01*
X84933261Y-77626739D01*
X84816705Y-77539385D01*
X84680316Y-77488255D01*
X84618134Y-77481500D01*
X83021866Y-77481500D01*
X82959684Y-77488255D01*
X82823295Y-77539385D01*
X82706739Y-77626739D01*
X82619385Y-77743295D01*
X82568255Y-77879684D01*
X82561500Y-77941866D01*
X82561500Y-77980500D01*
X82541498Y-78048621D01*
X82487842Y-78095114D01*
X82435500Y-78106500D01*
X79682538Y-78106500D01*
X79614417Y-78086498D01*
X79567924Y-78032842D01*
X79563014Y-78020376D01*
X79538868Y-77948002D01*
X79536550Y-77941054D01*
X79443478Y-77790652D01*
X79318303Y-77665695D01*
X79312072Y-77661854D01*
X79173968Y-77576725D01*
X79173966Y-77576724D01*
X79167738Y-77572885D01*
X79057235Y-77536233D01*
X79006389Y-77519368D01*
X79006387Y-77519368D01*
X78999861Y-77517203D01*
X78993025Y-77516503D01*
X78993022Y-77516502D01*
X78949969Y-77512091D01*
X78895400Y-77506500D01*
X78119600Y-77506500D01*
X78116354Y-77506837D01*
X78116350Y-77506837D01*
X78020692Y-77516762D01*
X78020688Y-77516763D01*
X78013834Y-77517474D01*
X78007298Y-77519655D01*
X78007296Y-77519655D01*
X77948159Y-77539385D01*
X77846054Y-77573450D01*
X77695652Y-77666522D01*
X77570695Y-77791697D01*
X77567898Y-77796235D01*
X77510647Y-77836824D01*
X77439724Y-77840054D01*
X77378313Y-77804428D01*
X77370938Y-77795932D01*
X77362902Y-77785793D01*
X77248171Y-77671261D01*
X77236760Y-77662249D01*
X77098757Y-77577184D01*
X77085576Y-77571037D01*
X76931290Y-77519862D01*
X76917914Y-77516995D01*
X76823562Y-77507328D01*
X76817145Y-77507000D01*
X76704615Y-77507000D01*
X76689376Y-77511475D01*
X76688171Y-77512865D01*
X76686500Y-77520548D01*
X76686500Y-78868000D01*
X76666498Y-78936121D01*
X76612842Y-78982614D01*
X76560500Y-78994000D01*
X75355116Y-78994000D01*
X75339877Y-78998475D01*
X75338672Y-78999865D01*
X75337001Y-79007548D01*
X75337001Y-79262095D01*
X75337338Y-79268614D01*
X75347257Y-79364206D01*
X75350149Y-79377600D01*
X75401588Y-79531784D01*
X75407761Y-79544962D01*
X75493063Y-79682807D01*
X75502099Y-79694208D01*
X75616829Y-79808739D01*
X75628240Y-79817751D01*
X75766243Y-79902816D01*
X75779424Y-79908963D01*
X75800362Y-79915908D01*
X75858722Y-79956340D01*
X75885958Y-80021904D01*
X75873424Y-80091785D01*
X75825099Y-80143797D01*
X75760694Y-80161501D01*
X75659376Y-80161501D01*
X75655291Y-80162039D01*
X75655287Y-80162039D01*
X75550839Y-80175789D01*
X75550837Y-80175789D01*
X75542652Y-80176867D01*
X75397424Y-80237022D01*
X75370192Y-80257918D01*
X75279268Y-80327686D01*
X75279266Y-80327688D01*
X75272715Y-80332715D01*
X75267689Y-80339265D01*
X75267688Y-80339266D01*
X75251884Y-80359863D01*
X75177022Y-80457425D01*
X75116867Y-80602652D01*
X75101500Y-80719375D01*
X75101501Y-81210624D01*
X75102039Y-81214709D01*
X75102039Y-81214713D01*
X75114530Y-81309599D01*
X75116867Y-81327348D01*
X75125995Y-81349385D01*
X75143827Y-81392435D01*
X75151416Y-81463025D01*
X75143827Y-81488871D01*
X75120514Y-81545153D01*
X75116276Y-81560970D01*
X75105471Y-81643040D01*
X75107683Y-81657221D01*
X75120841Y-81661000D01*
X75312979Y-81661000D01*
X75381100Y-81681002D01*
X75389679Y-81687034D01*
X75397425Y-81692978D01*
X75542652Y-81753133D01*
X75615579Y-81762734D01*
X75655288Y-81767962D01*
X75655289Y-81767962D01*
X75659375Y-81768500D01*
X76214932Y-81768500D01*
X76770624Y-81768499D01*
X76774709Y-81767961D01*
X76774713Y-81767961D01*
X76879161Y-81754211D01*
X76879163Y-81754211D01*
X76887348Y-81753133D01*
X76970760Y-81718583D01*
X77024948Y-81696138D01*
X77024950Y-81696137D01*
X77032576Y-81692978D01*
X77040317Y-81687038D01*
X77041504Y-81686579D01*
X77046281Y-81683821D01*
X77046711Y-81684566D01*
X77106537Y-81661437D01*
X77117022Y-81661000D01*
X77308777Y-81661000D01*
X77322548Y-81656956D01*
X77324577Y-81643417D01*
X77313724Y-81560972D01*
X77309486Y-81545153D01*
X77286173Y-81488871D01*
X77278584Y-81418281D01*
X77286173Y-81392435D01*
X77309973Y-81334977D01*
X77309973Y-81334976D01*
X77313133Y-81327348D01*
X77326469Y-81226051D01*
X77327962Y-81214712D01*
X77327962Y-81214711D01*
X77328500Y-81210625D01*
X77328499Y-80719376D01*
X77327499Y-80711774D01*
X77314211Y-80610839D01*
X77314211Y-80610837D01*
X77313133Y-80602652D01*
X77252978Y-80457424D01*
X77203240Y-80392604D01*
X77162314Y-80339268D01*
X77162311Y-80339265D01*
X77157285Y-80332715D01*
X77149551Y-80326780D01*
X77065676Y-80262421D01*
X77032575Y-80237022D01*
X77024948Y-80233863D01*
X77024945Y-80233861D01*
X76929110Y-80194165D01*
X76873829Y-80149616D01*
X76851408Y-80082253D01*
X76868966Y-80013462D01*
X76920929Y-79965083D01*
X76937453Y-79958232D01*
X77086782Y-79908413D01*
X77099962Y-79902239D01*
X77237807Y-79816937D01*
X77249208Y-79807901D01*
X77363738Y-79693172D01*
X77370794Y-79684238D01*
X77428712Y-79643177D01*
X77499635Y-79639947D01*
X77561046Y-79675574D01*
X77567846Y-79683407D01*
X77571522Y-79689348D01*
X77576704Y-79694521D01*
X77583105Y-79700911D01*
X77696697Y-79814305D01*
X77702927Y-79818145D01*
X77702928Y-79818146D01*
X77840288Y-79902816D01*
X77847262Y-79907115D01*
X77932024Y-79935229D01*
X78001819Y-79958379D01*
X78060179Y-79998809D01*
X78087416Y-80064374D01*
X78074883Y-80134255D01*
X78026558Y-80186267D01*
X78010374Y-80194379D01*
X77907424Y-80237022D01*
X77880192Y-80257918D01*
X77789268Y-80327686D01*
X77789266Y-80327688D01*
X77782715Y-80332715D01*
X77777689Y-80339265D01*
X77777688Y-80339266D01*
X77761884Y-80359863D01*
X77687022Y-80457425D01*
X77626867Y-80602652D01*
X77611500Y-80719375D01*
X77611501Y-81210624D01*
X77612039Y-81214709D01*
X77612039Y-81214713D01*
X77624530Y-81309599D01*
X77626867Y-81327348D01*
X77687022Y-81472576D01*
X77699526Y-81488871D01*
X77777686Y-81590732D01*
X77777689Y-81590735D01*
X77782715Y-81597285D01*
X77907425Y-81692978D01*
X78052652Y-81753133D01*
X78125579Y-81762734D01*
X78165288Y-81767962D01*
X78165289Y-81767962D01*
X78169375Y-81768500D01*
X78724932Y-81768500D01*
X79280624Y-81768499D01*
X79284709Y-81767961D01*
X79284713Y-81767961D01*
X79389161Y-81754211D01*
X79389163Y-81754211D01*
X79397348Y-81753133D01*
X79453833Y-81729736D01*
X79524422Y-81722147D01*
X79591146Y-81757050D01*
X79884595Y-82050499D01*
X79918621Y-82112811D01*
X79921500Y-82139594D01*
X79921500Y-82192831D01*
X79901498Y-82260952D01*
X79847842Y-82307445D01*
X79777568Y-82317549D01*
X79712988Y-82288055D01*
X79695538Y-82269535D01*
X79667285Y-82232715D01*
X79627378Y-82202093D01*
X79558182Y-82148998D01*
X79542575Y-82137022D01*
X79397348Y-82076867D01*
X79324421Y-82067266D01*
X79284712Y-82062038D01*
X79284711Y-82062038D01*
X79280625Y-82061500D01*
X78725068Y-82061500D01*
X78169376Y-82061501D01*
X78165291Y-82062039D01*
X78165287Y-82062039D01*
X78060839Y-82075789D01*
X78060837Y-82075789D01*
X78052652Y-82076867D01*
X77907424Y-82137022D01*
X77891817Y-82148998D01*
X77789268Y-82227686D01*
X77789266Y-82227688D01*
X77782715Y-82232715D01*
X77777689Y-82239265D01*
X77777688Y-82239266D01*
X77747214Y-82278981D01*
X77687022Y-82357425D01*
X77626867Y-82502652D01*
X77611500Y-82619375D01*
X77611501Y-83110624D01*
X77612039Y-83114709D01*
X77612039Y-83114713D01*
X77623932Y-83205055D01*
X77626867Y-83227348D01*
X77687022Y-83372576D01*
X77721659Y-83417715D01*
X77777686Y-83490732D01*
X77777688Y-83490734D01*
X77782715Y-83497285D01*
X77789265Y-83502311D01*
X77789266Y-83502312D01*
X77824545Y-83529382D01*
X77907425Y-83592978D01*
X78052652Y-83653133D01*
X78118180Y-83661760D01*
X78165288Y-83667962D01*
X78165289Y-83667962D01*
X78169375Y-83668500D01*
X78724932Y-83668500D01*
X79280624Y-83668499D01*
X79284709Y-83667961D01*
X79284713Y-83667961D01*
X79389161Y-83654211D01*
X79389163Y-83654211D01*
X79397348Y-83653133D01*
X79542576Y-83592978D01*
X79622439Y-83531697D01*
X79660732Y-83502314D01*
X79660735Y-83502311D01*
X79667285Y-83497285D01*
X79672312Y-83490734D01*
X79672316Y-83490730D01*
X79703662Y-83449879D01*
X79761000Y-83408012D01*
X79831871Y-83403790D01*
X79893773Y-83438554D01*
X79926206Y-83497436D01*
X79927403Y-83502469D01*
X79928255Y-83510316D01*
X79931025Y-83517705D01*
X79931026Y-83517709D01*
X79959549Y-83593792D01*
X79979385Y-83646705D01*
X80066739Y-83763261D01*
X80183295Y-83850615D01*
X80319684Y-83901745D01*
X80381866Y-83908500D01*
X81372989Y-83908500D01*
X81441110Y-83928502D01*
X81487603Y-83982158D01*
X81497707Y-84052432D01*
X81477879Y-84100264D01*
X81479079Y-84100921D01*
X81474771Y-84108789D01*
X81469385Y-84115976D01*
X81418255Y-84252365D01*
X81411500Y-84314547D01*
X81411500Y-85103181D01*
X81391498Y-85171302D01*
X81337842Y-85217795D01*
X81285500Y-85229181D01*
X79951086Y-85229181D01*
X79939903Y-85228654D01*
X79932410Y-85226979D01*
X79924484Y-85227228D01*
X79924483Y-85227228D01*
X79864320Y-85229119D01*
X79860362Y-85229181D01*
X79832463Y-85229181D01*
X79828473Y-85229685D01*
X79816639Y-85230617D01*
X79772430Y-85232007D01*
X79764816Y-85234219D01*
X79764811Y-85234220D01*
X79752978Y-85237658D01*
X79733615Y-85241669D01*
X79713522Y-85244207D01*
X79706155Y-85247124D01*
X79706150Y-85247125D01*
X79672411Y-85260483D01*
X79661184Y-85264327D01*
X79618726Y-85276663D01*
X79611900Y-85280700D01*
X79601291Y-85286974D01*
X79583543Y-85295669D01*
X79564702Y-85303129D01*
X79558286Y-85307791D01*
X79558285Y-85307791D01*
X79528932Y-85329117D01*
X79519012Y-85335633D01*
X79487784Y-85354101D01*
X79487781Y-85354103D01*
X79480957Y-85358139D01*
X79466636Y-85372460D01*
X79451603Y-85385300D01*
X79435212Y-85397209D01*
X79419058Y-85416736D01*
X79407021Y-85431286D01*
X79399031Y-85440065D01*
X76664500Y-88174595D01*
X76602188Y-88208621D01*
X76575405Y-88211500D01*
X74488884Y-88211500D01*
X74420763Y-88191498D01*
X74374270Y-88137842D01*
X74364174Y-88096793D01*
X74363500Y-88096866D01*
X74362685Y-88089366D01*
X74356745Y-88034684D01*
X74305615Y-87898295D01*
X74218261Y-87781739D01*
X74101705Y-87694385D01*
X73965316Y-87643255D01*
X73903134Y-87636500D01*
X69606866Y-87636500D01*
X69544684Y-87643255D01*
X69408295Y-87694385D01*
X69291739Y-87781739D01*
X69204385Y-87898295D01*
X69153255Y-88034684D01*
X69146500Y-88096866D01*
X69146500Y-89593134D01*
X69153255Y-89655316D01*
X69204385Y-89791705D01*
X69291739Y-89908261D01*
X69408295Y-89995615D01*
X69544684Y-90046745D01*
X69606866Y-90053500D01*
X73903134Y-90053500D01*
X73965316Y-90046745D01*
X74101705Y-89995615D01*
X74218261Y-89908261D01*
X74305615Y-89791705D01*
X74356745Y-89655316D01*
X74363500Y-89593134D01*
X74364639Y-89593258D01*
X74386711Y-89530766D01*
X74442794Y-89487232D01*
X74488884Y-89478500D01*
X76601955Y-89478500D01*
X76670076Y-89498502D01*
X76716569Y-89552158D01*
X76726673Y-89622432D01*
X76711074Y-89667499D01*
X76635473Y-89798444D01*
X76576458Y-89980072D01*
X76575768Y-89986633D01*
X76575768Y-89986635D01*
X76569742Y-90043971D01*
X76556496Y-90170000D01*
X76576458Y-90359928D01*
X76635473Y-90541556D01*
X76730960Y-90706944D01*
X76858747Y-90848866D01*
X77013248Y-90961118D01*
X77019276Y-90963802D01*
X77019278Y-90963803D01*
X77181681Y-91036109D01*
X77187712Y-91038794D01*
X77281113Y-91058647D01*
X77368056Y-91077128D01*
X77368061Y-91077128D01*
X77374513Y-91078500D01*
X77430406Y-91078500D01*
X77498527Y-91098502D01*
X77519501Y-91115405D01*
X84586343Y-98182247D01*
X84593887Y-98190537D01*
X84598000Y-98197018D01*
X84603777Y-98202443D01*
X84610386Y-98208649D01*
X84646352Y-98269862D01*
X84643515Y-98340802D01*
X84602775Y-98398946D01*
X84537067Y-98425835D01*
X84524134Y-98426500D01*
X83499595Y-98426500D01*
X83431474Y-98406498D01*
X83410500Y-98389595D01*
X81592122Y-96571217D01*
X81558096Y-96508905D01*
X81555907Y-96495292D01*
X81539232Y-96336635D01*
X81539232Y-96336633D01*
X81538542Y-96330072D01*
X81479527Y-96148444D01*
X81384040Y-95983056D01*
X81317029Y-95908632D01*
X81260675Y-95846045D01*
X81260674Y-95846044D01*
X81256253Y-95841134D01*
X81101752Y-95728882D01*
X81095724Y-95726198D01*
X81095722Y-95726197D01*
X80933319Y-95653891D01*
X80933318Y-95653891D01*
X80927288Y-95651206D01*
X80833888Y-95631353D01*
X80746944Y-95612872D01*
X80746939Y-95612872D01*
X80740487Y-95611500D01*
X80549513Y-95611500D01*
X80543061Y-95612872D01*
X80543056Y-95612872D01*
X80456112Y-95631353D01*
X80362712Y-95651206D01*
X80356682Y-95653891D01*
X80356681Y-95653891D01*
X80194278Y-95726197D01*
X80194276Y-95726198D01*
X80188248Y-95728882D01*
X80033747Y-95841134D01*
X80029326Y-95846044D01*
X80029325Y-95846045D01*
X79972972Y-95908632D01*
X79905960Y-95983056D01*
X79810473Y-96148444D01*
X79751458Y-96330072D01*
X79731496Y-96520000D01*
X79732186Y-96526565D01*
X79750268Y-96698602D01*
X79751458Y-96709928D01*
X79810473Y-96891556D01*
X79905960Y-97056944D01*
X79910378Y-97061851D01*
X79910379Y-97061852D01*
X80029325Y-97193955D01*
X80033747Y-97198866D01*
X80132843Y-97270864D01*
X80178187Y-97303808D01*
X80188248Y-97311118D01*
X80194276Y-97313802D01*
X80194278Y-97313803D01*
X80356681Y-97386109D01*
X80362712Y-97388794D01*
X80456112Y-97408647D01*
X80543056Y-97427128D01*
X80543061Y-97427128D01*
X80549513Y-97428500D01*
X80605406Y-97428500D01*
X80673527Y-97448502D01*
X80694501Y-97465405D01*
X82681343Y-99452247D01*
X82688887Y-99460537D01*
X82693000Y-99467018D01*
X82742397Y-99513404D01*
X82742667Y-99513658D01*
X82745509Y-99516413D01*
X82765230Y-99536134D01*
X82768425Y-99538612D01*
X82777447Y-99546318D01*
X82809679Y-99576586D01*
X82816628Y-99580406D01*
X82827432Y-99586346D01*
X82843956Y-99597199D01*
X82859959Y-99609613D01*
X82900543Y-99627176D01*
X82911173Y-99632383D01*
X82949940Y-99653695D01*
X82957617Y-99655666D01*
X82957622Y-99655668D01*
X82969558Y-99658732D01*
X82988266Y-99665137D01*
X83006855Y-99673181D01*
X83014680Y-99674420D01*
X83014682Y-99674421D01*
X83050519Y-99680097D01*
X83062140Y-99682504D01*
X83097289Y-99691528D01*
X83104970Y-99693500D01*
X83125231Y-99693500D01*
X83144940Y-99695051D01*
X83164943Y-99698219D01*
X83172835Y-99697473D01*
X83178062Y-99696979D01*
X83208954Y-99694059D01*
X83220811Y-99693500D01*
X89461800Y-99693500D01*
X89529921Y-99713502D01*
X89549147Y-99729843D01*
X89549420Y-99729540D01*
X89554332Y-99733963D01*
X89558747Y-99738866D01*
X89564086Y-99742745D01*
X89635212Y-99794421D01*
X89713248Y-99851118D01*
X89719276Y-99853802D01*
X89719278Y-99853803D01*
X89779041Y-99880411D01*
X89887712Y-99928794D01*
X89981112Y-99948647D01*
X90068056Y-99967128D01*
X90068061Y-99967128D01*
X90074513Y-99968500D01*
X90130406Y-99968500D01*
X90198527Y-99988502D01*
X90219501Y-100005405D01*
X92571343Y-102357247D01*
X92578887Y-102365537D01*
X92583000Y-102372018D01*
X92588777Y-102377443D01*
X92632667Y-102418658D01*
X92635509Y-102421413D01*
X92655230Y-102441134D01*
X92658425Y-102443612D01*
X92667447Y-102451318D01*
X92699679Y-102481586D01*
X92706628Y-102485406D01*
X92717432Y-102491346D01*
X92733956Y-102502199D01*
X92749959Y-102514613D01*
X92790543Y-102532176D01*
X92801173Y-102537383D01*
X92839940Y-102558695D01*
X92847617Y-102560666D01*
X92847622Y-102560668D01*
X92859558Y-102563732D01*
X92878266Y-102570137D01*
X92896855Y-102578181D01*
X92904680Y-102579420D01*
X92904682Y-102579421D01*
X92940519Y-102585097D01*
X92952140Y-102587504D01*
X92987289Y-102596528D01*
X92994970Y-102598500D01*
X93015231Y-102598500D01*
X93034940Y-102600051D01*
X93054943Y-102603219D01*
X93062835Y-102602473D01*
X93068062Y-102601979D01*
X93098954Y-102599059D01*
X93110811Y-102598500D01*
X94648219Y-102598500D01*
X94716340Y-102618502D01*
X94755363Y-102658197D01*
X94836522Y-102789348D01*
X94961697Y-102914305D01*
X94967927Y-102918145D01*
X94967928Y-102918146D01*
X95105090Y-103002694D01*
X95112262Y-103007115D01*
X95132251Y-103013745D01*
X95273611Y-103060632D01*
X95273613Y-103060632D01*
X95280139Y-103062797D01*
X95286975Y-103063497D01*
X95286978Y-103063498D01*
X95330031Y-103067909D01*
X95384600Y-103073500D01*
X96385400Y-103073500D01*
X96388646Y-103073163D01*
X96388650Y-103073163D01*
X96484308Y-103063238D01*
X96484312Y-103063237D01*
X96491166Y-103062526D01*
X96497702Y-103060345D01*
X96497704Y-103060345D01*
X96642595Y-103012005D01*
X96658946Y-103006550D01*
X96809348Y-102913478D01*
X96934305Y-102788303D01*
X96956471Y-102752344D01*
X97010881Y-102664075D01*
X97063654Y-102616581D01*
X97133725Y-102605158D01*
X97181141Y-102621072D01*
X97403069Y-102749202D01*
X97418504Y-102752947D01*
X97420244Y-102752344D01*
X97425531Y-102746528D01*
X97886700Y-101947760D01*
X97890445Y-101932325D01*
X97889842Y-101930585D01*
X97884026Y-101925298D01*
X97236814Y-101551629D01*
X97198404Y-101542311D01*
X97172802Y-101543530D01*
X97111317Y-101508031D01*
X97084843Y-101458061D01*
X97082526Y-101458834D01*
X97028868Y-101298002D01*
X97026550Y-101291054D01*
X96933478Y-101140652D01*
X96846891Y-101054216D01*
X96812812Y-100991934D01*
X96817815Y-100921114D01*
X96846736Y-100876025D01*
X96929134Y-100793483D01*
X96934305Y-100788303D01*
X97002482Y-100677700D01*
X97023275Y-100643968D01*
X97023276Y-100643966D01*
X97027115Y-100637738D01*
X97082797Y-100469861D01*
X97093500Y-100365400D01*
X97093500Y-99564600D01*
X97082526Y-99458834D01*
X97078251Y-99446020D01*
X97075663Y-99375074D01*
X97082131Y-99356114D01*
X97087178Y-99344452D01*
X97092391Y-99333812D01*
X97109875Y-99302009D01*
X97109876Y-99302007D01*
X97113695Y-99295060D01*
X97118733Y-99275437D01*
X97125137Y-99256734D01*
X97130033Y-99245420D01*
X97130033Y-99245419D01*
X97133181Y-99238145D01*
X97134420Y-99230322D01*
X97134423Y-99230312D01*
X97140099Y-99194476D01*
X97142505Y-99182855D01*
X97152695Y-99143166D01*
X97189009Y-99082160D01*
X97252541Y-99050470D01*
X97274737Y-99048500D01*
X97318134Y-99048500D01*
X97380316Y-99041745D01*
X97516705Y-98990615D01*
X97633261Y-98903261D01*
X97720615Y-98786705D01*
X97771745Y-98650316D01*
X97778500Y-98588134D01*
X97778500Y-98287191D01*
X97798502Y-98219070D01*
X97852158Y-98172577D01*
X97904500Y-98161191D01*
X97973542Y-98161191D01*
X97984725Y-98161718D01*
X97992218Y-98163393D01*
X98000144Y-98163144D01*
X98000145Y-98163144D01*
X98060295Y-98161253D01*
X98064254Y-98161191D01*
X98092165Y-98161191D01*
X98096100Y-98160694D01*
X98096165Y-98160686D01*
X98108002Y-98159753D01*
X98140260Y-98158739D01*
X98144279Y-98158613D01*
X98152198Y-98158364D01*
X98171652Y-98152712D01*
X98191009Y-98148704D01*
X98203239Y-98147159D01*
X98203240Y-98147159D01*
X98211106Y-98146165D01*
X98218477Y-98143246D01*
X98218479Y-98143246D01*
X98252221Y-98129887D01*
X98263451Y-98126042D01*
X98298292Y-98115920D01*
X98298293Y-98115920D01*
X98305902Y-98113709D01*
X98312721Y-98109676D01*
X98312726Y-98109674D01*
X98323337Y-98103398D01*
X98341085Y-98094703D01*
X98359926Y-98087243D01*
X98395696Y-98061255D01*
X98405616Y-98054739D01*
X98436844Y-98036271D01*
X98436847Y-98036269D01*
X98443671Y-98032233D01*
X98457992Y-98017912D01*
X98473026Y-98005071D01*
X98483003Y-97997822D01*
X98489416Y-97993163D01*
X98517607Y-97959086D01*
X98525597Y-97950307D01*
X98650499Y-97825405D01*
X98712811Y-97791379D01*
X98739594Y-97788500D01*
X99170300Y-97788500D01*
X99238421Y-97808502D01*
X99284914Y-97862158D01*
X99295018Y-97932432D01*
X99288375Y-97951626D01*
X99288453Y-97951645D01*
X99280437Y-97984685D01*
X99281040Y-97986425D01*
X99286856Y-97991712D01*
X100280579Y-98565439D01*
X100329572Y-98616821D01*
X100343008Y-98686535D01*
X100326698Y-98737558D01*
X100198698Y-98959260D01*
X100147315Y-99008253D01*
X100077602Y-99021689D01*
X100026579Y-99005379D01*
X99036814Y-98433937D01*
X99021379Y-98430192D01*
X99019639Y-98430795D01*
X99014352Y-98436611D01*
X98775788Y-98849816D01*
X98772702Y-98855900D01*
X98752053Y-98902713D01*
X98747567Y-98917737D01*
X98726447Y-99044625D01*
X98726044Y-99062397D01*
X98741258Y-99189047D01*
X98745858Y-99206212D01*
X98759170Y-99237347D01*
X98767559Y-99307846D01*
X98736501Y-99371689D01*
X98683503Y-99406300D01*
X98635279Y-99422529D01*
X98478186Y-99516920D01*
X98473226Y-99521611D01*
X98473224Y-99521612D01*
X98353542Y-99634791D01*
X98345028Y-99642842D01*
X98242015Y-99794421D01*
X98220890Y-99847237D01*
X98176489Y-99958247D01*
X98176488Y-99958252D01*
X98173955Y-99964584D01*
X98172841Y-99971312D01*
X98172840Y-99971316D01*
X98145137Y-100138655D01*
X98144022Y-100145392D01*
X98153519Y-100326601D01*
X98153519Y-100326602D01*
X98153614Y-100328410D01*
X98153290Y-100328427D01*
X98144906Y-100395136D01*
X98099374Y-100449610D01*
X98044408Y-100469941D01*
X98014143Y-100473577D01*
X97996980Y-100478176D01*
X97879692Y-100528324D01*
X97864500Y-100537562D01*
X97765176Y-100619291D01*
X97754402Y-100630695D01*
X97724189Y-100671976D01*
X97720458Y-100677700D01*
X97484182Y-101086942D01*
X97480438Y-101102377D01*
X97481040Y-101104117D01*
X97486856Y-101109404D01*
X98149758Y-101492131D01*
X98480579Y-101683131D01*
X98529572Y-101734513D01*
X98543008Y-101804227D01*
X98526698Y-101855250D01*
X98344301Y-102171171D01*
X98344299Y-102171175D01*
X98335698Y-102186071D01*
X97867756Y-102996570D01*
X97864011Y-103012005D01*
X97864614Y-103013745D01*
X97870430Y-103019032D01*
X98132079Y-103170095D01*
X98138163Y-103173182D01*
X98184975Y-103193829D01*
X98200003Y-103198317D01*
X98239456Y-103204883D01*
X98303368Y-103235797D01*
X98316063Y-103249111D01*
X98347392Y-103287185D01*
X98353766Y-103291850D01*
X98353768Y-103291852D01*
X98395118Y-103322116D01*
X98395124Y-103322120D01*
X98397865Y-103324126D01*
X98400808Y-103325825D01*
X98400817Y-103325831D01*
X98865847Y-103594316D01*
X98914840Y-103645699D01*
X98928276Y-103715412D01*
X98901114Y-103782299D01*
X98753072Y-103966755D01*
X98749557Y-103970945D01*
X98192453Y-104606201D01*
X98188739Y-104610254D01*
X97604473Y-105220586D01*
X97600586Y-105224473D01*
X96990254Y-105808739D01*
X96986201Y-105812453D01*
X96350945Y-106369557D01*
X96346733Y-106373090D01*
X95687827Y-106901918D01*
X95683466Y-106905265D01*
X95542425Y-107008681D01*
X95002065Y-107404889D01*
X94997596Y-107408018D01*
X94538958Y-107714470D01*
X94295060Y-107877437D01*
X94290436Y-107880383D01*
X93568077Y-108318722D01*
X93563372Y-108321439D01*
X93192962Y-108524653D01*
X92822569Y-108727857D01*
X92817692Y-108730395D01*
X92059927Y-109104083D01*
X92054945Y-109106406D01*
X91825267Y-109207467D01*
X91281585Y-109446693D01*
X91276526Y-109448789D01*
X90489028Y-109755030D01*
X90483892Y-109756900D01*
X89828671Y-109979317D01*
X89683808Y-110028491D01*
X89678565Y-110030144D01*
X88867420Y-110266571D01*
X88862115Y-110267993D01*
X88041388Y-110468824D01*
X88036050Y-110470008D01*
X87628286Y-110551117D01*
X87207371Y-110634841D01*
X87201958Y-110635796D01*
X86366854Y-110764332D01*
X86361405Y-110765049D01*
X85521523Y-110857030D01*
X85516055Y-110857509D01*
X84672950Y-110912768D01*
X84667469Y-110913008D01*
X83915060Y-110929426D01*
X83822749Y-110931440D01*
X83817251Y-110931440D01*
X83724940Y-110929426D01*
X82972531Y-110913008D01*
X82967050Y-110912768D01*
X82123945Y-110857509D01*
X82118477Y-110857030D01*
X81278595Y-110765049D01*
X81273146Y-110764332D01*
X80438042Y-110635796D01*
X80432629Y-110634841D01*
X80011714Y-110551117D01*
X79603950Y-110470008D01*
X79598612Y-110468824D01*
X78777885Y-110267993D01*
X78772580Y-110266571D01*
X77961435Y-110030144D01*
X77956192Y-110028491D01*
X77811329Y-109979317D01*
X77156108Y-109756900D01*
X77150972Y-109755030D01*
X76363474Y-109448789D01*
X76358415Y-109446693D01*
X75814733Y-109207467D01*
X75585055Y-109106406D01*
X75580073Y-109104083D01*
X74978357Y-108807350D01*
X81912001Y-108807350D01*
X81912371Y-108814171D01*
X81917895Y-108865033D01*
X81921521Y-108880285D01*
X81966676Y-109000735D01*
X81975214Y-109016330D01*
X82051715Y-109118405D01*
X82064276Y-109130966D01*
X82166351Y-109207467D01*
X82181946Y-109216005D01*
X82302394Y-109261159D01*
X82317649Y-109264786D01*
X82368514Y-109270312D01*
X82375328Y-109270681D01*
X83447885Y-109270681D01*
X83463124Y-109266206D01*
X83464329Y-109264816D01*
X83466000Y-109257133D01*
X83466000Y-109252565D01*
X83974000Y-109252565D01*
X83978475Y-109267804D01*
X83979865Y-109269009D01*
X83987548Y-109270680D01*
X85064669Y-109270680D01*
X85071490Y-109270310D01*
X85122352Y-109264786D01*
X85137604Y-109261160D01*
X85258054Y-109216005D01*
X85273649Y-109207467D01*
X85375724Y-109130966D01*
X85388285Y-109118405D01*
X85464786Y-109016330D01*
X85473324Y-109000735D01*
X85518478Y-108880287D01*
X85522105Y-108865032D01*
X85527631Y-108814167D01*
X85528000Y-108807353D01*
X85528000Y-107534796D01*
X85523525Y-107519557D01*
X85522135Y-107518352D01*
X85514452Y-107516681D01*
X83992115Y-107516681D01*
X83976876Y-107521156D01*
X83975671Y-107522546D01*
X83974000Y-107530229D01*
X83974000Y-109252565D01*
X83466000Y-109252565D01*
X83466000Y-107534796D01*
X83461525Y-107519557D01*
X83460135Y-107518352D01*
X83452452Y-107516681D01*
X81930116Y-107516681D01*
X81914877Y-107521156D01*
X81913672Y-107522546D01*
X81912001Y-107530229D01*
X81912001Y-108807350D01*
X74978357Y-108807350D01*
X74822308Y-108730395D01*
X74817431Y-108727857D01*
X74447038Y-108524653D01*
X74076628Y-108321439D01*
X74071923Y-108318722D01*
X73349564Y-107880383D01*
X73344940Y-107877437D01*
X73101042Y-107714470D01*
X72642404Y-107408018D01*
X72637935Y-107404889D01*
X72097575Y-107008681D01*
X72072869Y-106990566D01*
X81912000Y-106990566D01*
X81916475Y-107005805D01*
X81917865Y-107007010D01*
X81925548Y-107008681D01*
X83447885Y-107008681D01*
X83463124Y-107004206D01*
X83464329Y-107002816D01*
X83466000Y-106995133D01*
X83466000Y-106990566D01*
X83974000Y-106990566D01*
X83978475Y-107005805D01*
X83979865Y-107007010D01*
X83987548Y-107008681D01*
X85509884Y-107008681D01*
X85525123Y-107004206D01*
X85526328Y-107002816D01*
X85527999Y-106995133D01*
X85527999Y-105718012D01*
X85527629Y-105711191D01*
X85522105Y-105660329D01*
X85518479Y-105645077D01*
X85473324Y-105524627D01*
X85464786Y-105509032D01*
X85388285Y-105406957D01*
X85375724Y-105394396D01*
X85273649Y-105317895D01*
X85258054Y-105309357D01*
X85137606Y-105264203D01*
X85122351Y-105260576D01*
X85071486Y-105255050D01*
X85064672Y-105254681D01*
X83992115Y-105254681D01*
X83976876Y-105259156D01*
X83975671Y-105260546D01*
X83974000Y-105268229D01*
X83974000Y-106990566D01*
X83466000Y-106990566D01*
X83466000Y-105272797D01*
X83461525Y-105257558D01*
X83460135Y-105256353D01*
X83452452Y-105254682D01*
X82375331Y-105254682D01*
X82368510Y-105255052D01*
X82317648Y-105260576D01*
X82302396Y-105264202D01*
X82181946Y-105309357D01*
X82166351Y-105317895D01*
X82064276Y-105394396D01*
X82051715Y-105406957D01*
X81975214Y-105509032D01*
X81966676Y-105524627D01*
X81921522Y-105645075D01*
X81917895Y-105660330D01*
X81912369Y-105711195D01*
X81912000Y-105718009D01*
X81912000Y-106990566D01*
X72072869Y-106990566D01*
X71956534Y-106905265D01*
X71952173Y-106901918D01*
X71293267Y-106373090D01*
X71289055Y-106369557D01*
X70653799Y-105812453D01*
X70649746Y-105808739D01*
X70039414Y-105224473D01*
X70035527Y-105220586D01*
X69451261Y-104610254D01*
X69447547Y-104606201D01*
X68890443Y-103970945D01*
X68886910Y-103966733D01*
X68358082Y-103307827D01*
X68354735Y-103303466D01*
X68129709Y-102996570D01*
X67855111Y-102622065D01*
X67851982Y-102617596D01*
X67382563Y-101915060D01*
X67379609Y-101910424D01*
X67315167Y-101804227D01*
X66941278Y-101188077D01*
X66938561Y-101183372D01*
X66629096Y-100619291D01*
X66532143Y-100442569D01*
X66529605Y-100437692D01*
X66155917Y-99679927D01*
X66153594Y-99674945D01*
X65872139Y-99035292D01*
X65813307Y-98901585D01*
X65811207Y-98896516D01*
X65803476Y-98876635D01*
X65504970Y-98109028D01*
X65503095Y-98103877D01*
X65502933Y-98103398D01*
X65273370Y-97427128D01*
X65231509Y-97303808D01*
X65229856Y-97298565D01*
X65049230Y-96678865D01*
X64993428Y-96487415D01*
X64992006Y-96482111D01*
X64910358Y-96148444D01*
X64791176Y-95661388D01*
X64789989Y-95656035D01*
X64789029Y-95651206D01*
X64652334Y-94963991D01*
X64625159Y-94827371D01*
X64624204Y-94821958D01*
X64495668Y-93986854D01*
X64494951Y-93981403D01*
X64420450Y-93301134D01*
X64402970Y-93141523D01*
X64402491Y-93136051D01*
X64398260Y-93071500D01*
X64347232Y-92292950D01*
X64346992Y-92287463D01*
X64344741Y-92184276D01*
X64328560Y-91442749D01*
X64328560Y-91437251D01*
X64337225Y-91040166D01*
X64346992Y-90592531D01*
X64347232Y-90587045D01*
X64350214Y-90541556D01*
X64402491Y-89743945D01*
X64402970Y-89738473D01*
X64440763Y-89393391D01*
X64494951Y-88898595D01*
X64495668Y-88893146D01*
X64624204Y-88058042D01*
X64625159Y-88052629D01*
X64789989Y-87223965D01*
X64791179Y-87218597D01*
X64844655Y-87000062D01*
X64992007Y-86397885D01*
X64993429Y-86392580D01*
X65007039Y-86345888D01*
X65139004Y-85893134D01*
X69146500Y-85893134D01*
X69153255Y-85955316D01*
X69204385Y-86091705D01*
X69291739Y-86208261D01*
X69408295Y-86295615D01*
X69544684Y-86346745D01*
X69606866Y-86353500D01*
X73903134Y-86353500D01*
X73965316Y-86346745D01*
X74101705Y-86295615D01*
X74218261Y-86208261D01*
X74305615Y-86091705D01*
X74356745Y-85955316D01*
X74363500Y-85893134D01*
X74363500Y-84396866D01*
X74356745Y-84334684D01*
X74305615Y-84198295D01*
X74218261Y-84081739D01*
X74101705Y-83994385D01*
X73965316Y-83943255D01*
X73903134Y-83936500D01*
X73473594Y-83936500D01*
X73405473Y-83916498D01*
X73358980Y-83862842D01*
X73348876Y-83792568D01*
X73378370Y-83727988D01*
X73384499Y-83721405D01*
X73570499Y-83535405D01*
X73632811Y-83501379D01*
X73659594Y-83498500D01*
X75231526Y-83498500D01*
X75299647Y-83518502D01*
X75308229Y-83524537D01*
X75390870Y-83587949D01*
X75390874Y-83587951D01*
X75397425Y-83592978D01*
X75542652Y-83653133D01*
X75608180Y-83661760D01*
X75655288Y-83667962D01*
X75655289Y-83667962D01*
X75659375Y-83668500D01*
X76214932Y-83668500D01*
X76770624Y-83668499D01*
X76774709Y-83667961D01*
X76774713Y-83667961D01*
X76879161Y-83654211D01*
X76879163Y-83654211D01*
X76887348Y-83653133D01*
X77032576Y-83592978D01*
X77112439Y-83531697D01*
X77150732Y-83502314D01*
X77150735Y-83502311D01*
X77157285Y-83497285D01*
X77162314Y-83490732D01*
X77224018Y-83410316D01*
X77252978Y-83372575D01*
X77313133Y-83227348D01*
X77328500Y-83110625D01*
X77328499Y-82619376D01*
X77313133Y-82502652D01*
X77286173Y-82437564D01*
X77278584Y-82366975D01*
X77286173Y-82341129D01*
X77309486Y-82284847D01*
X77313724Y-82269030D01*
X77324529Y-82186960D01*
X77322317Y-82172779D01*
X77309159Y-82169000D01*
X77117021Y-82169000D01*
X77048900Y-82148998D01*
X77040320Y-82142965D01*
X77040316Y-82142962D01*
X77032575Y-82137022D01*
X76887348Y-82076867D01*
X76814421Y-82067266D01*
X76774712Y-82062038D01*
X76774711Y-82062038D01*
X76770625Y-82061500D01*
X76215068Y-82061500D01*
X75659376Y-82061501D01*
X75655291Y-82062039D01*
X75655287Y-82062039D01*
X75550839Y-82075789D01*
X75550837Y-82075789D01*
X75542652Y-82076867D01*
X75470038Y-82106945D01*
X75405052Y-82133862D01*
X75405050Y-82133863D01*
X75397424Y-82137022D01*
X75390874Y-82142048D01*
X75389683Y-82142962D01*
X75388496Y-82143421D01*
X75383719Y-82146179D01*
X75383289Y-82145434D01*
X75323463Y-82168563D01*
X75312978Y-82169000D01*
X75121223Y-82169000D01*
X75105984Y-82173475D01*
X75093386Y-82188013D01*
X75033660Y-82226396D01*
X74998162Y-82231500D01*
X73423768Y-82231500D01*
X73412585Y-82230973D01*
X73405092Y-82229298D01*
X73397166Y-82229547D01*
X73397165Y-82229547D01*
X73337002Y-82231438D01*
X73333044Y-82231500D01*
X73305144Y-82231500D01*
X73301154Y-82232004D01*
X73289320Y-82232936D01*
X73245111Y-82234326D01*
X73237495Y-82236539D01*
X73237493Y-82236539D01*
X73225652Y-82239979D01*
X73206293Y-82243988D01*
X73204983Y-82244154D01*
X73186203Y-82246526D01*
X73178837Y-82249442D01*
X73178831Y-82249444D01*
X73145098Y-82262800D01*
X73133868Y-82266645D01*
X73099017Y-82276770D01*
X73091407Y-82278981D01*
X73084584Y-82283016D01*
X73073966Y-82289295D01*
X73056213Y-82297992D01*
X73048568Y-82301019D01*
X73037383Y-82305448D01*
X73012875Y-82323254D01*
X73001612Y-82331437D01*
X72991695Y-82337951D01*
X72953638Y-82360458D01*
X72939317Y-82374779D01*
X72924284Y-82387619D01*
X72907893Y-82399528D01*
X72902842Y-82405634D01*
X72879702Y-82433605D01*
X72871712Y-82442384D01*
X71414500Y-83899595D01*
X71352188Y-83933621D01*
X71325405Y-83936500D01*
X69606866Y-83936500D01*
X69544684Y-83943255D01*
X69408295Y-83994385D01*
X69291739Y-84081739D01*
X69204385Y-84198295D01*
X69153255Y-84334684D01*
X69146500Y-84396866D01*
X69146500Y-85893134D01*
X65139004Y-85893134D01*
X65160402Y-85819722D01*
X65229856Y-85581435D01*
X65231509Y-85576192D01*
X65300657Y-85372488D01*
X65503100Y-84776108D01*
X65504975Y-84770957D01*
X65519342Y-84734014D01*
X65811211Y-83983474D01*
X65813311Y-83978405D01*
X65822349Y-83957866D01*
X66009868Y-83531697D01*
X66153594Y-83205055D01*
X66155917Y-83200073D01*
X66529605Y-82442308D01*
X66532143Y-82437431D01*
X66820892Y-81911110D01*
X66938561Y-81696628D01*
X66941278Y-81691923D01*
X67379617Y-80969564D01*
X67382563Y-80964940D01*
X67619165Y-80610839D01*
X67851982Y-80262404D01*
X67855111Y-80257935D01*
X68283323Y-79673928D01*
X68354735Y-79576534D01*
X68358082Y-79572173D01*
X68886910Y-78913267D01*
X68890443Y-78909055D01*
X69277338Y-78467885D01*
X75337000Y-78467885D01*
X75341475Y-78483124D01*
X75342865Y-78484329D01*
X75350548Y-78486000D01*
X76160385Y-78486000D01*
X76175624Y-78481525D01*
X76176829Y-78480135D01*
X76178500Y-78472452D01*
X76178500Y-77525116D01*
X76174025Y-77509877D01*
X76172635Y-77508672D01*
X76164952Y-77507001D01*
X76047905Y-77507001D01*
X76041386Y-77507338D01*
X75945794Y-77517257D01*
X75932400Y-77520149D01*
X75778216Y-77571588D01*
X75765038Y-77577761D01*
X75627193Y-77663063D01*
X75615792Y-77672099D01*
X75501261Y-77786829D01*
X75492249Y-77798240D01*
X75407184Y-77936243D01*
X75401037Y-77949424D01*
X75349862Y-78103710D01*
X75346995Y-78117086D01*
X75337328Y-78211438D01*
X75337000Y-78217855D01*
X75337000Y-78467885D01*
X69277338Y-78467885D01*
X69447547Y-78273799D01*
X69451261Y-78269746D01*
X70035527Y-77659414D01*
X70039414Y-77655527D01*
X70649746Y-77071261D01*
X70653799Y-77067547D01*
X71289055Y-76510443D01*
X71293267Y-76506910D01*
X71952173Y-75978082D01*
X71956534Y-75974735D01*
X72296131Y-75725732D01*
X72637935Y-75475111D01*
X72642404Y-75471982D01*
X73344940Y-75002563D01*
X73349564Y-74999617D01*
X74071923Y-74561278D01*
X74076628Y-74558561D01*
X74447039Y-74355347D01*
X74817431Y-74152143D01*
X74822308Y-74149605D01*
X75580073Y-73775917D01*
X75585055Y-73773594D01*
X76042625Y-73572258D01*
X76358415Y-73433307D01*
X76363474Y-73431211D01*
X77150972Y-73124970D01*
X77156108Y-73123100D01*
X77956192Y-72851509D01*
X77961435Y-72849856D01*
X78772580Y-72613429D01*
X78777889Y-72612006D01*
X79598612Y-72411176D01*
X79603950Y-72409992D01*
X80011714Y-72328883D01*
X80432629Y-72245159D01*
X80438042Y-72244204D01*
X81273146Y-72115668D01*
X81278597Y-72114951D01*
X82118477Y-72022970D01*
X82123945Y-72022491D01*
X82967050Y-71967232D01*
X82972531Y-71966992D01*
X83724940Y-71950574D01*
X83817251Y-71948560D01*
X83822749Y-71948560D01*
X83915060Y-71950574D01*
G37*
G04 #@! TD.AperFunction*
G04 #@! TA.AperFunction,Conductor*
G36*
X102936355Y-94699395D02*
G01*
X102991825Y-94743707D01*
X103014532Y-94810974D01*
X103012212Y-94840589D01*
X103000255Y-94900702D01*
X102850972Y-95651206D01*
X102850011Y-95656035D01*
X102848824Y-95661388D01*
X102729642Y-96148444D01*
X102647994Y-96482111D01*
X102646572Y-96487415D01*
X102590770Y-96678865D01*
X102410144Y-97298565D01*
X102408491Y-97303808D01*
X102366630Y-97427128D01*
X102137068Y-98103398D01*
X102136905Y-98103877D01*
X102135030Y-98109029D01*
X102128414Y-98126042D01*
X102125261Y-98134151D01*
X102081929Y-98190391D01*
X102015071Y-98214276D01*
X101945913Y-98198223D01*
X101896413Y-98147328D01*
X101886832Y-98123640D01*
X101886694Y-98123164D01*
X101886694Y-98123163D01*
X101884482Y-98115551D01*
X101874171Y-98098116D01*
X101865476Y-98080368D01*
X101858016Y-98061527D01*
X101832028Y-98025757D01*
X101825512Y-98015837D01*
X101807044Y-97984609D01*
X101807042Y-97984606D01*
X101803006Y-97977782D01*
X101788685Y-97963461D01*
X101775844Y-97948427D01*
X101768595Y-97938450D01*
X101763936Y-97932037D01*
X101729859Y-97903846D01*
X101721080Y-97895856D01*
X100587972Y-96762747D01*
X100580432Y-96754461D01*
X100576320Y-96747982D01*
X100526668Y-96701356D01*
X100523827Y-96698602D01*
X100504090Y-96678865D01*
X100500893Y-96676385D01*
X100491871Y-96668680D01*
X100487718Y-96664780D01*
X100459641Y-96638414D01*
X100452695Y-96634595D01*
X100452692Y-96634593D01*
X100441886Y-96628652D01*
X100425367Y-96617801D01*
X100424903Y-96617441D01*
X100409361Y-96605386D01*
X100402092Y-96602241D01*
X100402088Y-96602238D01*
X100368783Y-96587826D01*
X100358133Y-96582609D01*
X100319380Y-96561305D01*
X100299757Y-96556267D01*
X100281054Y-96549863D01*
X100269740Y-96544967D01*
X100269739Y-96544967D01*
X100262465Y-96541819D01*
X100254642Y-96540580D01*
X100254632Y-96540577D01*
X100218796Y-96534901D01*
X100207176Y-96532495D01*
X100172031Y-96523472D01*
X100172030Y-96523472D01*
X100164350Y-96521500D01*
X100144096Y-96521500D01*
X100124385Y-96519949D01*
X100112206Y-96518020D01*
X100104377Y-96516780D01*
X100075106Y-96519547D01*
X100060359Y-96520941D01*
X100048501Y-96521500D01*
X98503768Y-96521500D01*
X98492585Y-96520973D01*
X98485092Y-96519298D01*
X98477166Y-96519547D01*
X98477165Y-96519547D01*
X98417002Y-96521438D01*
X98413044Y-96521500D01*
X98385144Y-96521500D01*
X98381154Y-96522004D01*
X98369320Y-96522936D01*
X98325111Y-96524326D01*
X98317495Y-96526539D01*
X98317493Y-96526539D01*
X98305652Y-96529979D01*
X98286293Y-96533988D01*
X98284983Y-96534154D01*
X98266203Y-96536526D01*
X98258837Y-96539442D01*
X98258831Y-96539444D01*
X98225098Y-96552800D01*
X98213868Y-96556645D01*
X98197828Y-96561305D01*
X98171407Y-96568981D01*
X98164584Y-96573016D01*
X98153966Y-96579295D01*
X98136213Y-96587992D01*
X98128568Y-96591019D01*
X98117383Y-96595448D01*
X98103705Y-96605386D01*
X98081612Y-96621437D01*
X98071695Y-96627951D01*
X98033638Y-96650458D01*
X98028033Y-96656062D01*
X98019315Y-96664780D01*
X98004282Y-96677620D01*
X97987893Y-96689528D01*
X97982841Y-96695635D01*
X97959713Y-96723592D01*
X97951723Y-96732372D01*
X97896285Y-96787810D01*
X97833973Y-96821836D01*
X97763158Y-96816771D01*
X97706364Y-96774280D01*
X97633261Y-96676739D01*
X97516705Y-96589385D01*
X97380316Y-96538255D01*
X97318134Y-96531500D01*
X95721866Y-96531500D01*
X95659684Y-96538255D01*
X95523295Y-96589385D01*
X95406739Y-96676739D01*
X95319385Y-96793295D01*
X95268255Y-96929684D01*
X95261500Y-96991866D01*
X95261500Y-97030500D01*
X95241498Y-97098621D01*
X95187842Y-97145114D01*
X95135500Y-97156500D01*
X85404595Y-97156500D01*
X85336474Y-97136498D01*
X85315500Y-97119595D01*
X84294500Y-96098595D01*
X84260474Y-96036283D01*
X84265539Y-95965468D01*
X84308086Y-95908632D01*
X84374606Y-95883821D01*
X84383595Y-95883500D01*
X95171233Y-95883500D01*
X95182416Y-95884027D01*
X95189909Y-95885702D01*
X95197835Y-95885453D01*
X95197836Y-95885453D01*
X95257986Y-95883562D01*
X95261945Y-95883500D01*
X95289856Y-95883500D01*
X95293791Y-95883003D01*
X95293856Y-95882995D01*
X95305693Y-95882062D01*
X95337951Y-95881048D01*
X95341970Y-95880922D01*
X95349889Y-95880673D01*
X95369343Y-95875021D01*
X95388700Y-95871013D01*
X95400930Y-95869468D01*
X95400931Y-95869468D01*
X95408797Y-95868474D01*
X95416168Y-95865555D01*
X95416170Y-95865555D01*
X95449912Y-95852196D01*
X95461142Y-95848351D01*
X95495983Y-95838229D01*
X95495984Y-95838229D01*
X95503593Y-95836018D01*
X95510412Y-95831985D01*
X95510417Y-95831983D01*
X95521028Y-95825707D01*
X95538776Y-95817012D01*
X95557617Y-95809552D01*
X95593387Y-95783564D01*
X95603307Y-95777048D01*
X95634535Y-95758580D01*
X95634538Y-95758578D01*
X95641362Y-95754542D01*
X95655683Y-95740221D01*
X95670717Y-95727380D01*
X95680694Y-95720131D01*
X95687107Y-95715472D01*
X95715298Y-95681395D01*
X95723288Y-95672616D01*
X96120499Y-95275405D01*
X96182811Y-95241379D01*
X96209594Y-95238500D01*
X97318134Y-95238500D01*
X97380316Y-95231745D01*
X97516705Y-95180615D01*
X97633261Y-95093261D01*
X97720615Y-94976705D01*
X97723766Y-94968300D01*
X97726125Y-94963991D01*
X97776384Y-94913845D01*
X97836645Y-94898500D01*
X102281233Y-94898500D01*
X102292416Y-94899027D01*
X102299909Y-94900702D01*
X102307835Y-94900453D01*
X102307836Y-94900453D01*
X102367986Y-94898562D01*
X102371945Y-94898500D01*
X102399856Y-94898500D01*
X102403791Y-94898003D01*
X102403856Y-94897995D01*
X102415693Y-94897062D01*
X102447951Y-94896048D01*
X102451970Y-94895922D01*
X102459889Y-94895673D01*
X102479343Y-94890021D01*
X102498700Y-94886013D01*
X102510930Y-94884468D01*
X102510931Y-94884468D01*
X102518797Y-94883474D01*
X102526168Y-94880555D01*
X102526170Y-94880555D01*
X102559912Y-94867196D01*
X102571142Y-94863351D01*
X102605983Y-94853229D01*
X102605984Y-94853229D01*
X102613593Y-94851018D01*
X102620412Y-94846985D01*
X102620417Y-94846983D01*
X102631028Y-94840707D01*
X102648776Y-94832012D01*
X102667617Y-94824552D01*
X102703387Y-94798564D01*
X102713307Y-94792048D01*
X102744535Y-94773580D01*
X102744538Y-94773578D01*
X102751362Y-94769542D01*
X102765683Y-94755221D01*
X102780717Y-94742380D01*
X102790694Y-94735131D01*
X102797107Y-94730472D01*
X102802158Y-94724366D01*
X102802382Y-94724156D01*
X102865733Y-94692106D01*
X102936355Y-94699395D01*
G37*
G04 #@! TD.AperFunction*
M02*
