%TF.GenerationSoftware,KiCad,Pcbnew,(6.0.11)*%
%TF.CreationDate,2023-03-16T11:00:07+01:00*%
%TF.ProjectId,Horloge,486f726c-6f67-4652-9e6b-696361645f70,rev?*%
%TF.SameCoordinates,Original*%
%TF.FileFunction,Drillmap*%
%TF.FilePolarity,Positive*%
%FSLAX45Y45*%
G04 Gerber Fmt 4.5, Leading zero omitted, Abs format (unit mm)*
G04 Created by KiCad (PCBNEW (6.0.11)) date 2023-03-16 11:00:07*
%MOMM*%
%LPD*%
G01*
G04 APERTURE LIST*
%ADD10C,0.150000*%
%ADD11C,0.200000*%
%ADD12C,0.066500*%
%ADD13C,0.067000*%
%ADD14C,0.068000*%
%ADD15C,0.070000*%
G04 APERTURE END LIST*
D10*
X10382000Y-9144000D02*
G75*
G03*
X10382000Y-9144000I-2000000J0D01*
G01*
D11*
D12*
X10100250Y-9110750D02*
X10166750Y-9177250D01*
X10166750Y-9110750D02*
X10100250Y-9177250D01*
D13*
X9932276Y-8268134D02*
G75*
G03*
X9932276Y-8268134I-33500J0D01*
G01*
X9932617Y-10019276D02*
G75*
G03*
X9932617Y-10019276I-33500J0D01*
G01*
D14*
X10054661Y-8144134D02*
X10054661Y-8212134D01*
X10020661Y-8178134D02*
X10088661Y-8178134D01*
X10313500Y-9110000D02*
X10313500Y-9178000D01*
X10279500Y-9144000D02*
X10347500Y-9144000D01*
D15*
X10079751Y-10134025D02*
X10079751Y-10084527D01*
X10030253Y-10084527D01*
X10030253Y-10134025D01*
X10079751Y-10134025D01*
D11*
X6632119Y-11461976D02*
X6632119Y-11261976D01*
X6679738Y-11261976D01*
X6708309Y-11271500D01*
X6727357Y-11290548D01*
X6736881Y-11309595D01*
X6746405Y-11347690D01*
X6746405Y-11376262D01*
X6736881Y-11414357D01*
X6727357Y-11433405D01*
X6708309Y-11452452D01*
X6679738Y-11461976D01*
X6632119Y-11461976D01*
X6832119Y-11461976D02*
X6832119Y-11328643D01*
X6832119Y-11366738D02*
X6841643Y-11347690D01*
X6851167Y-11338167D01*
X6870214Y-11328643D01*
X6889262Y-11328643D01*
X6955928Y-11461976D02*
X6955928Y-11328643D01*
X6955928Y-11261976D02*
X6946405Y-11271500D01*
X6955928Y-11281024D01*
X6965452Y-11271500D01*
X6955928Y-11261976D01*
X6955928Y-11281024D01*
X7079738Y-11461976D02*
X7060690Y-11452452D01*
X7051167Y-11433405D01*
X7051167Y-11261976D01*
X7184500Y-11461976D02*
X7165452Y-11452452D01*
X7155928Y-11433405D01*
X7155928Y-11261976D01*
X7413071Y-11461976D02*
X7413071Y-11261976D01*
X7479738Y-11404833D01*
X7546405Y-11261976D01*
X7546405Y-11461976D01*
X7727357Y-11461976D02*
X7727357Y-11357214D01*
X7717833Y-11338167D01*
X7698786Y-11328643D01*
X7660690Y-11328643D01*
X7641643Y-11338167D01*
X7727357Y-11452452D02*
X7708309Y-11461976D01*
X7660690Y-11461976D01*
X7641643Y-11452452D01*
X7632119Y-11433405D01*
X7632119Y-11414357D01*
X7641643Y-11395309D01*
X7660690Y-11385786D01*
X7708309Y-11385786D01*
X7727357Y-11376262D01*
X7822595Y-11328643D02*
X7822595Y-11528643D01*
X7822595Y-11338167D02*
X7841643Y-11328643D01*
X7879738Y-11328643D01*
X7898786Y-11338167D01*
X7908309Y-11347690D01*
X7917833Y-11366738D01*
X7917833Y-11423881D01*
X7908309Y-11442928D01*
X7898786Y-11452452D01*
X7879738Y-11461976D01*
X7841643Y-11461976D01*
X7822595Y-11452452D01*
X8003548Y-11442928D02*
X8013071Y-11452452D01*
X8003548Y-11461976D01*
X7994024Y-11452452D01*
X8003548Y-11442928D01*
X8003548Y-11461976D01*
X8003548Y-11338167D02*
X8013071Y-11347690D01*
X8003548Y-11357214D01*
X7994024Y-11347690D01*
X8003548Y-11338167D01*
X8003548Y-11357214D01*
D12*
X6308000Y-11758250D02*
X6374500Y-11824750D01*
X6374500Y-11758250D02*
X6308000Y-11824750D01*
D11*
X6670214Y-11681976D02*
X6689262Y-11681976D01*
X6708309Y-11691500D01*
X6717833Y-11701024D01*
X6727357Y-11720071D01*
X6736881Y-11758167D01*
X6736881Y-11805786D01*
X6727357Y-11843881D01*
X6717833Y-11862928D01*
X6708309Y-11872452D01*
X6689262Y-11881976D01*
X6670214Y-11881976D01*
X6651167Y-11872452D01*
X6641643Y-11862928D01*
X6632119Y-11843881D01*
X6622595Y-11805786D01*
X6622595Y-11758167D01*
X6632119Y-11720071D01*
X6641643Y-11701024D01*
X6651167Y-11691500D01*
X6670214Y-11681976D01*
X6822595Y-11862928D02*
X6832119Y-11872452D01*
X6822595Y-11881976D01*
X6813071Y-11872452D01*
X6822595Y-11862928D01*
X6822595Y-11881976D01*
X7003548Y-11681976D02*
X6965452Y-11681976D01*
X6946405Y-11691500D01*
X6936881Y-11701024D01*
X6917833Y-11729595D01*
X6908309Y-11767690D01*
X6908309Y-11843881D01*
X6917833Y-11862928D01*
X6927357Y-11872452D01*
X6946405Y-11881976D01*
X6984500Y-11881976D01*
X7003548Y-11872452D01*
X7013071Y-11862928D01*
X7022595Y-11843881D01*
X7022595Y-11796262D01*
X7013071Y-11777214D01*
X7003548Y-11767690D01*
X6984500Y-11758167D01*
X6946405Y-11758167D01*
X6927357Y-11767690D01*
X6917833Y-11777214D01*
X6908309Y-11796262D01*
X7194024Y-11681976D02*
X7155928Y-11681976D01*
X7136881Y-11691500D01*
X7127357Y-11701024D01*
X7108309Y-11729595D01*
X7098786Y-11767690D01*
X7098786Y-11843881D01*
X7108309Y-11862928D01*
X7117833Y-11872452D01*
X7136881Y-11881976D01*
X7174976Y-11881976D01*
X7194024Y-11872452D01*
X7203548Y-11862928D01*
X7213071Y-11843881D01*
X7213071Y-11796262D01*
X7203548Y-11777214D01*
X7194024Y-11767690D01*
X7174976Y-11758167D01*
X7136881Y-11758167D01*
X7117833Y-11767690D01*
X7108309Y-11777214D01*
X7098786Y-11796262D01*
X7394024Y-11681976D02*
X7298786Y-11681976D01*
X7289262Y-11777214D01*
X7298786Y-11767690D01*
X7317833Y-11758167D01*
X7365452Y-11758167D01*
X7384500Y-11767690D01*
X7394024Y-11777214D01*
X7403548Y-11796262D01*
X7403548Y-11843881D01*
X7394024Y-11862928D01*
X7384500Y-11872452D01*
X7365452Y-11881976D01*
X7317833Y-11881976D01*
X7298786Y-11872452D01*
X7289262Y-11862928D01*
X7489262Y-11881976D02*
X7489262Y-11748643D01*
X7489262Y-11767690D02*
X7498786Y-11758167D01*
X7517833Y-11748643D01*
X7546405Y-11748643D01*
X7565452Y-11758167D01*
X7574976Y-11777214D01*
X7574976Y-11881976D01*
X7574976Y-11777214D02*
X7584500Y-11758167D01*
X7603548Y-11748643D01*
X7632119Y-11748643D01*
X7651167Y-11758167D01*
X7660690Y-11777214D01*
X7660690Y-11881976D01*
X7755928Y-11881976D02*
X7755928Y-11748643D01*
X7755928Y-11767690D02*
X7765452Y-11758167D01*
X7784500Y-11748643D01*
X7813071Y-11748643D01*
X7832119Y-11758167D01*
X7841643Y-11777214D01*
X7841643Y-11881976D01*
X7841643Y-11777214D02*
X7851167Y-11758167D01*
X7870214Y-11748643D01*
X7898786Y-11748643D01*
X7917833Y-11758167D01*
X7927357Y-11777214D01*
X7927357Y-11881976D01*
X8317833Y-11672452D02*
X8146405Y-11929595D01*
X8574976Y-11681976D02*
X8594024Y-11681976D01*
X8613071Y-11691500D01*
X8622595Y-11701024D01*
X8632119Y-11720071D01*
X8641643Y-11758167D01*
X8641643Y-11805786D01*
X8632119Y-11843881D01*
X8622595Y-11862928D01*
X8613071Y-11872452D01*
X8594024Y-11881976D01*
X8574976Y-11881976D01*
X8555929Y-11872452D01*
X8546405Y-11862928D01*
X8536881Y-11843881D01*
X8527357Y-11805786D01*
X8527357Y-11758167D01*
X8536881Y-11720071D01*
X8546405Y-11701024D01*
X8555929Y-11691500D01*
X8574976Y-11681976D01*
X8727357Y-11862928D02*
X8736881Y-11872452D01*
X8727357Y-11881976D01*
X8717833Y-11872452D01*
X8727357Y-11862928D01*
X8727357Y-11881976D01*
X8860690Y-11681976D02*
X8879738Y-11681976D01*
X8898786Y-11691500D01*
X8908310Y-11701024D01*
X8917833Y-11720071D01*
X8927357Y-11758167D01*
X8927357Y-11805786D01*
X8917833Y-11843881D01*
X8908310Y-11862928D01*
X8898786Y-11872452D01*
X8879738Y-11881976D01*
X8860690Y-11881976D01*
X8841643Y-11872452D01*
X8832119Y-11862928D01*
X8822595Y-11843881D01*
X8813071Y-11805786D01*
X8813071Y-11758167D01*
X8822595Y-11720071D01*
X8832119Y-11701024D01*
X8841643Y-11691500D01*
X8860690Y-11681976D01*
X9003548Y-11701024D02*
X9013071Y-11691500D01*
X9032119Y-11681976D01*
X9079738Y-11681976D01*
X9098786Y-11691500D01*
X9108310Y-11701024D01*
X9117833Y-11720071D01*
X9117833Y-11739119D01*
X9108310Y-11767690D01*
X8994024Y-11881976D01*
X9117833Y-11881976D01*
X9289262Y-11681976D02*
X9251167Y-11681976D01*
X9232119Y-11691500D01*
X9222595Y-11701024D01*
X9203548Y-11729595D01*
X9194024Y-11767690D01*
X9194024Y-11843881D01*
X9203548Y-11862928D01*
X9213071Y-11872452D01*
X9232119Y-11881976D01*
X9270214Y-11881976D01*
X9289262Y-11872452D01*
X9298786Y-11862928D01*
X9308310Y-11843881D01*
X9308310Y-11796262D01*
X9298786Y-11777214D01*
X9289262Y-11767690D01*
X9270214Y-11758167D01*
X9232119Y-11758167D01*
X9213071Y-11767690D01*
X9203548Y-11777214D01*
X9194024Y-11796262D01*
X9384500Y-11701024D02*
X9394024Y-11691500D01*
X9413071Y-11681976D01*
X9460690Y-11681976D01*
X9479738Y-11691500D01*
X9489262Y-11701024D01*
X9498786Y-11720071D01*
X9498786Y-11739119D01*
X9489262Y-11767690D01*
X9374976Y-11881976D01*
X9498786Y-11881976D01*
X9574976Y-11681976D02*
X9574976Y-11720071D01*
X9651167Y-11681976D02*
X9651167Y-11720071D01*
X9946405Y-11958167D02*
X9936881Y-11948643D01*
X9917833Y-11920071D01*
X9908310Y-11901024D01*
X9898786Y-11872452D01*
X9889262Y-11824833D01*
X9889262Y-11786738D01*
X9898786Y-11739119D01*
X9908310Y-11710548D01*
X9917833Y-11691500D01*
X9936881Y-11662928D01*
X9946405Y-11653405D01*
X10127357Y-11881976D02*
X10013071Y-11881976D01*
X10070214Y-11881976D02*
X10070214Y-11681976D01*
X10051167Y-11710548D01*
X10032119Y-11729595D01*
X10013071Y-11739119D01*
X10365452Y-11881976D02*
X10365452Y-11681976D01*
X10451167Y-11881976D02*
X10451167Y-11777214D01*
X10441643Y-11758167D01*
X10422595Y-11748643D01*
X10394024Y-11748643D01*
X10374976Y-11758167D01*
X10365452Y-11767690D01*
X10574976Y-11881976D02*
X10555929Y-11872452D01*
X10546405Y-11862928D01*
X10536881Y-11843881D01*
X10536881Y-11786738D01*
X10546405Y-11767690D01*
X10555929Y-11758167D01*
X10574976Y-11748643D01*
X10603548Y-11748643D01*
X10622595Y-11758167D01*
X10632119Y-11767690D01*
X10641643Y-11786738D01*
X10641643Y-11843881D01*
X10632119Y-11862928D01*
X10622595Y-11872452D01*
X10603548Y-11881976D01*
X10574976Y-11881976D01*
X10755929Y-11881976D02*
X10736881Y-11872452D01*
X10727357Y-11853405D01*
X10727357Y-11681976D01*
X10908310Y-11872452D02*
X10889262Y-11881976D01*
X10851167Y-11881976D01*
X10832119Y-11872452D01*
X10822595Y-11853405D01*
X10822595Y-11777214D01*
X10832119Y-11758167D01*
X10851167Y-11748643D01*
X10889262Y-11748643D01*
X10908310Y-11758167D01*
X10917833Y-11777214D01*
X10917833Y-11796262D01*
X10822595Y-11815309D01*
X10984500Y-11958167D02*
X10994024Y-11948643D01*
X11013071Y-11920071D01*
X11022595Y-11901024D01*
X11032119Y-11872452D01*
X11041643Y-11824833D01*
X11041643Y-11786738D01*
X11032119Y-11739119D01*
X11022595Y-11710548D01*
X11013071Y-11691500D01*
X10994024Y-11662928D01*
X10984500Y-11653405D01*
X11346405Y-11958167D02*
X11336881Y-11948643D01*
X11317833Y-11920071D01*
X11308309Y-11901024D01*
X11298786Y-11872452D01*
X11289262Y-11824833D01*
X11289262Y-11786738D01*
X11298786Y-11739119D01*
X11308309Y-11710548D01*
X11317833Y-11691500D01*
X11336881Y-11662928D01*
X11346405Y-11653405D01*
X11422595Y-11748643D02*
X11422595Y-11881976D01*
X11422595Y-11767690D02*
X11432119Y-11758167D01*
X11451167Y-11748643D01*
X11479738Y-11748643D01*
X11498786Y-11758167D01*
X11508309Y-11777214D01*
X11508309Y-11881976D01*
X11632119Y-11881976D02*
X11613071Y-11872452D01*
X11603548Y-11862928D01*
X11594024Y-11843881D01*
X11594024Y-11786738D01*
X11603548Y-11767690D01*
X11613071Y-11758167D01*
X11632119Y-11748643D01*
X11660690Y-11748643D01*
X11679738Y-11758167D01*
X11689262Y-11767690D01*
X11698786Y-11786738D01*
X11698786Y-11843881D01*
X11689262Y-11862928D01*
X11679738Y-11872452D01*
X11660690Y-11881976D01*
X11632119Y-11881976D01*
X11755928Y-11748643D02*
X11832119Y-11748643D01*
X11784500Y-11681976D02*
X11784500Y-11853405D01*
X11794024Y-11872452D01*
X11813071Y-11881976D01*
X11832119Y-11881976D01*
X12051167Y-11748643D02*
X12051167Y-11948643D01*
X12051167Y-11758167D02*
X12070214Y-11748643D01*
X12108309Y-11748643D01*
X12127357Y-11758167D01*
X12136881Y-11767690D01*
X12146405Y-11786738D01*
X12146405Y-11843881D01*
X12136881Y-11862928D01*
X12127357Y-11872452D01*
X12108309Y-11881976D01*
X12070214Y-11881976D01*
X12051167Y-11872452D01*
X12260690Y-11881976D02*
X12241643Y-11872452D01*
X12232119Y-11853405D01*
X12232119Y-11681976D01*
X12422595Y-11881976D02*
X12422595Y-11777214D01*
X12413071Y-11758167D01*
X12394024Y-11748643D01*
X12355928Y-11748643D01*
X12336881Y-11758167D01*
X12422595Y-11872452D02*
X12403548Y-11881976D01*
X12355928Y-11881976D01*
X12336881Y-11872452D01*
X12327357Y-11853405D01*
X12327357Y-11834357D01*
X12336881Y-11815309D01*
X12355928Y-11805786D01*
X12403548Y-11805786D01*
X12422595Y-11796262D01*
X12489262Y-11748643D02*
X12565452Y-11748643D01*
X12517833Y-11681976D02*
X12517833Y-11853405D01*
X12527357Y-11872452D01*
X12546405Y-11881976D01*
X12565452Y-11881976D01*
X12708309Y-11872452D02*
X12689262Y-11881976D01*
X12651167Y-11881976D01*
X12632119Y-11872452D01*
X12622595Y-11853405D01*
X12622595Y-11777214D01*
X12632119Y-11758167D01*
X12651167Y-11748643D01*
X12689262Y-11748643D01*
X12708309Y-11758167D01*
X12717833Y-11777214D01*
X12717833Y-11796262D01*
X12622595Y-11815309D01*
X12889262Y-11881976D02*
X12889262Y-11681976D01*
X12889262Y-11872452D02*
X12870214Y-11881976D01*
X12832119Y-11881976D01*
X12813071Y-11872452D01*
X12803548Y-11862928D01*
X12794024Y-11843881D01*
X12794024Y-11786738D01*
X12803548Y-11767690D01*
X12813071Y-11758167D01*
X12832119Y-11748643D01*
X12870214Y-11748643D01*
X12889262Y-11758167D01*
X12965452Y-11958167D02*
X12974976Y-11948643D01*
X12994024Y-11920071D01*
X13003548Y-11901024D01*
X13013071Y-11872452D01*
X13022595Y-11824833D01*
X13022595Y-11786738D01*
X13013071Y-11739119D01*
X13003548Y-11710548D01*
X12994024Y-11691500D01*
X12974976Y-11662928D01*
X12965452Y-11653405D01*
D13*
X6374500Y-12055500D02*
G75*
G03*
X6374500Y-12055500I-33500J0D01*
G01*
D11*
X6670214Y-11945976D02*
X6689262Y-11945976D01*
X6708309Y-11955500D01*
X6717833Y-11965024D01*
X6727357Y-11984071D01*
X6736881Y-12022167D01*
X6736881Y-12069786D01*
X6727357Y-12107881D01*
X6717833Y-12126928D01*
X6708309Y-12136452D01*
X6689262Y-12145976D01*
X6670214Y-12145976D01*
X6651167Y-12136452D01*
X6641643Y-12126928D01*
X6632119Y-12107881D01*
X6622595Y-12069786D01*
X6622595Y-12022167D01*
X6632119Y-11984071D01*
X6641643Y-11965024D01*
X6651167Y-11955500D01*
X6670214Y-11945976D01*
X6822595Y-12126928D02*
X6832119Y-12136452D01*
X6822595Y-12145976D01*
X6813071Y-12136452D01*
X6822595Y-12126928D01*
X6822595Y-12145976D01*
X7003548Y-11945976D02*
X6965452Y-11945976D01*
X6946405Y-11955500D01*
X6936881Y-11965024D01*
X6917833Y-11993595D01*
X6908309Y-12031690D01*
X6908309Y-12107881D01*
X6917833Y-12126928D01*
X6927357Y-12136452D01*
X6946405Y-12145976D01*
X6984500Y-12145976D01*
X7003548Y-12136452D01*
X7013071Y-12126928D01*
X7022595Y-12107881D01*
X7022595Y-12060262D01*
X7013071Y-12041214D01*
X7003548Y-12031690D01*
X6984500Y-12022167D01*
X6946405Y-12022167D01*
X6927357Y-12031690D01*
X6917833Y-12041214D01*
X6908309Y-12060262D01*
X7089262Y-11945976D02*
X7222595Y-11945976D01*
X7136881Y-12145976D01*
X7336881Y-11945976D02*
X7355928Y-11945976D01*
X7374976Y-11955500D01*
X7384500Y-11965024D01*
X7394024Y-11984071D01*
X7403548Y-12022167D01*
X7403548Y-12069786D01*
X7394024Y-12107881D01*
X7384500Y-12126928D01*
X7374976Y-12136452D01*
X7355928Y-12145976D01*
X7336881Y-12145976D01*
X7317833Y-12136452D01*
X7308309Y-12126928D01*
X7298786Y-12107881D01*
X7289262Y-12069786D01*
X7289262Y-12022167D01*
X7298786Y-11984071D01*
X7308309Y-11965024D01*
X7317833Y-11955500D01*
X7336881Y-11945976D01*
X7489262Y-12145976D02*
X7489262Y-12012643D01*
X7489262Y-12031690D02*
X7498786Y-12022167D01*
X7517833Y-12012643D01*
X7546405Y-12012643D01*
X7565452Y-12022167D01*
X7574976Y-12041214D01*
X7574976Y-12145976D01*
X7574976Y-12041214D02*
X7584500Y-12022167D01*
X7603548Y-12012643D01*
X7632119Y-12012643D01*
X7651167Y-12022167D01*
X7660690Y-12041214D01*
X7660690Y-12145976D01*
X7755928Y-12145976D02*
X7755928Y-12012643D01*
X7755928Y-12031690D02*
X7765452Y-12022167D01*
X7784500Y-12012643D01*
X7813071Y-12012643D01*
X7832119Y-12022167D01*
X7841643Y-12041214D01*
X7841643Y-12145976D01*
X7841643Y-12041214D02*
X7851167Y-12022167D01*
X7870214Y-12012643D01*
X7898786Y-12012643D01*
X7917833Y-12022167D01*
X7927357Y-12041214D01*
X7927357Y-12145976D01*
X8317833Y-11936452D02*
X8146405Y-12193595D01*
X8574976Y-11945976D02*
X8594024Y-11945976D01*
X8613071Y-11955500D01*
X8622595Y-11965024D01*
X8632119Y-11984071D01*
X8641643Y-12022167D01*
X8641643Y-12069786D01*
X8632119Y-12107881D01*
X8622595Y-12126928D01*
X8613071Y-12136452D01*
X8594024Y-12145976D01*
X8574976Y-12145976D01*
X8555929Y-12136452D01*
X8546405Y-12126928D01*
X8536881Y-12107881D01*
X8527357Y-12069786D01*
X8527357Y-12022167D01*
X8536881Y-11984071D01*
X8546405Y-11965024D01*
X8555929Y-11955500D01*
X8574976Y-11945976D01*
X8727357Y-12126928D02*
X8736881Y-12136452D01*
X8727357Y-12145976D01*
X8717833Y-12136452D01*
X8727357Y-12126928D01*
X8727357Y-12145976D01*
X8860690Y-11945976D02*
X8879738Y-11945976D01*
X8898786Y-11955500D01*
X8908310Y-11965024D01*
X8917833Y-11984071D01*
X8927357Y-12022167D01*
X8927357Y-12069786D01*
X8917833Y-12107881D01*
X8908310Y-12126928D01*
X8898786Y-12136452D01*
X8879738Y-12145976D01*
X8860690Y-12145976D01*
X8841643Y-12136452D01*
X8832119Y-12126928D01*
X8822595Y-12107881D01*
X8813071Y-12069786D01*
X8813071Y-12022167D01*
X8822595Y-11984071D01*
X8832119Y-11965024D01*
X8841643Y-11955500D01*
X8860690Y-11945976D01*
X9003548Y-11965024D02*
X9013071Y-11955500D01*
X9032119Y-11945976D01*
X9079738Y-11945976D01*
X9098786Y-11955500D01*
X9108310Y-11965024D01*
X9117833Y-11984071D01*
X9117833Y-12003119D01*
X9108310Y-12031690D01*
X8994024Y-12145976D01*
X9117833Y-12145976D01*
X9289262Y-11945976D02*
X9251167Y-11945976D01*
X9232119Y-11955500D01*
X9222595Y-11965024D01*
X9203548Y-11993595D01*
X9194024Y-12031690D01*
X9194024Y-12107881D01*
X9203548Y-12126928D01*
X9213071Y-12136452D01*
X9232119Y-12145976D01*
X9270214Y-12145976D01*
X9289262Y-12136452D01*
X9298786Y-12126928D01*
X9308310Y-12107881D01*
X9308310Y-12060262D01*
X9298786Y-12041214D01*
X9289262Y-12031690D01*
X9270214Y-12022167D01*
X9232119Y-12022167D01*
X9213071Y-12031690D01*
X9203548Y-12041214D01*
X9194024Y-12060262D01*
X9479738Y-12012643D02*
X9479738Y-12145976D01*
X9432119Y-11936452D02*
X9384500Y-12079309D01*
X9508310Y-12079309D01*
X9574976Y-11945976D02*
X9574976Y-11984071D01*
X9651167Y-11945976D02*
X9651167Y-11984071D01*
X9946405Y-12222167D02*
X9936881Y-12212643D01*
X9917833Y-12184071D01*
X9908310Y-12165024D01*
X9898786Y-12136452D01*
X9889262Y-12088833D01*
X9889262Y-12050738D01*
X9898786Y-12003119D01*
X9908310Y-11974548D01*
X9917833Y-11955500D01*
X9936881Y-11926928D01*
X9946405Y-11917405D01*
X10013071Y-11965024D02*
X10022595Y-11955500D01*
X10041643Y-11945976D01*
X10089262Y-11945976D01*
X10108310Y-11955500D01*
X10117833Y-11965024D01*
X10127357Y-11984071D01*
X10127357Y-12003119D01*
X10117833Y-12031690D01*
X10003548Y-12145976D01*
X10127357Y-12145976D01*
X10365452Y-12145976D02*
X10365452Y-11945976D01*
X10451167Y-12145976D02*
X10451167Y-12041214D01*
X10441643Y-12022167D01*
X10422595Y-12012643D01*
X10394024Y-12012643D01*
X10374976Y-12022167D01*
X10365452Y-12031690D01*
X10574976Y-12145976D02*
X10555929Y-12136452D01*
X10546405Y-12126928D01*
X10536881Y-12107881D01*
X10536881Y-12050738D01*
X10546405Y-12031690D01*
X10555929Y-12022167D01*
X10574976Y-12012643D01*
X10603548Y-12012643D01*
X10622595Y-12022167D01*
X10632119Y-12031690D01*
X10641643Y-12050738D01*
X10641643Y-12107881D01*
X10632119Y-12126928D01*
X10622595Y-12136452D01*
X10603548Y-12145976D01*
X10574976Y-12145976D01*
X10755929Y-12145976D02*
X10736881Y-12136452D01*
X10727357Y-12117405D01*
X10727357Y-11945976D01*
X10908310Y-12136452D02*
X10889262Y-12145976D01*
X10851167Y-12145976D01*
X10832119Y-12136452D01*
X10822595Y-12117405D01*
X10822595Y-12041214D01*
X10832119Y-12022167D01*
X10851167Y-12012643D01*
X10889262Y-12012643D01*
X10908310Y-12022167D01*
X10917833Y-12041214D01*
X10917833Y-12060262D01*
X10822595Y-12079309D01*
X10994024Y-12136452D02*
X11013071Y-12145976D01*
X11051167Y-12145976D01*
X11070214Y-12136452D01*
X11079738Y-12117405D01*
X11079738Y-12107881D01*
X11070214Y-12088833D01*
X11051167Y-12079309D01*
X11022595Y-12079309D01*
X11003548Y-12069786D01*
X10994024Y-12050738D01*
X10994024Y-12041214D01*
X11003548Y-12022167D01*
X11022595Y-12012643D01*
X11051167Y-12012643D01*
X11070214Y-12022167D01*
X11146405Y-12222167D02*
X11155929Y-12212643D01*
X11174976Y-12184071D01*
X11184500Y-12165024D01*
X11194024Y-12136452D01*
X11203548Y-12088833D01*
X11203548Y-12050738D01*
X11194024Y-12003119D01*
X11184500Y-11974548D01*
X11174976Y-11955500D01*
X11155929Y-11926928D01*
X11146405Y-11917405D01*
X11508309Y-12222167D02*
X11498786Y-12212643D01*
X11479738Y-12184071D01*
X11470214Y-12165024D01*
X11460690Y-12136452D01*
X11451167Y-12088833D01*
X11451167Y-12050738D01*
X11460690Y-12003119D01*
X11470214Y-11974548D01*
X11479738Y-11955500D01*
X11498786Y-11926928D01*
X11508309Y-11917405D01*
X11584500Y-12012643D02*
X11584500Y-12145976D01*
X11584500Y-12031690D02*
X11594024Y-12022167D01*
X11613071Y-12012643D01*
X11641643Y-12012643D01*
X11660690Y-12022167D01*
X11670214Y-12041214D01*
X11670214Y-12145976D01*
X11794024Y-12145976D02*
X11774976Y-12136452D01*
X11765452Y-12126928D01*
X11755928Y-12107881D01*
X11755928Y-12050738D01*
X11765452Y-12031690D01*
X11774976Y-12022167D01*
X11794024Y-12012643D01*
X11822595Y-12012643D01*
X11841643Y-12022167D01*
X11851167Y-12031690D01*
X11860690Y-12050738D01*
X11860690Y-12107881D01*
X11851167Y-12126928D01*
X11841643Y-12136452D01*
X11822595Y-12145976D01*
X11794024Y-12145976D01*
X11917833Y-12012643D02*
X11994024Y-12012643D01*
X11946405Y-11945976D02*
X11946405Y-12117405D01*
X11955928Y-12136452D01*
X11974976Y-12145976D01*
X11994024Y-12145976D01*
X12213071Y-12012643D02*
X12213071Y-12212643D01*
X12213071Y-12022167D02*
X12232119Y-12012643D01*
X12270214Y-12012643D01*
X12289262Y-12022167D01*
X12298786Y-12031690D01*
X12308309Y-12050738D01*
X12308309Y-12107881D01*
X12298786Y-12126928D01*
X12289262Y-12136452D01*
X12270214Y-12145976D01*
X12232119Y-12145976D01*
X12213071Y-12136452D01*
X12422595Y-12145976D02*
X12403548Y-12136452D01*
X12394024Y-12117405D01*
X12394024Y-11945976D01*
X12584500Y-12145976D02*
X12584500Y-12041214D01*
X12574976Y-12022167D01*
X12555928Y-12012643D01*
X12517833Y-12012643D01*
X12498786Y-12022167D01*
X12584500Y-12136452D02*
X12565452Y-12145976D01*
X12517833Y-12145976D01*
X12498786Y-12136452D01*
X12489262Y-12117405D01*
X12489262Y-12098357D01*
X12498786Y-12079309D01*
X12517833Y-12069786D01*
X12565452Y-12069786D01*
X12584500Y-12060262D01*
X12651167Y-12012643D02*
X12727357Y-12012643D01*
X12679738Y-11945976D02*
X12679738Y-12117405D01*
X12689262Y-12136452D01*
X12708309Y-12145976D01*
X12727357Y-12145976D01*
X12870214Y-12136452D02*
X12851167Y-12145976D01*
X12813071Y-12145976D01*
X12794024Y-12136452D01*
X12784500Y-12117405D01*
X12784500Y-12041214D01*
X12794024Y-12022167D01*
X12813071Y-12012643D01*
X12851167Y-12012643D01*
X12870214Y-12022167D01*
X12879738Y-12041214D01*
X12879738Y-12060262D01*
X12784500Y-12079309D01*
X13051167Y-12145976D02*
X13051167Y-11945976D01*
X13051167Y-12136452D02*
X13032119Y-12145976D01*
X12994024Y-12145976D01*
X12974976Y-12136452D01*
X12965452Y-12126928D01*
X12955928Y-12107881D01*
X12955928Y-12050738D01*
X12965452Y-12031690D01*
X12974976Y-12022167D01*
X12994024Y-12012643D01*
X13032119Y-12012643D01*
X13051167Y-12022167D01*
X13127357Y-12222167D02*
X13136881Y-12212643D01*
X13155928Y-12184071D01*
X13165452Y-12165024D01*
X13174976Y-12136452D01*
X13184500Y-12088833D01*
X13184500Y-12050738D01*
X13174976Y-12003119D01*
X13165452Y-11974548D01*
X13155928Y-11955500D01*
X13136881Y-11926928D01*
X13127357Y-11917405D01*
D14*
X6340500Y-12285500D02*
X6340500Y-12353500D01*
X6306500Y-12319500D02*
X6374500Y-12319500D01*
D11*
X6670214Y-12209976D02*
X6689262Y-12209976D01*
X6708309Y-12219500D01*
X6717833Y-12229024D01*
X6727357Y-12248071D01*
X6736881Y-12286167D01*
X6736881Y-12333786D01*
X6727357Y-12371881D01*
X6717833Y-12390928D01*
X6708309Y-12400452D01*
X6689262Y-12409976D01*
X6670214Y-12409976D01*
X6651167Y-12400452D01*
X6641643Y-12390928D01*
X6632119Y-12371881D01*
X6622595Y-12333786D01*
X6622595Y-12286167D01*
X6632119Y-12248071D01*
X6641643Y-12229024D01*
X6651167Y-12219500D01*
X6670214Y-12209976D01*
X6822595Y-12390928D02*
X6832119Y-12400452D01*
X6822595Y-12409976D01*
X6813071Y-12400452D01*
X6822595Y-12390928D01*
X6822595Y-12409976D01*
X7003548Y-12209976D02*
X6965452Y-12209976D01*
X6946405Y-12219500D01*
X6936881Y-12229024D01*
X6917833Y-12257595D01*
X6908309Y-12295690D01*
X6908309Y-12371881D01*
X6917833Y-12390928D01*
X6927357Y-12400452D01*
X6946405Y-12409976D01*
X6984500Y-12409976D01*
X7003548Y-12400452D01*
X7013071Y-12390928D01*
X7022595Y-12371881D01*
X7022595Y-12324262D01*
X7013071Y-12305214D01*
X7003548Y-12295690D01*
X6984500Y-12286167D01*
X6946405Y-12286167D01*
X6927357Y-12295690D01*
X6917833Y-12305214D01*
X6908309Y-12324262D01*
X7136881Y-12295690D02*
X7117833Y-12286167D01*
X7108309Y-12276643D01*
X7098786Y-12257595D01*
X7098786Y-12248071D01*
X7108309Y-12229024D01*
X7117833Y-12219500D01*
X7136881Y-12209976D01*
X7174976Y-12209976D01*
X7194024Y-12219500D01*
X7203548Y-12229024D01*
X7213071Y-12248071D01*
X7213071Y-12257595D01*
X7203548Y-12276643D01*
X7194024Y-12286167D01*
X7174976Y-12295690D01*
X7136881Y-12295690D01*
X7117833Y-12305214D01*
X7108309Y-12314738D01*
X7098786Y-12333786D01*
X7098786Y-12371881D01*
X7108309Y-12390928D01*
X7117833Y-12400452D01*
X7136881Y-12409976D01*
X7174976Y-12409976D01*
X7194024Y-12400452D01*
X7203548Y-12390928D01*
X7213071Y-12371881D01*
X7213071Y-12333786D01*
X7203548Y-12314738D01*
X7194024Y-12305214D01*
X7174976Y-12295690D01*
X7336881Y-12209976D02*
X7355928Y-12209976D01*
X7374976Y-12219500D01*
X7384500Y-12229024D01*
X7394024Y-12248071D01*
X7403548Y-12286167D01*
X7403548Y-12333786D01*
X7394024Y-12371881D01*
X7384500Y-12390928D01*
X7374976Y-12400452D01*
X7355928Y-12409976D01*
X7336881Y-12409976D01*
X7317833Y-12400452D01*
X7308309Y-12390928D01*
X7298786Y-12371881D01*
X7289262Y-12333786D01*
X7289262Y-12286167D01*
X7298786Y-12248071D01*
X7308309Y-12229024D01*
X7317833Y-12219500D01*
X7336881Y-12209976D01*
X7489262Y-12409976D02*
X7489262Y-12276643D01*
X7489262Y-12295690D02*
X7498786Y-12286167D01*
X7517833Y-12276643D01*
X7546405Y-12276643D01*
X7565452Y-12286167D01*
X7574976Y-12305214D01*
X7574976Y-12409976D01*
X7574976Y-12305214D02*
X7584500Y-12286167D01*
X7603548Y-12276643D01*
X7632119Y-12276643D01*
X7651167Y-12286167D01*
X7660690Y-12305214D01*
X7660690Y-12409976D01*
X7755928Y-12409976D02*
X7755928Y-12276643D01*
X7755928Y-12295690D02*
X7765452Y-12286167D01*
X7784500Y-12276643D01*
X7813071Y-12276643D01*
X7832119Y-12286167D01*
X7841643Y-12305214D01*
X7841643Y-12409976D01*
X7841643Y-12305214D02*
X7851167Y-12286167D01*
X7870214Y-12276643D01*
X7898786Y-12276643D01*
X7917833Y-12286167D01*
X7927357Y-12305214D01*
X7927357Y-12409976D01*
X8317833Y-12200452D02*
X8146405Y-12457595D01*
X8574976Y-12209976D02*
X8594024Y-12209976D01*
X8613071Y-12219500D01*
X8622595Y-12229024D01*
X8632119Y-12248071D01*
X8641643Y-12286167D01*
X8641643Y-12333786D01*
X8632119Y-12371881D01*
X8622595Y-12390928D01*
X8613071Y-12400452D01*
X8594024Y-12409976D01*
X8574976Y-12409976D01*
X8555929Y-12400452D01*
X8546405Y-12390928D01*
X8536881Y-12371881D01*
X8527357Y-12333786D01*
X8527357Y-12286167D01*
X8536881Y-12248071D01*
X8546405Y-12229024D01*
X8555929Y-12219500D01*
X8574976Y-12209976D01*
X8727357Y-12390928D02*
X8736881Y-12400452D01*
X8727357Y-12409976D01*
X8717833Y-12400452D01*
X8727357Y-12390928D01*
X8727357Y-12409976D01*
X8860690Y-12209976D02*
X8879738Y-12209976D01*
X8898786Y-12219500D01*
X8908310Y-12229024D01*
X8917833Y-12248071D01*
X8927357Y-12286167D01*
X8927357Y-12333786D01*
X8917833Y-12371881D01*
X8908310Y-12390928D01*
X8898786Y-12400452D01*
X8879738Y-12409976D01*
X8860690Y-12409976D01*
X8841643Y-12400452D01*
X8832119Y-12390928D01*
X8822595Y-12371881D01*
X8813071Y-12333786D01*
X8813071Y-12286167D01*
X8822595Y-12248071D01*
X8832119Y-12229024D01*
X8841643Y-12219500D01*
X8860690Y-12209976D01*
X9003548Y-12229024D02*
X9013071Y-12219500D01*
X9032119Y-12209976D01*
X9079738Y-12209976D01*
X9098786Y-12219500D01*
X9108310Y-12229024D01*
X9117833Y-12248071D01*
X9117833Y-12267119D01*
X9108310Y-12295690D01*
X8994024Y-12409976D01*
X9117833Y-12409976D01*
X9289262Y-12209976D02*
X9251167Y-12209976D01*
X9232119Y-12219500D01*
X9222595Y-12229024D01*
X9203548Y-12257595D01*
X9194024Y-12295690D01*
X9194024Y-12371881D01*
X9203548Y-12390928D01*
X9213071Y-12400452D01*
X9232119Y-12409976D01*
X9270214Y-12409976D01*
X9289262Y-12400452D01*
X9298786Y-12390928D01*
X9308310Y-12371881D01*
X9308310Y-12324262D01*
X9298786Y-12305214D01*
X9289262Y-12295690D01*
X9270214Y-12286167D01*
X9232119Y-12286167D01*
X9213071Y-12295690D01*
X9203548Y-12305214D01*
X9194024Y-12324262D01*
X9422595Y-12295690D02*
X9403548Y-12286167D01*
X9394024Y-12276643D01*
X9384500Y-12257595D01*
X9384500Y-12248071D01*
X9394024Y-12229024D01*
X9403548Y-12219500D01*
X9422595Y-12209976D01*
X9460690Y-12209976D01*
X9479738Y-12219500D01*
X9489262Y-12229024D01*
X9498786Y-12248071D01*
X9498786Y-12257595D01*
X9489262Y-12276643D01*
X9479738Y-12286167D01*
X9460690Y-12295690D01*
X9422595Y-12295690D01*
X9403548Y-12305214D01*
X9394024Y-12314738D01*
X9384500Y-12333786D01*
X9384500Y-12371881D01*
X9394024Y-12390928D01*
X9403548Y-12400452D01*
X9422595Y-12409976D01*
X9460690Y-12409976D01*
X9479738Y-12400452D01*
X9489262Y-12390928D01*
X9498786Y-12371881D01*
X9498786Y-12333786D01*
X9489262Y-12314738D01*
X9479738Y-12305214D01*
X9460690Y-12295690D01*
X9574976Y-12209976D02*
X9574976Y-12248071D01*
X9651167Y-12209976D02*
X9651167Y-12248071D01*
X9946405Y-12486167D02*
X9936881Y-12476643D01*
X9917833Y-12448071D01*
X9908310Y-12429024D01*
X9898786Y-12400452D01*
X9889262Y-12352833D01*
X9889262Y-12314738D01*
X9898786Y-12267119D01*
X9908310Y-12238548D01*
X9917833Y-12219500D01*
X9936881Y-12190928D01*
X9946405Y-12181405D01*
X10013071Y-12229024D02*
X10022595Y-12219500D01*
X10041643Y-12209976D01*
X10089262Y-12209976D01*
X10108310Y-12219500D01*
X10117833Y-12229024D01*
X10127357Y-12248071D01*
X10127357Y-12267119D01*
X10117833Y-12295690D01*
X10003548Y-12409976D01*
X10127357Y-12409976D01*
X10365452Y-12409976D02*
X10365452Y-12209976D01*
X10451167Y-12409976D02*
X10451167Y-12305214D01*
X10441643Y-12286167D01*
X10422595Y-12276643D01*
X10394024Y-12276643D01*
X10374976Y-12286167D01*
X10365452Y-12295690D01*
X10574976Y-12409976D02*
X10555929Y-12400452D01*
X10546405Y-12390928D01*
X10536881Y-12371881D01*
X10536881Y-12314738D01*
X10546405Y-12295690D01*
X10555929Y-12286167D01*
X10574976Y-12276643D01*
X10603548Y-12276643D01*
X10622595Y-12286167D01*
X10632119Y-12295690D01*
X10641643Y-12314738D01*
X10641643Y-12371881D01*
X10632119Y-12390928D01*
X10622595Y-12400452D01*
X10603548Y-12409976D01*
X10574976Y-12409976D01*
X10755929Y-12409976D02*
X10736881Y-12400452D01*
X10727357Y-12381405D01*
X10727357Y-12209976D01*
X10908310Y-12400452D02*
X10889262Y-12409976D01*
X10851167Y-12409976D01*
X10832119Y-12400452D01*
X10822595Y-12381405D01*
X10822595Y-12305214D01*
X10832119Y-12286167D01*
X10851167Y-12276643D01*
X10889262Y-12276643D01*
X10908310Y-12286167D01*
X10917833Y-12305214D01*
X10917833Y-12324262D01*
X10822595Y-12343309D01*
X10994024Y-12400452D02*
X11013071Y-12409976D01*
X11051167Y-12409976D01*
X11070214Y-12400452D01*
X11079738Y-12381405D01*
X11079738Y-12371881D01*
X11070214Y-12352833D01*
X11051167Y-12343309D01*
X11022595Y-12343309D01*
X11003548Y-12333786D01*
X10994024Y-12314738D01*
X10994024Y-12305214D01*
X11003548Y-12286167D01*
X11022595Y-12276643D01*
X11051167Y-12276643D01*
X11070214Y-12286167D01*
X11146405Y-12486167D02*
X11155929Y-12476643D01*
X11174976Y-12448071D01*
X11184500Y-12429024D01*
X11194024Y-12400452D01*
X11203548Y-12352833D01*
X11203548Y-12314738D01*
X11194024Y-12267119D01*
X11184500Y-12238548D01*
X11174976Y-12219500D01*
X11155929Y-12190928D01*
X11146405Y-12181405D01*
X11508309Y-12486167D02*
X11498786Y-12476643D01*
X11479738Y-12448071D01*
X11470214Y-12429024D01*
X11460690Y-12400452D01*
X11451167Y-12352833D01*
X11451167Y-12314738D01*
X11460690Y-12267119D01*
X11470214Y-12238548D01*
X11479738Y-12219500D01*
X11498786Y-12190928D01*
X11508309Y-12181405D01*
X11584500Y-12276643D02*
X11584500Y-12409976D01*
X11584500Y-12295690D02*
X11594024Y-12286167D01*
X11613071Y-12276643D01*
X11641643Y-12276643D01*
X11660690Y-12286167D01*
X11670214Y-12305214D01*
X11670214Y-12409976D01*
X11794024Y-12409976D02*
X11774976Y-12400452D01*
X11765452Y-12390928D01*
X11755928Y-12371881D01*
X11755928Y-12314738D01*
X11765452Y-12295690D01*
X11774976Y-12286167D01*
X11794024Y-12276643D01*
X11822595Y-12276643D01*
X11841643Y-12286167D01*
X11851167Y-12295690D01*
X11860690Y-12314738D01*
X11860690Y-12371881D01*
X11851167Y-12390928D01*
X11841643Y-12400452D01*
X11822595Y-12409976D01*
X11794024Y-12409976D01*
X11917833Y-12276643D02*
X11994024Y-12276643D01*
X11946405Y-12209976D02*
X11946405Y-12381405D01*
X11955928Y-12400452D01*
X11974976Y-12409976D01*
X11994024Y-12409976D01*
X12213071Y-12276643D02*
X12213071Y-12476643D01*
X12213071Y-12286167D02*
X12232119Y-12276643D01*
X12270214Y-12276643D01*
X12289262Y-12286167D01*
X12298786Y-12295690D01*
X12308309Y-12314738D01*
X12308309Y-12371881D01*
X12298786Y-12390928D01*
X12289262Y-12400452D01*
X12270214Y-12409976D01*
X12232119Y-12409976D01*
X12213071Y-12400452D01*
X12422595Y-12409976D02*
X12403548Y-12400452D01*
X12394024Y-12381405D01*
X12394024Y-12209976D01*
X12584500Y-12409976D02*
X12584500Y-12305214D01*
X12574976Y-12286167D01*
X12555928Y-12276643D01*
X12517833Y-12276643D01*
X12498786Y-12286167D01*
X12584500Y-12400452D02*
X12565452Y-12409976D01*
X12517833Y-12409976D01*
X12498786Y-12400452D01*
X12489262Y-12381405D01*
X12489262Y-12362357D01*
X12498786Y-12343309D01*
X12517833Y-12333786D01*
X12565452Y-12333786D01*
X12584500Y-12324262D01*
X12651167Y-12276643D02*
X12727357Y-12276643D01*
X12679738Y-12209976D02*
X12679738Y-12381405D01*
X12689262Y-12400452D01*
X12708309Y-12409976D01*
X12727357Y-12409976D01*
X12870214Y-12400452D02*
X12851167Y-12409976D01*
X12813071Y-12409976D01*
X12794024Y-12400452D01*
X12784500Y-12381405D01*
X12784500Y-12305214D01*
X12794024Y-12286167D01*
X12813071Y-12276643D01*
X12851167Y-12276643D01*
X12870214Y-12286167D01*
X12879738Y-12305214D01*
X12879738Y-12324262D01*
X12784500Y-12343309D01*
X13051167Y-12409976D02*
X13051167Y-12209976D01*
X13051167Y-12400452D02*
X13032119Y-12409976D01*
X12994024Y-12409976D01*
X12974976Y-12400452D01*
X12965452Y-12390928D01*
X12955928Y-12371881D01*
X12955928Y-12314738D01*
X12965452Y-12295690D01*
X12974976Y-12286167D01*
X12994024Y-12276643D01*
X13032119Y-12276643D01*
X13051167Y-12286167D01*
X13127357Y-12486167D02*
X13136881Y-12476643D01*
X13155928Y-12448071D01*
X13165452Y-12429024D01*
X13174976Y-12400452D01*
X13184500Y-12352833D01*
X13184500Y-12314738D01*
X13174976Y-12267119D01*
X13165452Y-12238548D01*
X13155928Y-12219500D01*
X13136881Y-12190928D01*
X13127357Y-12181405D01*
D15*
X6364249Y-12608249D02*
X6364249Y-12558751D01*
X6314751Y-12558751D01*
X6314751Y-12608249D01*
X6364249Y-12608249D01*
D11*
X6670214Y-12473976D02*
X6689262Y-12473976D01*
X6708309Y-12483500D01*
X6717833Y-12493024D01*
X6727357Y-12512071D01*
X6736881Y-12550167D01*
X6736881Y-12597786D01*
X6727357Y-12635881D01*
X6717833Y-12654928D01*
X6708309Y-12664452D01*
X6689262Y-12673976D01*
X6670214Y-12673976D01*
X6651167Y-12664452D01*
X6641643Y-12654928D01*
X6632119Y-12635881D01*
X6622595Y-12597786D01*
X6622595Y-12550167D01*
X6632119Y-12512071D01*
X6641643Y-12493024D01*
X6651167Y-12483500D01*
X6670214Y-12473976D01*
X6822595Y-12654928D02*
X6832119Y-12664452D01*
X6822595Y-12673976D01*
X6813071Y-12664452D01*
X6822595Y-12654928D01*
X6822595Y-12673976D01*
X6898786Y-12473976D02*
X7032119Y-12473976D01*
X6946405Y-12673976D01*
X7146405Y-12473976D02*
X7165452Y-12473976D01*
X7184500Y-12483500D01*
X7194024Y-12493024D01*
X7203548Y-12512071D01*
X7213071Y-12550167D01*
X7213071Y-12597786D01*
X7203548Y-12635881D01*
X7194024Y-12654928D01*
X7184500Y-12664452D01*
X7165452Y-12673976D01*
X7146405Y-12673976D01*
X7127357Y-12664452D01*
X7117833Y-12654928D01*
X7108309Y-12635881D01*
X7098786Y-12597786D01*
X7098786Y-12550167D01*
X7108309Y-12512071D01*
X7117833Y-12493024D01*
X7127357Y-12483500D01*
X7146405Y-12473976D01*
X7336881Y-12473976D02*
X7355928Y-12473976D01*
X7374976Y-12483500D01*
X7384500Y-12493024D01*
X7394024Y-12512071D01*
X7403548Y-12550167D01*
X7403548Y-12597786D01*
X7394024Y-12635881D01*
X7384500Y-12654928D01*
X7374976Y-12664452D01*
X7355928Y-12673976D01*
X7336881Y-12673976D01*
X7317833Y-12664452D01*
X7308309Y-12654928D01*
X7298786Y-12635881D01*
X7289262Y-12597786D01*
X7289262Y-12550167D01*
X7298786Y-12512071D01*
X7308309Y-12493024D01*
X7317833Y-12483500D01*
X7336881Y-12473976D01*
X7489262Y-12673976D02*
X7489262Y-12540643D01*
X7489262Y-12559690D02*
X7498786Y-12550167D01*
X7517833Y-12540643D01*
X7546405Y-12540643D01*
X7565452Y-12550167D01*
X7574976Y-12569214D01*
X7574976Y-12673976D01*
X7574976Y-12569214D02*
X7584500Y-12550167D01*
X7603548Y-12540643D01*
X7632119Y-12540643D01*
X7651167Y-12550167D01*
X7660690Y-12569214D01*
X7660690Y-12673976D01*
X7755928Y-12673976D02*
X7755928Y-12540643D01*
X7755928Y-12559690D02*
X7765452Y-12550167D01*
X7784500Y-12540643D01*
X7813071Y-12540643D01*
X7832119Y-12550167D01*
X7841643Y-12569214D01*
X7841643Y-12673976D01*
X7841643Y-12569214D02*
X7851167Y-12550167D01*
X7870214Y-12540643D01*
X7898786Y-12540643D01*
X7917833Y-12550167D01*
X7927357Y-12569214D01*
X7927357Y-12673976D01*
X8317833Y-12464452D02*
X8146405Y-12721595D01*
X8574976Y-12473976D02*
X8594024Y-12473976D01*
X8613071Y-12483500D01*
X8622595Y-12493024D01*
X8632119Y-12512071D01*
X8641643Y-12550167D01*
X8641643Y-12597786D01*
X8632119Y-12635881D01*
X8622595Y-12654928D01*
X8613071Y-12664452D01*
X8594024Y-12673976D01*
X8574976Y-12673976D01*
X8555929Y-12664452D01*
X8546405Y-12654928D01*
X8536881Y-12635881D01*
X8527357Y-12597786D01*
X8527357Y-12550167D01*
X8536881Y-12512071D01*
X8546405Y-12493024D01*
X8555929Y-12483500D01*
X8574976Y-12473976D01*
X8727357Y-12654928D02*
X8736881Y-12664452D01*
X8727357Y-12673976D01*
X8717833Y-12664452D01*
X8727357Y-12654928D01*
X8727357Y-12673976D01*
X8860690Y-12473976D02*
X8879738Y-12473976D01*
X8898786Y-12483500D01*
X8908310Y-12493024D01*
X8917833Y-12512071D01*
X8927357Y-12550167D01*
X8927357Y-12597786D01*
X8917833Y-12635881D01*
X8908310Y-12654928D01*
X8898786Y-12664452D01*
X8879738Y-12673976D01*
X8860690Y-12673976D01*
X8841643Y-12664452D01*
X8832119Y-12654928D01*
X8822595Y-12635881D01*
X8813071Y-12597786D01*
X8813071Y-12550167D01*
X8822595Y-12512071D01*
X8832119Y-12493024D01*
X8841643Y-12483500D01*
X8860690Y-12473976D01*
X9003548Y-12493024D02*
X9013071Y-12483500D01*
X9032119Y-12473976D01*
X9079738Y-12473976D01*
X9098786Y-12483500D01*
X9108310Y-12493024D01*
X9117833Y-12512071D01*
X9117833Y-12531119D01*
X9108310Y-12559690D01*
X8994024Y-12673976D01*
X9117833Y-12673976D01*
X9184500Y-12473976D02*
X9317833Y-12473976D01*
X9232119Y-12673976D01*
X9479738Y-12473976D02*
X9441643Y-12473976D01*
X9422595Y-12483500D01*
X9413071Y-12493024D01*
X9394024Y-12521595D01*
X9384500Y-12559690D01*
X9384500Y-12635881D01*
X9394024Y-12654928D01*
X9403548Y-12664452D01*
X9422595Y-12673976D01*
X9460690Y-12673976D01*
X9479738Y-12664452D01*
X9489262Y-12654928D01*
X9498786Y-12635881D01*
X9498786Y-12588262D01*
X9489262Y-12569214D01*
X9479738Y-12559690D01*
X9460690Y-12550167D01*
X9422595Y-12550167D01*
X9403548Y-12559690D01*
X9394024Y-12569214D01*
X9384500Y-12588262D01*
X9574976Y-12473976D02*
X9574976Y-12512071D01*
X9651167Y-12473976D02*
X9651167Y-12512071D01*
X9946405Y-12750167D02*
X9936881Y-12740643D01*
X9917833Y-12712071D01*
X9908310Y-12693024D01*
X9898786Y-12664452D01*
X9889262Y-12616833D01*
X9889262Y-12578738D01*
X9898786Y-12531119D01*
X9908310Y-12502548D01*
X9917833Y-12483500D01*
X9936881Y-12454928D01*
X9946405Y-12445405D01*
X10127357Y-12673976D02*
X10013071Y-12673976D01*
X10070214Y-12673976D02*
X10070214Y-12473976D01*
X10051167Y-12502548D01*
X10032119Y-12521595D01*
X10013071Y-12531119D01*
X10365452Y-12673976D02*
X10365452Y-12473976D01*
X10451167Y-12673976D02*
X10451167Y-12569214D01*
X10441643Y-12550167D01*
X10422595Y-12540643D01*
X10394024Y-12540643D01*
X10374976Y-12550167D01*
X10365452Y-12559690D01*
X10574976Y-12673976D02*
X10555929Y-12664452D01*
X10546405Y-12654928D01*
X10536881Y-12635881D01*
X10536881Y-12578738D01*
X10546405Y-12559690D01*
X10555929Y-12550167D01*
X10574976Y-12540643D01*
X10603548Y-12540643D01*
X10622595Y-12550167D01*
X10632119Y-12559690D01*
X10641643Y-12578738D01*
X10641643Y-12635881D01*
X10632119Y-12654928D01*
X10622595Y-12664452D01*
X10603548Y-12673976D01*
X10574976Y-12673976D01*
X10755929Y-12673976D02*
X10736881Y-12664452D01*
X10727357Y-12645405D01*
X10727357Y-12473976D01*
X10908310Y-12664452D02*
X10889262Y-12673976D01*
X10851167Y-12673976D01*
X10832119Y-12664452D01*
X10822595Y-12645405D01*
X10822595Y-12569214D01*
X10832119Y-12550167D01*
X10851167Y-12540643D01*
X10889262Y-12540643D01*
X10908310Y-12550167D01*
X10917833Y-12569214D01*
X10917833Y-12588262D01*
X10822595Y-12607309D01*
X10984500Y-12750167D02*
X10994024Y-12740643D01*
X11013071Y-12712071D01*
X11022595Y-12693024D01*
X11032119Y-12664452D01*
X11041643Y-12616833D01*
X11041643Y-12578738D01*
X11032119Y-12531119D01*
X11022595Y-12502548D01*
X11013071Y-12483500D01*
X10994024Y-12454928D01*
X10984500Y-12445405D01*
X11346405Y-12750167D02*
X11336881Y-12740643D01*
X11317833Y-12712071D01*
X11308309Y-12693024D01*
X11298786Y-12664452D01*
X11289262Y-12616833D01*
X11289262Y-12578738D01*
X11298786Y-12531119D01*
X11308309Y-12502548D01*
X11317833Y-12483500D01*
X11336881Y-12454928D01*
X11346405Y-12445405D01*
X11422595Y-12540643D02*
X11422595Y-12673976D01*
X11422595Y-12559690D02*
X11432119Y-12550167D01*
X11451167Y-12540643D01*
X11479738Y-12540643D01*
X11498786Y-12550167D01*
X11508309Y-12569214D01*
X11508309Y-12673976D01*
X11632119Y-12673976D02*
X11613071Y-12664452D01*
X11603548Y-12654928D01*
X11594024Y-12635881D01*
X11594024Y-12578738D01*
X11603548Y-12559690D01*
X11613071Y-12550167D01*
X11632119Y-12540643D01*
X11660690Y-12540643D01*
X11679738Y-12550167D01*
X11689262Y-12559690D01*
X11698786Y-12578738D01*
X11698786Y-12635881D01*
X11689262Y-12654928D01*
X11679738Y-12664452D01*
X11660690Y-12673976D01*
X11632119Y-12673976D01*
X11755928Y-12540643D02*
X11832119Y-12540643D01*
X11784500Y-12473976D02*
X11784500Y-12645405D01*
X11794024Y-12664452D01*
X11813071Y-12673976D01*
X11832119Y-12673976D01*
X12051167Y-12540643D02*
X12051167Y-12740643D01*
X12051167Y-12550167D02*
X12070214Y-12540643D01*
X12108309Y-12540643D01*
X12127357Y-12550167D01*
X12136881Y-12559690D01*
X12146405Y-12578738D01*
X12146405Y-12635881D01*
X12136881Y-12654928D01*
X12127357Y-12664452D01*
X12108309Y-12673976D01*
X12070214Y-12673976D01*
X12051167Y-12664452D01*
X12260690Y-12673976D02*
X12241643Y-12664452D01*
X12232119Y-12645405D01*
X12232119Y-12473976D01*
X12422595Y-12673976D02*
X12422595Y-12569214D01*
X12413071Y-12550167D01*
X12394024Y-12540643D01*
X12355928Y-12540643D01*
X12336881Y-12550167D01*
X12422595Y-12664452D02*
X12403548Y-12673976D01*
X12355928Y-12673976D01*
X12336881Y-12664452D01*
X12327357Y-12645405D01*
X12327357Y-12626357D01*
X12336881Y-12607309D01*
X12355928Y-12597786D01*
X12403548Y-12597786D01*
X12422595Y-12588262D01*
X12489262Y-12540643D02*
X12565452Y-12540643D01*
X12517833Y-12473976D02*
X12517833Y-12645405D01*
X12527357Y-12664452D01*
X12546405Y-12673976D01*
X12565452Y-12673976D01*
X12708309Y-12664452D02*
X12689262Y-12673976D01*
X12651167Y-12673976D01*
X12632119Y-12664452D01*
X12622595Y-12645405D01*
X12622595Y-12569214D01*
X12632119Y-12550167D01*
X12651167Y-12540643D01*
X12689262Y-12540643D01*
X12708309Y-12550167D01*
X12717833Y-12569214D01*
X12717833Y-12588262D01*
X12622595Y-12607309D01*
X12889262Y-12673976D02*
X12889262Y-12473976D01*
X12889262Y-12664452D02*
X12870214Y-12673976D01*
X12832119Y-12673976D01*
X12813071Y-12664452D01*
X12803548Y-12654928D01*
X12794024Y-12635881D01*
X12794024Y-12578738D01*
X12803548Y-12559690D01*
X12813071Y-12550167D01*
X12832119Y-12540643D01*
X12870214Y-12540643D01*
X12889262Y-12550167D01*
X12965452Y-12750167D02*
X12974976Y-12740643D01*
X12994024Y-12712071D01*
X13003548Y-12693024D01*
X13013071Y-12664452D01*
X13022595Y-12616833D01*
X13022595Y-12578738D01*
X13013071Y-12531119D01*
X13003548Y-12502548D01*
X12994024Y-12483500D01*
X12974976Y-12454928D01*
X12965452Y-12445405D01*
M02*
