G04 #@! TF.GenerationSoftware,KiCad,Pcbnew,(6.0.11)*
G04 #@! TF.CreationDate,2023-03-16T10:59:56+01:00*
G04 #@! TF.ProjectId,Horloge,486f726c-6f67-4652-9e6b-696361645f70,rev?*
G04 #@! TF.SameCoordinates,Original*
G04 #@! TF.FileFunction,Paste,Top*
G04 #@! TF.FilePolarity,Positive*
%FSLAX46Y46*%
G04 Gerber Fmt 4.6, Leading zero omitted, Abs format (unit mm)*
G04 Created by KiCad (PCBNEW (6.0.11)) date 2023-03-16 10:59:56*
%MOMM*%
%LPD*%
G01*
G04 APERTURE LIST*
G04 Aperture macros list*
%AMRoundRect*
0 Rectangle with rounded corners*
0 $1 Rounding radius*
0 $2 $3 $4 $5 $6 $7 $8 $9 X,Y pos of 4 corners*
0 Add a 4 corners polygon primitive as box body*
4,1,4,$2,$3,$4,$5,$6,$7,$8,$9,$2,$3,0*
0 Add four circle primitives for the rounded corners*
1,1,$1+$1,$2,$3*
1,1,$1+$1,$4,$5*
1,1,$1+$1,$6,$7*
1,1,$1+$1,$8,$9*
0 Add four rect primitives between the rounded corners*
20,1,$1+$1,$2,$3,$4,$5,0*
20,1,$1+$1,$4,$5,$6,$7,0*
20,1,$1+$1,$6,$7,$8,$9,0*
20,1,$1+$1,$8,$9,$2,$3,0*%
%AMRotRect*
0 Rectangle, with rotation*
0 The origin of the aperture is its center*
0 $1 length*
0 $2 width*
0 $3 Rotation angle, in degrees counterclockwise*
0 Add horizontal line*
21,1,$1,$2,0,0,$3*%
G04 Aperture macros list end*
%ADD10R,0.700000X0.700000*%
%ADD11RotRect,0.700000X0.700000X120.000000*%
%ADD12RotRect,0.700000X0.700000X150.000000*%
%ADD13RoundRect,0.250000X0.475000X-0.337500X0.475000X0.337500X-0.475000X0.337500X-0.475000X-0.337500X0*%
%ADD14RoundRect,0.250000X-0.350000X-0.450000X0.350000X-0.450000X0.350000X0.450000X-0.350000X0.450000X0*%
%ADD15RotRect,0.700000X0.700000X300.000000*%
%ADD16R,1.900000X1.150000*%
%ADD17RotRect,0.700000X0.700000X240.000000*%
%ADD18RotRect,0.700000X0.700000X330.000000*%
%ADD19RotRect,0.700000X0.700000X30.000000*%
%ADD20RoundRect,0.150000X-0.150000X0.587500X-0.150000X-0.587500X0.150000X-0.587500X0.150000X0.587500X0*%
%ADD21RotRect,0.700000X0.700000X210.000000*%
%ADD22RoundRect,0.250000X-0.475000X0.337500X-0.475000X-0.337500X0.475000X-0.337500X0.475000X0.337500X0*%
%ADD23RotRect,0.700000X0.700000X60.000000*%
%ADD24RoundRect,0.090000X-0.895000X-0.210000X0.895000X-0.210000X0.895000X0.210000X-0.895000X0.210000X0*%
G04 APERTURE END LIST*
D10*
X66870001Y-90524022D03*
X65770001Y-90524022D03*
X65770001Y-92354022D03*
X66870001Y-92354022D03*
D11*
X95487708Y-85749069D03*
X96440336Y-85199069D03*
X95525336Y-83614243D03*
X94572708Y-84164243D03*
D12*
X93096671Y-77223718D03*
X93646671Y-76271090D03*
X92061845Y-75356090D03*
X91511845Y-76308718D03*
D13*
X75565000Y-91842500D03*
X75565000Y-89767500D03*
D14*
X83090000Y-95905000D03*
X85090000Y-95905000D03*
D12*
X91083660Y-80680305D03*
X91633660Y-79727677D03*
X90048834Y-78812677D03*
X89498834Y-79765305D03*
D10*
X84735000Y-74490000D03*
X84735000Y-73390000D03*
X82905000Y-73390000D03*
X82905000Y-74490000D03*
D15*
X72146059Y-97120139D03*
X71193431Y-97670139D03*
X72108431Y-99254965D03*
X73061059Y-98704965D03*
D16*
X78105000Y-91995000D03*
X78105000Y-94695000D03*
D10*
X82905000Y-104390000D03*
X82905000Y-105490000D03*
X84735000Y-105490000D03*
X84735000Y-104390000D03*
D17*
X69603967Y-82162899D03*
X68651339Y-81612899D03*
X67736339Y-83197725D03*
X68688967Y-83747725D03*
D10*
X82905000Y-108389999D03*
X82905000Y-109489999D03*
X84735000Y-109489999D03*
X84735000Y-108389999D03*
D18*
X74543582Y-105656427D03*
X73993582Y-106609055D03*
X75578408Y-107524055D03*
X76128408Y-106571427D03*
D19*
X89501510Y-103113151D03*
X90051510Y-104065779D03*
X91636336Y-103150779D03*
X91086336Y-102198151D03*
D20*
X85040000Y-98122500D03*
X83140000Y-98122500D03*
X84090000Y-99997500D03*
D10*
X96770000Y-92355000D03*
X97870000Y-92355000D03*
X97870000Y-90525000D03*
X96770000Y-90525000D03*
D21*
X76149264Y-76296533D03*
X75599264Y-75343905D03*
X74014438Y-76258905D03*
X74564438Y-77211533D03*
D10*
X100769997Y-92365801D03*
X101869997Y-92365801D03*
X101869997Y-90535801D03*
X100769997Y-90535801D03*
X70870000Y-90525000D03*
X69770000Y-90525000D03*
X69770000Y-92355000D03*
X70870000Y-92355000D03*
D18*
X76545640Y-102193514D03*
X75995640Y-103146142D03*
X77580466Y-104061142D03*
X78130466Y-103108514D03*
D10*
X84735000Y-78490000D03*
X84735000Y-77390000D03*
X82905000Y-77390000D03*
X82905000Y-78490000D03*
D17*
X73066789Y-84165113D03*
X72114161Y-83615113D03*
X71199161Y-85199939D03*
X72151789Y-85749939D03*
D22*
X75565000Y-94847500D03*
X75565000Y-96922500D03*
D11*
X98954431Y-83753604D03*
X99907059Y-83203604D03*
X98992059Y-81618778D03*
X98039431Y-82168778D03*
D15*
X68681539Y-99119414D03*
X67728911Y-99669414D03*
X68643911Y-101254240D03*
X69596539Y-100704240D03*
D23*
X94578229Y-98706201D03*
X95530857Y-99256201D03*
X96445857Y-97671375D03*
X95493229Y-97121375D03*
D24*
X81345000Y-85725000D03*
X81345000Y-86995000D03*
X81345000Y-88265000D03*
X81345000Y-89535000D03*
X81345000Y-90805000D03*
X81345000Y-92075000D03*
X81345000Y-93345000D03*
X86295000Y-93345000D03*
X86295000Y-92075000D03*
X86295000Y-90805000D03*
X86295000Y-89535000D03*
X86295000Y-88265000D03*
X86295000Y-86995000D03*
X86295000Y-85725000D03*
D19*
X91501190Y-106577436D03*
X92051190Y-107530064D03*
X93636016Y-106615064D03*
X93086016Y-105662436D03*
D21*
X78146555Y-79762197D03*
X77596555Y-78809569D03*
X76011729Y-79724569D03*
X76561729Y-80677197D03*
D23*
X98039702Y-100710750D03*
X98992330Y-101260750D03*
X99907330Y-99675924D03*
X98954702Y-99125924D03*
M02*
