%TF.GenerationSoftware,KiCad,Pcbnew,(6.0.11)*%
%TF.CreationDate,2023-03-09T12:19:08+01:00*%
%TF.ProjectId,Horloge,486f726c-6f67-4652-9e6b-696361645f70,rev?*%
%TF.SameCoordinates,Original*%
%TF.FileFunction,Legend,Top*%
%TF.FilePolarity,Positive*%
%FSLAX46Y46*%
G04 Gerber Fmt 4.6, Leading zero omitted, Abs format (unit mm)*
G04 Created by KiCad (PCBNEW (6.0.11)) date 2023-03-09 12:19:08*
%MOMM*%
%LPD*%
G01*
G04 APERTURE LIST*
G04 Aperture macros list*
%AMRoundRect*
0 Rectangle with rounded corners*
0 $1 Rounding radius*
0 $2 $3 $4 $5 $6 $7 $8 $9 X,Y pos of 4 corners*
0 Add a 4 corners polygon primitive as box body*
4,1,4,$2,$3,$4,$5,$6,$7,$8,$9,$2,$3,0*
0 Add four circle primitives for the rounded corners*
1,1,$1+$1,$2,$3*
1,1,$1+$1,$4,$5*
1,1,$1+$1,$6,$7*
1,1,$1+$1,$8,$9*
0 Add four rect primitives between the rounded corners*
20,1,$1+$1,$2,$3,$4,$5,0*
20,1,$1+$1,$4,$5,$6,$7,0*
20,1,$1+$1,$6,$7,$8,$9,0*
20,1,$1+$1,$8,$9,$2,$3,0*%
%AMRotRect*
0 Rectangle, with rotation*
0 The origin of the aperture is its center*
0 $1 length*
0 $2 width*
0 $3 Rotation angle, in degrees counterclockwise*
0 Add horizontal line*
21,1,$1,$2,0,0,$3*%
G04 Aperture macros list end*
%ADD10C,0.150000*%
%ADD11C,0.120000*%
%ADD12C,0.200000*%
%ADD13C,0.127000*%
%ADD14C,0.300000*%
%ADD15R,0.700000X0.700000*%
%ADD16RotRect,0.700000X0.700000X120.000000*%
%ADD17RotRect,0.700000X0.700000X150.000000*%
%ADD18RoundRect,0.250000X0.475000X-0.337500X0.475000X0.337500X-0.475000X0.337500X-0.475000X-0.337500X0*%
%ADD19R,1.500000X1.500000*%
%ADD20RoundRect,0.250000X-0.350000X-0.450000X0.350000X-0.450000X0.350000X0.450000X-0.350000X0.450000X0*%
%ADD21R,0.850000X0.850000*%
%ADD22O,0.850000X0.850000*%
%ADD23RotRect,0.700000X0.700000X300.000000*%
%ADD24R,1.900000X1.150000*%
%ADD25RotRect,0.700000X0.700000X240.000000*%
%ADD26RotRect,0.700000X0.700000X330.000000*%
%ADD27RotRect,0.700000X0.700000X30.000000*%
%ADD28RoundRect,0.150000X-0.150000X0.587500X-0.150000X-0.587500X0.150000X-0.587500X0.150000X0.587500X0*%
%ADD29RotRect,0.700000X0.700000X210.000000*%
%ADD30RoundRect,0.250000X-0.475000X0.337500X-0.475000X-0.337500X0.475000X-0.337500X0.475000X0.337500X0*%
%ADD31RotRect,0.700000X0.700000X60.000000*%
%ADD32RoundRect,0.090000X-0.895000X-0.210000X0.895000X-0.210000X0.895000X0.210000X-0.895000X0.210000X0*%
%ADD33C,0.700000*%
G04 APERTURE END LIST*
D10*
%TO.C,D10*%
X68772381Y-92653307D02*
X67772381Y-92653307D01*
X67772381Y-92415212D01*
X67820001Y-92272355D01*
X67915239Y-92177117D01*
X68010477Y-92129498D01*
X68200953Y-92081879D01*
X68343810Y-92081879D01*
X68534286Y-92129498D01*
X68629524Y-92177117D01*
X68724762Y-92272355D01*
X68772381Y-92415212D01*
X68772381Y-92653307D01*
X68772381Y-91129498D02*
X68772381Y-91700926D01*
X68772381Y-91415212D02*
X67772381Y-91415212D01*
X67915239Y-91510450D01*
X68010477Y-91605688D01*
X68058096Y-91700926D01*
X67772381Y-90510450D02*
X67772381Y-90415212D01*
X67820001Y-90319974D01*
X67867620Y-90272355D01*
X67962858Y-90224736D01*
X68153334Y-90177117D01*
X68391429Y-90177117D01*
X68581905Y-90224736D01*
X68677143Y-90272355D01*
X68724762Y-90319974D01*
X68772381Y-90415212D01*
X68772381Y-90510450D01*
X68724762Y-90605688D01*
X68677143Y-90653307D01*
X68581905Y-90700926D01*
X68391429Y-90748545D01*
X68153334Y-90748545D01*
X67962858Y-90700926D01*
X67867620Y-90653307D01*
X67820001Y-90605688D01*
X67772381Y-90510450D01*
%TO.C,D15*%
X92775554Y-84856244D02*
X93641580Y-84356244D01*
X93760627Y-84562440D01*
X93790817Y-84709968D01*
X93755957Y-84840065D01*
X93697288Y-84928924D01*
X93556140Y-85065401D01*
X93432422Y-85136830D01*
X93243656Y-85190828D01*
X93137367Y-85197208D01*
X93007270Y-85162349D01*
X92894602Y-85062440D01*
X92775554Y-84856244D01*
X93537459Y-86175901D02*
X93251745Y-85681030D01*
X93394602Y-85928466D02*
X94260627Y-85428466D01*
X94089290Y-85417416D01*
X93959193Y-85382556D01*
X93870334Y-85323887D01*
X94855865Y-86459448D02*
X94617770Y-86047055D01*
X94181568Y-86243911D01*
X94246616Y-86261341D01*
X94335475Y-86320010D01*
X94454522Y-86526207D01*
X94460902Y-86632495D01*
X94443472Y-86697543D01*
X94384803Y-86786402D01*
X94178607Y-86905449D01*
X94072319Y-86911829D01*
X94007270Y-86894399D01*
X93918411Y-86835730D01*
X93799364Y-86629534D01*
X93792984Y-86523246D01*
X93810414Y-86458197D01*
%TO.C,D2*%
X90713858Y-78044680D02*
X91213858Y-77178655D01*
X91420054Y-77297702D01*
X91519963Y-77410370D01*
X91554822Y-77540468D01*
X91548443Y-77646756D01*
X91494444Y-77835523D01*
X91423015Y-77959241D01*
X91286538Y-78100389D01*
X91197679Y-78159058D01*
X91067582Y-78193917D01*
X90920054Y-78163728D01*
X90713858Y-78044680D01*
X91991025Y-77737324D02*
X92056074Y-77719894D01*
X92162362Y-77726274D01*
X92368558Y-77845322D01*
X92427227Y-77934180D01*
X92444657Y-77999229D01*
X92438277Y-78105517D01*
X92390658Y-78187995D01*
X92277991Y-78287904D01*
X91497405Y-78497061D01*
X92033516Y-78806585D01*
%TO.C,C2*%
X74242142Y-90971666D02*
X74289761Y-91019285D01*
X74337380Y-91162142D01*
X74337380Y-91257380D01*
X74289761Y-91400238D01*
X74194523Y-91495476D01*
X74099285Y-91543095D01*
X73908809Y-91590714D01*
X73765952Y-91590714D01*
X73575476Y-91543095D01*
X73480238Y-91495476D01*
X73385000Y-91400238D01*
X73337380Y-91257380D01*
X73337380Y-91162142D01*
X73385000Y-91019285D01*
X73432619Y-90971666D01*
X73432619Y-90590714D02*
X73385000Y-90543095D01*
X73337380Y-90447857D01*
X73337380Y-90209761D01*
X73385000Y-90114523D01*
X73432619Y-90066904D01*
X73527857Y-90019285D01*
X73623095Y-90019285D01*
X73765952Y-90066904D01*
X74337380Y-90638333D01*
X74337380Y-90019285D01*
%TO.C,TP8*%
X79383095Y-100417380D02*
X79954523Y-100417380D01*
X79668809Y-101417380D02*
X79668809Y-100417380D01*
X80287857Y-101417380D02*
X80287857Y-100417380D01*
X80668809Y-100417380D01*
X80764047Y-100465000D01*
X80811666Y-100512619D01*
X80859285Y-100607857D01*
X80859285Y-100750714D01*
X80811666Y-100845952D01*
X80764047Y-100893571D01*
X80668809Y-100941190D01*
X80287857Y-100941190D01*
X81430714Y-100845952D02*
X81335476Y-100798333D01*
X81287857Y-100750714D01*
X81240238Y-100655476D01*
X81240238Y-100607857D01*
X81287857Y-100512619D01*
X81335476Y-100465000D01*
X81430714Y-100417380D01*
X81621190Y-100417380D01*
X81716428Y-100465000D01*
X81764047Y-100512619D01*
X81811666Y-100607857D01*
X81811666Y-100655476D01*
X81764047Y-100750714D01*
X81716428Y-100798333D01*
X81621190Y-100845952D01*
X81430714Y-100845952D01*
X81335476Y-100893571D01*
X81287857Y-100941190D01*
X81240238Y-101036428D01*
X81240238Y-101226904D01*
X81287857Y-101322142D01*
X81335476Y-101369761D01*
X81430714Y-101417380D01*
X81621190Y-101417380D01*
X81716428Y-101369761D01*
X81764047Y-101322142D01*
X81811666Y-101226904D01*
X81811666Y-101036428D01*
X81764047Y-100941190D01*
X81716428Y-100893571D01*
X81621190Y-100845952D01*
%TO.C,R4*%
X86828333Y-96972380D02*
X86495000Y-96496190D01*
X86256904Y-96972380D02*
X86256904Y-95972380D01*
X86637857Y-95972380D01*
X86733095Y-96020000D01*
X86780714Y-96067619D01*
X86828333Y-96162857D01*
X86828333Y-96305714D01*
X86780714Y-96400952D01*
X86733095Y-96448571D01*
X86637857Y-96496190D01*
X86256904Y-96496190D01*
X87685476Y-96305714D02*
X87685476Y-96972380D01*
X87447380Y-95924761D02*
X87209285Y-96639047D01*
X87828333Y-96639047D01*
%TO.C,D14*%
X88288454Y-81263172D02*
X88788454Y-80397147D01*
X88994650Y-80516194D01*
X89094559Y-80628862D01*
X89129418Y-80758960D01*
X89123038Y-80865248D01*
X89069040Y-81054015D01*
X88997611Y-81177733D01*
X88861134Y-81318880D01*
X88772275Y-81377549D01*
X88642178Y-81412409D01*
X88494650Y-81382220D01*
X88288454Y-81263172D01*
X89608112Y-82025077D02*
X89113240Y-81739363D01*
X89360676Y-81882220D02*
X89860676Y-81016194D01*
X89706768Y-81092293D01*
X89576671Y-81127153D01*
X89470383Y-81120773D01*
X90683752Y-81876298D02*
X90350419Y-82453648D01*
X90668032Y-81427336D02*
X90104693Y-81926878D01*
X90640804Y-82236402D01*
%TO.C,J1*%
X80712380Y-82883333D02*
X81426666Y-82883333D01*
X81569523Y-82930952D01*
X81664761Y-83026190D01*
X81712380Y-83169047D01*
X81712380Y-83264285D01*
X81712380Y-81883333D02*
X81712380Y-82454761D01*
X81712380Y-82169047D02*
X80712380Y-82169047D01*
X80855238Y-82264285D01*
X80950476Y-82359523D01*
X80998095Y-82454761D01*
%TO.C,D1*%
X83081904Y-76392380D02*
X83081904Y-75392380D01*
X83320000Y-75392380D01*
X83462857Y-75440000D01*
X83558095Y-75535238D01*
X83605714Y-75630476D01*
X83653333Y-75820952D01*
X83653333Y-75963809D01*
X83605714Y-76154285D01*
X83558095Y-76249523D01*
X83462857Y-76344761D01*
X83320000Y-76392380D01*
X83081904Y-76392380D01*
X84605714Y-76392380D02*
X84034285Y-76392380D01*
X84320000Y-76392380D02*
X84320000Y-75392380D01*
X84224761Y-75535238D01*
X84129523Y-75630476D01*
X84034285Y-75678095D01*
%TO.C,D21*%
X74858212Y-98012963D02*
X73992186Y-98512963D01*
X73873139Y-98306767D01*
X73842949Y-98159239D01*
X73877809Y-98029142D01*
X73936478Y-97940283D01*
X74077626Y-97803806D01*
X74201344Y-97732377D01*
X74390110Y-97678379D01*
X74496399Y-97671999D01*
X74626496Y-97706858D01*
X74739164Y-97806767D01*
X74858212Y-98012963D01*
X73598474Y-97640558D02*
X73533426Y-97623128D01*
X73444567Y-97564459D01*
X73325520Y-97358263D01*
X73319140Y-97251975D01*
X73336570Y-97186926D01*
X73395239Y-97098067D01*
X73477717Y-97050448D01*
X73625245Y-97020259D01*
X74405831Y-97229417D01*
X74096307Y-96693306D01*
X73620117Y-95868519D02*
X73905831Y-96363391D01*
X73762974Y-96115955D02*
X72896948Y-96615955D01*
X73068285Y-96627005D01*
X73198383Y-96661865D01*
X73287241Y-96720534D01*
%TO.C,Y1*%
X78716187Y-96996246D02*
X79192434Y-96996246D01*
X78192316Y-97329619D02*
X78716187Y-96996246D01*
X78192316Y-96662874D01*
X79192434Y-95805630D02*
X79192434Y-96377126D01*
X79192434Y-96091378D02*
X78192316Y-96091378D01*
X78335190Y-96186627D01*
X78430439Y-96281876D01*
X78478064Y-96377126D01*
%TO.C,D19*%
X85034285Y-102487619D02*
X85034285Y-103487619D01*
X84796190Y-103487619D01*
X84653333Y-103440000D01*
X84558095Y-103344761D01*
X84510476Y-103249523D01*
X84462857Y-103059047D01*
X84462857Y-102916190D01*
X84510476Y-102725714D01*
X84558095Y-102630476D01*
X84653333Y-102535238D01*
X84796190Y-102487619D01*
X85034285Y-102487619D01*
X83510476Y-102487619D02*
X84081904Y-102487619D01*
X83796190Y-102487619D02*
X83796190Y-103487619D01*
X83891428Y-103344761D01*
X83986666Y-103249523D01*
X84081904Y-103201904D01*
X83034285Y-102487619D02*
X82843809Y-102487619D01*
X82748571Y-102535238D01*
X82700952Y-102582857D01*
X82605714Y-102725714D01*
X82558095Y-102916190D01*
X82558095Y-103297142D01*
X82605714Y-103392380D01*
X82653333Y-103440000D01*
X82748571Y-103487619D01*
X82939047Y-103487619D01*
X83034285Y-103440000D01*
X83081904Y-103392380D01*
X83129523Y-103297142D01*
X83129523Y-103059047D01*
X83081904Y-102963809D01*
X83034285Y-102916190D01*
X82939047Y-102868571D01*
X82748571Y-102868571D01*
X82653333Y-102916190D01*
X82605714Y-102963809D01*
X82558095Y-103059047D01*
%TO.C,D11*%
X70186834Y-84958104D02*
X69320809Y-84458104D01*
X69439856Y-84251908D01*
X69552524Y-84151999D01*
X69682622Y-84117140D01*
X69788910Y-84123520D01*
X69977677Y-84177518D01*
X70101395Y-84248947D01*
X70242542Y-84385424D01*
X70301211Y-84474283D01*
X70336071Y-84604380D01*
X70305882Y-84751908D01*
X70186834Y-84958104D01*
X70948739Y-83638446D02*
X70663025Y-84133318D01*
X70805882Y-83885882D02*
X69939856Y-83385882D01*
X70015955Y-83539790D01*
X70050815Y-83669887D01*
X70044435Y-83776175D01*
X71424929Y-82813660D02*
X71139215Y-83308532D01*
X71282072Y-83061096D02*
X70416047Y-82561096D01*
X70492146Y-82715003D01*
X70527005Y-82845101D01*
X70520625Y-82951389D01*
%TO.C,D7*%
X84558095Y-106487618D02*
X84558095Y-107487618D01*
X84320000Y-107487618D01*
X84177142Y-107439999D01*
X84081904Y-107344760D01*
X84034285Y-107249522D01*
X83986666Y-107059046D01*
X83986666Y-106916189D01*
X84034285Y-106725713D01*
X84081904Y-106630475D01*
X84177142Y-106535237D01*
X84320000Y-106487618D01*
X84558095Y-106487618D01*
X83653333Y-107487618D02*
X82986666Y-107487618D01*
X83415238Y-106487618D01*
%TO.C,D8*%
X76926394Y-104835464D02*
X76426394Y-105701489D01*
X76220198Y-105582442D01*
X76120289Y-105469774D01*
X76085430Y-105339676D01*
X76091809Y-105233388D01*
X76145808Y-105044621D01*
X76217237Y-104920903D01*
X76353714Y-104779755D01*
X76442573Y-104721086D01*
X76572670Y-104686227D01*
X76720198Y-104716416D01*
X76926394Y-104835464D01*
X75650937Y-104758907D02*
X75709606Y-104847765D01*
X75727035Y-104912814D01*
X75720656Y-105019102D01*
X75696846Y-105060341D01*
X75607988Y-105119011D01*
X75542939Y-105136440D01*
X75436651Y-105130061D01*
X75271694Y-105034822D01*
X75213025Y-104945964D01*
X75195595Y-104880915D01*
X75201975Y-104774627D01*
X75225784Y-104733388D01*
X75314642Y-104674719D01*
X75379691Y-104657289D01*
X75485979Y-104663669D01*
X75650937Y-104758907D01*
X75757225Y-104765287D01*
X75822274Y-104747857D01*
X75911132Y-104689188D01*
X76006370Y-104524230D01*
X76012750Y-104417942D01*
X75995320Y-104352894D01*
X75936651Y-104264035D01*
X75771694Y-104168797D01*
X75665406Y-104162417D01*
X75600357Y-104179847D01*
X75511498Y-104238516D01*
X75416260Y-104403473D01*
X75409881Y-104509762D01*
X75427310Y-104574810D01*
X75485979Y-104663669D01*
%TO.C,D18*%
X90394334Y-100400997D02*
X90894334Y-101267023D01*
X90688138Y-101386070D01*
X90540610Y-101416260D01*
X90410513Y-101381400D01*
X90321654Y-101322731D01*
X90185177Y-101181583D01*
X90113748Y-101057865D01*
X90059750Y-100869099D01*
X90053370Y-100762810D01*
X90088229Y-100632713D01*
X90188138Y-100520045D01*
X90394334Y-100400997D01*
X89074677Y-101162902D02*
X89569548Y-100877188D01*
X89322112Y-101020045D02*
X89822112Y-101886070D01*
X89833162Y-101714733D01*
X89868022Y-101584636D01*
X89926691Y-101495777D01*
X88865519Y-101943488D02*
X88971807Y-101937108D01*
X89036856Y-101954538D01*
X89125714Y-102013207D01*
X89149524Y-102054446D01*
X89155904Y-102160735D01*
X89138474Y-102225783D01*
X89079805Y-102314642D01*
X88914848Y-102409880D01*
X88808560Y-102416260D01*
X88743511Y-102398830D01*
X88654652Y-102340161D01*
X88630843Y-102298921D01*
X88624463Y-102192633D01*
X88641893Y-102127584D01*
X88700562Y-102038726D01*
X88865519Y-101943488D01*
X88924188Y-101854630D01*
X88941618Y-101789581D01*
X88935238Y-101683293D01*
X88840000Y-101518335D01*
X88751142Y-101459666D01*
X88686093Y-101442237D01*
X88579805Y-101448616D01*
X88414848Y-101543854D01*
X88356179Y-101632713D01*
X88338749Y-101697762D01*
X88345129Y-101804050D01*
X88440367Y-101969007D01*
X88529225Y-102027676D01*
X88594274Y-102045106D01*
X88700562Y-102038726D01*
%TO.C,Q1*%
X87037619Y-99155238D02*
X86990000Y-99250476D01*
X86894761Y-99345714D01*
X86751904Y-99488571D01*
X86704285Y-99583809D01*
X86704285Y-99679047D01*
X86942380Y-99631428D02*
X86894761Y-99726666D01*
X86799523Y-99821904D01*
X86609047Y-99869523D01*
X86275714Y-99869523D01*
X86085238Y-99821904D01*
X85990000Y-99726666D01*
X85942380Y-99631428D01*
X85942380Y-99440952D01*
X85990000Y-99345714D01*
X86085238Y-99250476D01*
X86275714Y-99202857D01*
X86609047Y-99202857D01*
X86799523Y-99250476D01*
X86894761Y-99345714D01*
X86942380Y-99440952D01*
X86942380Y-99631428D01*
X86942380Y-98250476D02*
X86942380Y-98821904D01*
X86942380Y-98536190D02*
X85942380Y-98536190D01*
X86085238Y-98631428D01*
X86180476Y-98726666D01*
X86228095Y-98821904D01*
%TO.C,D16*%
X94867619Y-90225714D02*
X95867619Y-90225714D01*
X95867619Y-90463809D01*
X95820000Y-90606666D01*
X95724761Y-90701904D01*
X95629523Y-90749523D01*
X95439047Y-90797142D01*
X95296190Y-90797142D01*
X95105714Y-90749523D01*
X95010476Y-90701904D01*
X94915238Y-90606666D01*
X94867619Y-90463809D01*
X94867619Y-90225714D01*
X94867619Y-91749523D02*
X94867619Y-91178095D01*
X94867619Y-91463809D02*
X95867619Y-91463809D01*
X95724761Y-91368571D01*
X95629523Y-91273333D01*
X95581904Y-91178095D01*
X95867619Y-92606666D02*
X95867619Y-92416190D01*
X95820000Y-92320952D01*
X95772380Y-92273333D01*
X95629523Y-92178095D01*
X95439047Y-92130476D01*
X95058095Y-92130476D01*
X94962857Y-92178095D01*
X94915238Y-92225714D01*
X94867619Y-92320952D01*
X94867619Y-92511428D01*
X94915238Y-92606666D01*
X94962857Y-92654285D01*
X95058095Y-92701904D01*
X95296190Y-92701904D01*
X95391428Y-92654285D01*
X95439047Y-92606666D01*
X95486666Y-92511428D01*
X95486666Y-92320952D01*
X95439047Y-92225714D01*
X95391428Y-92178095D01*
X95296190Y-92130476D01*
%TO.C,D12*%
X75256439Y-79008686D02*
X74756439Y-78142660D01*
X74962635Y-78023613D01*
X75110163Y-77993423D01*
X75240260Y-78028283D01*
X75329119Y-78086952D01*
X75465596Y-78228100D01*
X75537025Y-78351818D01*
X75591023Y-78540584D01*
X75597403Y-78646873D01*
X75562544Y-78776970D01*
X75462635Y-78889638D01*
X75256439Y-79008686D01*
X76576096Y-78246781D02*
X76081225Y-78532495D01*
X76328661Y-78389638D02*
X75828661Y-77523613D01*
X75817611Y-77694950D01*
X75782751Y-77825047D01*
X75724082Y-77913906D01*
X76453630Y-77272758D02*
X76471060Y-77207709D01*
X76529729Y-77118851D01*
X76735925Y-76999803D01*
X76842213Y-76993423D01*
X76907262Y-77010853D01*
X76996121Y-77069522D01*
X77043740Y-77152001D01*
X77073929Y-77299528D01*
X76864772Y-78080114D01*
X77400883Y-77770591D01*
%TO.C,D4*%
X98867616Y-90712705D02*
X99867616Y-90712705D01*
X99867616Y-90950801D01*
X99819997Y-91093658D01*
X99724758Y-91188896D01*
X99629520Y-91236515D01*
X99439044Y-91284134D01*
X99296187Y-91284134D01*
X99105711Y-91236515D01*
X99010473Y-91188896D01*
X98915235Y-91093658D01*
X98867616Y-90950801D01*
X98867616Y-90712705D01*
X99534282Y-92141277D02*
X98867616Y-92141277D01*
X99915235Y-91903181D02*
X99200949Y-91665086D01*
X99200949Y-92284134D01*
%TO.C,D22*%
X72772380Y-92654285D02*
X71772380Y-92654285D01*
X71772380Y-92416190D01*
X71820000Y-92273333D01*
X71915238Y-92178095D01*
X72010476Y-92130476D01*
X72200952Y-92082857D01*
X72343809Y-92082857D01*
X72534285Y-92130476D01*
X72629523Y-92178095D01*
X72724761Y-92273333D01*
X72772380Y-92416190D01*
X72772380Y-92654285D01*
X71867619Y-91701904D02*
X71820000Y-91654285D01*
X71772380Y-91559047D01*
X71772380Y-91320952D01*
X71820000Y-91225714D01*
X71867619Y-91178095D01*
X71962857Y-91130476D01*
X72058095Y-91130476D01*
X72200952Y-91178095D01*
X72772380Y-91749523D01*
X72772380Y-91130476D01*
X71867619Y-90749523D02*
X71820000Y-90701904D01*
X71772380Y-90606666D01*
X71772380Y-90368571D01*
X71820000Y-90273333D01*
X71867619Y-90225714D01*
X71962857Y-90178095D01*
X72058095Y-90178095D01*
X72200952Y-90225714D01*
X72772380Y-90797142D01*
X72772380Y-90178095D01*
%TO.C,D20*%
X79340845Y-101610646D02*
X78840845Y-102476671D01*
X78634649Y-102357624D01*
X78534740Y-102244956D01*
X78499881Y-102114858D01*
X78506261Y-102008570D01*
X78560259Y-101819803D01*
X78631688Y-101696085D01*
X78768165Y-101554938D01*
X78857024Y-101496269D01*
X78987121Y-101461409D01*
X79134649Y-101491598D01*
X79340845Y-101610646D01*
X78063678Y-101918002D02*
X77998629Y-101935432D01*
X77892341Y-101929052D01*
X77686145Y-101810005D01*
X77627476Y-101721146D01*
X77610046Y-101656098D01*
X77616426Y-101549809D01*
X77664045Y-101467331D01*
X77776713Y-101367422D01*
X78557298Y-101158265D01*
X78021187Y-100848741D01*
X76985077Y-101405243D02*
X76902598Y-101357624D01*
X76843929Y-101268765D01*
X76826499Y-101203717D01*
X76832879Y-101097428D01*
X76886878Y-100908662D01*
X77005925Y-100702465D01*
X77142403Y-100561317D01*
X77231261Y-100502648D01*
X77296310Y-100485219D01*
X77402598Y-100491598D01*
X77485077Y-100539217D01*
X77543746Y-100628076D01*
X77561175Y-100693125D01*
X77554796Y-100799413D01*
X77500797Y-100988179D01*
X77381749Y-101194376D01*
X77245272Y-101335524D01*
X77156413Y-101394193D01*
X77091365Y-101411623D01*
X76985077Y-101405243D01*
%TO.C,D13*%
X82605714Y-80392380D02*
X82605714Y-79392380D01*
X82843809Y-79392380D01*
X82986666Y-79440000D01*
X83081904Y-79535238D01*
X83129523Y-79630476D01*
X83177142Y-79820952D01*
X83177142Y-79963809D01*
X83129523Y-80154285D01*
X83081904Y-80249523D01*
X82986666Y-80344761D01*
X82843809Y-80392380D01*
X82605714Y-80392380D01*
X84129523Y-80392380D02*
X83558095Y-80392380D01*
X83843809Y-80392380D02*
X83843809Y-79392380D01*
X83748571Y-79535238D01*
X83653333Y-79630476D01*
X83558095Y-79678095D01*
X84462857Y-79392380D02*
X85081904Y-79392380D01*
X84748571Y-79773333D01*
X84891428Y-79773333D01*
X84986666Y-79820952D01*
X85034285Y-79868571D01*
X85081904Y-79963809D01*
X85081904Y-80201904D01*
X85034285Y-80297142D01*
X84986666Y-80344761D01*
X84891428Y-80392380D01*
X84605714Y-80392380D01*
X84510476Y-80344761D01*
X84462857Y-80297142D01*
%TO.C,TP2*%
X88273095Y-84799380D02*
X88844523Y-84799380D01*
X88558809Y-85799380D02*
X88558809Y-84799380D01*
X89177857Y-85799380D02*
X89177857Y-84799380D01*
X89558809Y-84799380D01*
X89654047Y-84847000D01*
X89701666Y-84894619D01*
X89749285Y-84989857D01*
X89749285Y-85132714D01*
X89701666Y-85227952D01*
X89654047Y-85275571D01*
X89558809Y-85323190D01*
X89177857Y-85323190D01*
X90130238Y-84894619D02*
X90177857Y-84847000D01*
X90273095Y-84799380D01*
X90511190Y-84799380D01*
X90606428Y-84847000D01*
X90654047Y-84894619D01*
X90701666Y-84989857D01*
X90701666Y-85085095D01*
X90654047Y-85227952D01*
X90082619Y-85799380D01*
X90701666Y-85799380D01*
%TO.C,D23*%
X73649656Y-86960318D02*
X72783631Y-86460318D01*
X72902678Y-86254122D01*
X73015346Y-86154213D01*
X73145444Y-86119354D01*
X73251732Y-86125734D01*
X73440499Y-86179732D01*
X73564217Y-86251161D01*
X73705364Y-86387638D01*
X73764033Y-86476497D01*
X73798893Y-86606594D01*
X73768704Y-86754122D01*
X73649656Y-86960318D01*
X73342300Y-85683151D02*
X73324870Y-85618102D01*
X73331250Y-85511814D01*
X73450297Y-85305618D01*
X73539156Y-85246949D01*
X73604204Y-85229519D01*
X73710493Y-85235899D01*
X73792971Y-85283518D01*
X73892880Y-85396186D01*
X74102037Y-86176771D01*
X74411561Y-85640660D01*
X73712202Y-84851985D02*
X74021726Y-84315874D01*
X74184974Y-84795026D01*
X74256402Y-84671308D01*
X74345261Y-84612639D01*
X74410309Y-84595209D01*
X74516598Y-84601589D01*
X74722794Y-84720636D01*
X74781463Y-84809495D01*
X74798893Y-84874543D01*
X74792513Y-84980832D01*
X74649656Y-85228267D01*
X74560798Y-85286937D01*
X74495749Y-85304366D01*
%TO.C,C3*%
X77602142Y-96686666D02*
X77649761Y-96734285D01*
X77697380Y-96877142D01*
X77697380Y-96972380D01*
X77649761Y-97115238D01*
X77554523Y-97210476D01*
X77459285Y-97258095D01*
X77268809Y-97305714D01*
X77125952Y-97305714D01*
X76935476Y-97258095D01*
X76840238Y-97210476D01*
X76745000Y-97115238D01*
X76697380Y-96972380D01*
X76697380Y-96877142D01*
X76745000Y-96734285D01*
X76792619Y-96686666D01*
X76697380Y-96353333D02*
X76697380Y-95734285D01*
X77078333Y-96067619D01*
X77078333Y-95924761D01*
X77125952Y-95829523D01*
X77173571Y-95781904D01*
X77268809Y-95734285D01*
X77506904Y-95734285D01*
X77602142Y-95781904D01*
X77649761Y-95829523D01*
X77697380Y-95924761D01*
X77697380Y-96210476D01*
X77649761Y-96305714D01*
X77602142Y-96353333D01*
%TO.C,D3*%
X96480372Y-83273172D02*
X97346398Y-82773172D01*
X97465446Y-82979368D01*
X97495635Y-83126896D01*
X97460775Y-83256993D01*
X97402106Y-83345852D01*
X97260958Y-83482329D01*
X97137241Y-83553758D01*
X96948474Y-83607756D01*
X96842186Y-83614136D01*
X96712088Y-83579277D01*
X96599420Y-83479368D01*
X96480372Y-83273172D01*
X97798779Y-83556719D02*
X98108303Y-84092830D01*
X97611722Y-83994631D01*
X97683150Y-84118348D01*
X97689530Y-84224637D01*
X97672100Y-84289685D01*
X97613431Y-84378544D01*
X97407234Y-84497591D01*
X97300946Y-84503971D01*
X97235898Y-84486541D01*
X97147039Y-84427872D01*
X97004182Y-84180436D01*
X96997802Y-84074148D01*
X97015232Y-84009099D01*
%TO.C,D9*%
X71155597Y-99599845D02*
X70289571Y-100099845D01*
X70170523Y-99893649D01*
X70140334Y-99746121D01*
X70175194Y-99616024D01*
X70233863Y-99527165D01*
X70375011Y-99390688D01*
X70498728Y-99319259D01*
X70687495Y-99265261D01*
X70793783Y-99258881D01*
X70923881Y-99293740D01*
X71036549Y-99393649D01*
X71155597Y-99599845D01*
X70631787Y-98692581D02*
X70536549Y-98527623D01*
X70447691Y-98468954D01*
X70382642Y-98451524D01*
X70211305Y-98440474D01*
X70022538Y-98494473D01*
X69692624Y-98684949D01*
X69633954Y-98773808D01*
X69616525Y-98838857D01*
X69622904Y-98945145D01*
X69718143Y-99110102D01*
X69807001Y-99168771D01*
X69872050Y-99186201D01*
X69978338Y-99179821D01*
X70184534Y-99060773D01*
X70243203Y-98971915D01*
X70260633Y-98906866D01*
X70254254Y-98800578D01*
X70159015Y-98635621D01*
X70070157Y-98576952D01*
X70005108Y-98559522D01*
X69898820Y-98565902D01*
%TO.C,D17*%
X93995361Y-95910995D02*
X94861386Y-96410995D01*
X94742339Y-96617191D01*
X94629671Y-96717100D01*
X94499573Y-96751959D01*
X94393285Y-96745579D01*
X94204518Y-96691581D01*
X94080800Y-96620152D01*
X93939653Y-96483675D01*
X93880984Y-96394816D01*
X93846124Y-96264719D01*
X93876313Y-96117191D01*
X93995361Y-95910995D01*
X93233456Y-97230653D02*
X93519170Y-96735781D01*
X93376313Y-96983217D02*
X94242339Y-97483217D01*
X94166240Y-97329309D01*
X94131380Y-97199212D01*
X94137760Y-97092924D01*
X93932815Y-98019328D02*
X93599482Y-98596678D01*
X92947742Y-97725524D01*
%TO.C,U2*%
X83058095Y-83907380D02*
X83058095Y-84716904D01*
X83105714Y-84812142D01*
X83153333Y-84859761D01*
X83248571Y-84907380D01*
X83439047Y-84907380D01*
X83534285Y-84859761D01*
X83581904Y-84812142D01*
X83629523Y-84716904D01*
X83629523Y-83907380D01*
X84058095Y-84002619D02*
X84105714Y-83955000D01*
X84200952Y-83907380D01*
X84439047Y-83907380D01*
X84534285Y-83955000D01*
X84581904Y-84002619D01*
X84629523Y-84097857D01*
X84629523Y-84193095D01*
X84581904Y-84335952D01*
X84010476Y-84907380D01*
X84629523Y-84907380D01*
%TO.C,D6*%
X91981621Y-104103377D02*
X92481621Y-104969403D01*
X92275425Y-105088451D01*
X92127897Y-105118640D01*
X91997800Y-105083780D01*
X91908941Y-105025111D01*
X91772464Y-104883963D01*
X91701035Y-104760246D01*
X91647037Y-104571479D01*
X91640657Y-104465191D01*
X91675516Y-104335093D01*
X91775425Y-104222425D01*
X91981621Y-104103377D01*
X91244442Y-105683689D02*
X91409399Y-105588451D01*
X91468068Y-105499592D01*
X91485498Y-105434543D01*
X91496548Y-105263206D01*
X91442549Y-105074440D01*
X91252073Y-104744525D01*
X91163215Y-104685856D01*
X91098166Y-104668426D01*
X90991878Y-104674806D01*
X90826921Y-104770044D01*
X90768252Y-104858903D01*
X90750822Y-104923951D01*
X90757202Y-105030239D01*
X90876249Y-105236436D01*
X90965108Y-105295105D01*
X91030156Y-105312535D01*
X91136445Y-105306155D01*
X91301402Y-105210917D01*
X91360071Y-105122059D01*
X91377501Y-105057010D01*
X91371121Y-104950722D01*
%TO.C,TP1*%
X76843095Y-86069380D02*
X77414523Y-86069380D01*
X77128809Y-87069380D02*
X77128809Y-86069380D01*
X77747857Y-87069380D02*
X77747857Y-86069380D01*
X78128809Y-86069380D01*
X78224047Y-86117000D01*
X78271666Y-86164619D01*
X78319285Y-86259857D01*
X78319285Y-86402714D01*
X78271666Y-86497952D01*
X78224047Y-86545571D01*
X78128809Y-86593190D01*
X77747857Y-86593190D01*
X79271666Y-87069380D02*
X78700238Y-87069380D01*
X78985952Y-87069380D02*
X78985952Y-86069380D01*
X78890714Y-86212238D01*
X78795476Y-86307476D01*
X78700238Y-86355095D01*
%TO.C,D24*%
X77253730Y-82474350D02*
X76753730Y-81608324D01*
X76959926Y-81489277D01*
X77107454Y-81459087D01*
X77237551Y-81493947D01*
X77326410Y-81552616D01*
X77462887Y-81693764D01*
X77534316Y-81817482D01*
X77588314Y-82006248D01*
X77594694Y-82112537D01*
X77559835Y-82242634D01*
X77459926Y-82355302D01*
X77253730Y-82474350D01*
X77626135Y-81214612D02*
X77643565Y-81149564D01*
X77702234Y-81060705D01*
X77908430Y-80941658D01*
X78014718Y-80935278D01*
X78079767Y-80952708D01*
X78168626Y-81011377D01*
X78216245Y-81093855D01*
X78246434Y-81241383D01*
X78037276Y-82021969D01*
X78573387Y-81712445D01*
X78982362Y-80706523D02*
X79315695Y-81283874D01*
X78585689Y-80495656D02*
X78736635Y-81233294D01*
X79272746Y-80923770D01*
%TO.C,D5*%
X97218739Y-98327937D02*
X98084764Y-98827937D01*
X97965717Y-99034133D01*
X97853049Y-99134042D01*
X97722951Y-99168901D01*
X97616663Y-99162522D01*
X97427896Y-99108523D01*
X97304178Y-99037094D01*
X97163030Y-98900617D01*
X97104361Y-98811758D01*
X97069502Y-98681661D01*
X97099691Y-98534133D01*
X97218739Y-98327937D01*
X97346669Y-100106355D02*
X97584764Y-99693962D01*
X97196181Y-99414628D01*
X97213610Y-99479676D01*
X97207231Y-99585965D01*
X97088183Y-99792161D01*
X96999325Y-99850830D01*
X96934276Y-99868260D01*
X96827988Y-99861880D01*
X96621791Y-99742833D01*
X96563122Y-99653974D01*
X96545692Y-99588925D01*
X96552072Y-99482637D01*
X96671120Y-99276441D01*
X96759978Y-99217772D01*
X96825027Y-99200342D01*
D11*
%TO.C,D10*%
X67470001Y-90019022D02*
X67470001Y-92859022D01*
X65170001Y-90019022D02*
X65170001Y-92859022D01*
X67470001Y-90019022D02*
X66820001Y-90019022D01*
%TO.C,D15*%
X95220593Y-86486412D02*
X93800593Y-84026900D01*
X97212451Y-85336412D02*
X95792451Y-82876900D01*
X95220593Y-86486412D02*
X95783509Y-86161412D01*
%TO.C,D2*%
X93234014Y-77995833D02*
X90774502Y-76575833D01*
X93234014Y-77995833D02*
X93559014Y-77432917D01*
X94384014Y-76003975D02*
X91924502Y-74583975D01*
%TO.C,C2*%
X74830000Y-91066252D02*
X74830000Y-90543748D01*
X76300000Y-91066252D02*
X76300000Y-90543748D01*
%TO.C,TP8*%
X79695000Y-98110000D02*
X81595000Y-98110000D01*
X81595000Y-100010000D02*
X79695000Y-100010000D01*
X81595000Y-98110000D02*
X81595000Y-100010000D01*
X79695000Y-100010000D02*
X79695000Y-98110000D01*
%TO.C,R4*%
X83862936Y-96640000D02*
X84317064Y-96640000D01*
X83862936Y-95170000D02*
X84317064Y-95170000D01*
%TO.C,D14*%
X91221003Y-81452420D02*
X88761491Y-80032420D01*
X92371003Y-79460562D02*
X89911491Y-78040562D01*
X91221003Y-81452420D02*
X91546003Y-80889504D01*
%TO.C,J1*%
X83505000Y-83245000D02*
X85380000Y-83245000D01*
X83505000Y-83245000D02*
X83505000Y-83158276D01*
X82820000Y-83245000D02*
X82135000Y-83245000D01*
X85380000Y-83245000D02*
X85380000Y-82944493D01*
X83505000Y-81855000D02*
X85380000Y-81855000D01*
X82135000Y-83245000D02*
X82135000Y-82550000D01*
X85380000Y-82155507D02*
X85380000Y-81855000D01*
X83505000Y-81941724D02*
X83505000Y-81855000D01*
%TO.C,D1*%
X85240000Y-75090000D02*
X85240000Y-74440000D01*
X85240000Y-72790000D02*
X82400000Y-72790000D01*
X85240000Y-75090000D02*
X82400000Y-75090000D01*
%TO.C,D21*%
X72413174Y-96382796D02*
X71850258Y-96707796D01*
X70421316Y-97532796D02*
X71841316Y-99992308D01*
X72413174Y-96382796D02*
X73833174Y-98842308D01*
D12*
%TO.C,Y1*%
X78346419Y-90845000D02*
G75*
G03*
X78346419Y-90845000I-141419J0D01*
G01*
D11*
%TO.C,D19*%
X82400000Y-106090000D02*
X85240000Y-106090000D01*
X82400000Y-103790000D02*
X85240000Y-103790000D01*
X82400000Y-103790000D02*
X82400000Y-104440000D01*
%TO.C,D11*%
X70376082Y-82025556D02*
X68956082Y-84485068D01*
X68384224Y-80875556D02*
X66964224Y-83335068D01*
X70376082Y-82025556D02*
X69813166Y-81700556D01*
%TO.C,D7*%
X82400000Y-107789999D02*
X85240000Y-107789999D01*
X82400000Y-107789999D02*
X82400000Y-108439999D01*
X82400000Y-110089999D02*
X85240000Y-110089999D01*
%TO.C,D8*%
X74406239Y-104884312D02*
X76865751Y-106304312D01*
X74406239Y-104884312D02*
X74081239Y-105447228D01*
X73256239Y-106876170D02*
X75715751Y-108296170D01*
%TO.C,D18*%
X88764167Y-102846036D02*
X89089167Y-103408952D01*
X88764167Y-102846036D02*
X91223679Y-101426036D01*
X89914167Y-104837894D02*
X92373679Y-103417894D01*
%TO.C,Q1*%
X82530000Y-99060000D02*
X82530000Y-99710000D01*
X82530000Y-99060000D02*
X82530000Y-98410000D01*
X85650000Y-99060000D02*
X85650000Y-99710000D01*
X85650000Y-99060000D02*
X85650000Y-97385000D01*
%TO.C,D16*%
X96170000Y-92860000D02*
X96170000Y-90020000D01*
X96170000Y-92860000D02*
X96820000Y-92860000D01*
X98470000Y-92860000D02*
X98470000Y-90020000D01*
%TO.C,D12*%
X76886607Y-76563648D02*
X74427095Y-77983648D01*
X75736607Y-74571790D02*
X73277095Y-75991790D01*
X76886607Y-76563648D02*
X76561607Y-76000732D01*
%TO.C,D4*%
X102469997Y-92870801D02*
X102469997Y-90030801D01*
X100169997Y-92870801D02*
X100169997Y-90030801D01*
X100169997Y-92870801D02*
X100819997Y-92870801D01*
%TO.C,D22*%
X69170000Y-90020000D02*
X69170000Y-92860000D01*
X71470000Y-90020000D02*
X70820000Y-90020000D01*
X71470000Y-90020000D02*
X71470000Y-92860000D01*
%TO.C,D20*%
X75258297Y-103413257D02*
X77717809Y-104833257D01*
X76408297Y-101421399D02*
X78867809Y-102841399D01*
X76408297Y-101421399D02*
X76083297Y-101984315D01*
%TO.C,D13*%
X85240000Y-79090000D02*
X82400000Y-79090000D01*
X85240000Y-76790000D02*
X82400000Y-76790000D01*
X85240000Y-79090000D02*
X85240000Y-78440000D01*
%TO.C,TP2*%
X90485000Y-87945000D02*
X88585000Y-87945000D01*
X88585000Y-87945000D02*
X88585000Y-86045000D01*
X88585000Y-86045000D02*
X90485000Y-86045000D01*
X90485000Y-86045000D02*
X90485000Y-87945000D01*
%TO.C,D23*%
X71847046Y-82877770D02*
X70427046Y-85337282D01*
X73838904Y-84027770D02*
X73275988Y-83702770D01*
X73838904Y-84027770D02*
X72418904Y-86487282D01*
%TO.C,C3*%
X76300000Y-95623748D02*
X76300000Y-96146252D01*
X74830000Y-95623748D02*
X74830000Y-96146252D01*
%TO.C,D3*%
X98687316Y-84490947D02*
X97267316Y-82031435D01*
X98687316Y-84490947D02*
X99250232Y-84165947D01*
X100679174Y-83340947D02*
X99259174Y-80881435D01*
%TO.C,D9*%
X66956796Y-99532071D02*
X68376796Y-101991583D01*
X68948654Y-98382071D02*
X68385738Y-98707071D01*
X68948654Y-98382071D02*
X70368654Y-100841583D01*
%TO.C,D17*%
X93806114Y-98843544D02*
X94369030Y-99168544D01*
X95797972Y-99993544D02*
X97217972Y-97534032D01*
X93806114Y-98843544D02*
X95226114Y-96384032D01*
D13*
%TO.C,U2*%
X81820000Y-93915000D02*
X85820000Y-93915000D01*
X81820000Y-85155000D02*
X85820000Y-85155000D01*
D14*
X79894000Y-85817000D02*
G75*
G03*
X79894000Y-85817000I-150000J0D01*
G01*
D11*
%TO.C,D6*%
X91913847Y-108302179D02*
X94373359Y-106882179D01*
X90763847Y-106310321D02*
X91088847Y-106873237D01*
X90763847Y-106310321D02*
X93223359Y-104890321D01*
%TO.C,TP1*%
X79055000Y-89215000D02*
X77155000Y-89215000D01*
X77155000Y-87315000D02*
X79055000Y-87315000D01*
X77155000Y-89215000D02*
X77155000Y-87315000D01*
X79055000Y-87315000D02*
X79055000Y-89215000D01*
%TO.C,D24*%
X78883898Y-80029312D02*
X78558898Y-79466396D01*
X77733898Y-78037454D02*
X75274386Y-79457454D01*
X78883898Y-80029312D02*
X76424386Y-81449312D01*
%TO.C,D5*%
X97267587Y-100848093D02*
X97830503Y-101173093D01*
X97267587Y-100848093D02*
X98687587Y-98388581D01*
X99259445Y-101998093D02*
X100679445Y-99538581D01*
%TD*%
%LPC*%
D15*
%TO.C,D10*%
X66870001Y-90524022D03*
X65770001Y-90524022D03*
X65770001Y-92354022D03*
X66870001Y-92354022D03*
%TD*%
D16*
%TO.C,D15*%
X95487708Y-85749069D03*
X96440336Y-85199069D03*
X95525336Y-83614243D03*
X94572708Y-84164243D03*
%TD*%
D17*
%TO.C,D2*%
X93096671Y-77223718D03*
X93646671Y-76271090D03*
X92061845Y-75356090D03*
X91511845Y-76308718D03*
%TD*%
D18*
%TO.C,C2*%
X75565000Y-91842500D03*
X75565000Y-89767500D03*
%TD*%
D19*
%TO.C,TP8*%
X80645000Y-99060000D03*
%TD*%
D20*
%TO.C,R4*%
X83090000Y-95905000D03*
X85090000Y-95905000D03*
%TD*%
D17*
%TO.C,D14*%
X91083660Y-80680305D03*
X91633660Y-79727677D03*
X90048834Y-78812677D03*
X89498834Y-79765305D03*
%TD*%
D21*
%TO.C,J1*%
X82820000Y-82550000D03*
D22*
X83820000Y-82550000D03*
X84820000Y-82550000D03*
%TD*%
D15*
%TO.C,D1*%
X84735000Y-74490000D03*
X84735000Y-73390000D03*
X82905000Y-73390000D03*
X82905000Y-74490000D03*
%TD*%
D23*
%TO.C,D21*%
X72146059Y-97120139D03*
X71193431Y-97670139D03*
X72108431Y-99254965D03*
X73061059Y-98704965D03*
%TD*%
D24*
%TO.C,Y1*%
X78105000Y-91995000D03*
X78105000Y-94695000D03*
%TD*%
D15*
%TO.C,D19*%
X82905000Y-104390000D03*
X82905000Y-105490000D03*
X84735000Y-105490000D03*
X84735000Y-104390000D03*
%TD*%
D25*
%TO.C,D11*%
X69603967Y-82162899D03*
X68651339Y-81612899D03*
X67736339Y-83197725D03*
X68688967Y-83747725D03*
%TD*%
D15*
%TO.C,D7*%
X82905000Y-108389999D03*
X82905000Y-109489999D03*
X84735000Y-109489999D03*
X84735000Y-108389999D03*
%TD*%
D26*
%TO.C,D8*%
X74543582Y-105656427D03*
X73993582Y-106609055D03*
X75578408Y-107524055D03*
X76128408Y-106571427D03*
%TD*%
D27*
%TO.C,D18*%
X89501510Y-103113151D03*
X90051510Y-104065779D03*
X91636336Y-103150779D03*
X91086336Y-102198151D03*
%TD*%
D28*
%TO.C,Q1*%
X85040000Y-98122500D03*
X83140000Y-98122500D03*
X84090000Y-99997500D03*
%TD*%
D15*
%TO.C,D16*%
X96770000Y-92355000D03*
X97870000Y-92355000D03*
X97870000Y-90525000D03*
X96770000Y-90525000D03*
%TD*%
D29*
%TO.C,D12*%
X76149264Y-76296533D03*
X75599264Y-75343905D03*
X74014438Y-76258905D03*
X74564438Y-77211533D03*
%TD*%
D15*
%TO.C,D4*%
X100769997Y-92365801D03*
X101869997Y-92365801D03*
X101869997Y-90535801D03*
X100769997Y-90535801D03*
%TD*%
%TO.C,D22*%
X70870000Y-90525000D03*
X69770000Y-90525000D03*
X69770000Y-92355000D03*
X70870000Y-92355000D03*
%TD*%
D26*
%TO.C,D20*%
X76545640Y-102193514D03*
X75995640Y-103146142D03*
X77580466Y-104061142D03*
X78130466Y-103108514D03*
%TD*%
D15*
%TO.C,D13*%
X84735000Y-78490000D03*
X84735000Y-77390000D03*
X82905000Y-77390000D03*
X82905000Y-78490000D03*
%TD*%
D19*
%TO.C,TP2*%
X89535000Y-86995000D03*
%TD*%
D25*
%TO.C,D23*%
X73066789Y-84165113D03*
X72114161Y-83615113D03*
X71199161Y-85199939D03*
X72151789Y-85749939D03*
%TD*%
D30*
%TO.C,C3*%
X75565000Y-94847500D03*
X75565000Y-96922500D03*
%TD*%
D16*
%TO.C,D3*%
X98954431Y-83753604D03*
X99907059Y-83203604D03*
X98992059Y-81618778D03*
X98039431Y-82168778D03*
%TD*%
D23*
%TO.C,D9*%
X68681539Y-99119414D03*
X67728911Y-99669414D03*
X68643911Y-101254240D03*
X69596539Y-100704240D03*
%TD*%
D31*
%TO.C,D17*%
X94578229Y-98706201D03*
X95530857Y-99256201D03*
X96445857Y-97671375D03*
X95493229Y-97121375D03*
%TD*%
D32*
%TO.C,U2*%
X81345000Y-85725000D03*
X81345000Y-86995000D03*
X81345000Y-88265000D03*
X81345000Y-89535000D03*
X81345000Y-90805000D03*
X81345000Y-92075000D03*
X81345000Y-93345000D03*
X86295000Y-93345000D03*
X86295000Y-92075000D03*
X86295000Y-90805000D03*
X86295000Y-89535000D03*
X86295000Y-88265000D03*
X86295000Y-86995000D03*
X86295000Y-85725000D03*
%TD*%
D27*
%TO.C,D6*%
X91501190Y-106577436D03*
X92051190Y-107530064D03*
X93636016Y-106615064D03*
X93086016Y-105662436D03*
%TD*%
D19*
%TO.C,TP1*%
X78105000Y-88265000D03*
%TD*%
D29*
%TO.C,D24*%
X78146555Y-79762197D03*
X77596555Y-78809569D03*
X76011729Y-79724569D03*
X76561729Y-80677197D03*
%TD*%
D31*
%TO.C,D5*%
X98039702Y-100710750D03*
X98992330Y-101260750D03*
X99907330Y-99675924D03*
X98954702Y-99125924D03*
%TD*%
D33*
%TO.C,S2*%
X101335000Y-91440000D03*
X103135000Y-91440000D03*
%TD*%
%TO.C,S1*%
X100550019Y-101092755D03*
X98991173Y-100192755D03*
%TD*%
%TO.C,S3*%
X100546609Y-81781336D03*
X98987763Y-82681336D03*
%TD*%
M02*
