%TF.GenerationSoftware,KiCad,Pcbnew,(6.0.11)*%
%TF.CreationDate,2023-03-31T13:59:01+02:00*%
%TF.ProjectId,Horloge,486f726c-6f67-4652-9e6b-696361645f70,rev?*%
%TF.SameCoordinates,Original*%
%TF.FileFunction,Drillmap*%
%TF.FilePolarity,Positive*%
%FSLAX45Y45*%
G04 Gerber Fmt 4.5, Leading zero omitted, Abs format (unit mm)*
G04 Created by KiCad (PCBNEW (6.0.11)) date 2023-03-31 13:59:01*
%MOMM*%
%LPD*%
G01*
G04 APERTURE LIST*
%ADD10C,0.150000*%
%ADD11C,0.200000*%
%ADD12C,0.040000*%
%ADD13C,0.100000*%
G04 APERTURE END LIST*
D10*
X10382000Y-9144000D02*
G75*
G03*
X10382000Y-9144000I-2000000J0D01*
G01*
D11*
D12*
X7727000Y-8997000D02*
X7767000Y-9037000D01*
X7767000Y-8997000D02*
X7727000Y-9037000D01*
X7854000Y-9005950D02*
X7894000Y-9045950D01*
X7894000Y-9005950D02*
X7854000Y-9045950D01*
X8044500Y-7409500D02*
X8084500Y-7449500D01*
X8084500Y-7409500D02*
X8044500Y-7449500D01*
X8044500Y-9632000D02*
X8084500Y-9672000D01*
X8084500Y-9632000D02*
X8044500Y-9672000D01*
X8171500Y-7600000D02*
X8211500Y-7640000D01*
X8211500Y-7600000D02*
X8171500Y-7640000D01*
X8870000Y-9378000D02*
X8910000Y-9418000D01*
X8910000Y-9378000D02*
X8870000Y-9418000D01*
X8870000Y-9632000D02*
X8910000Y-9672000D01*
X8910000Y-9632000D02*
X8870000Y-9672000D01*
X8997000Y-8997000D02*
X9037000Y-9037000D01*
X9037000Y-8997000D02*
X8997000Y-9037000D01*
X8997000Y-9378000D02*
X9037000Y-9418000D01*
X9037000Y-9378000D02*
X8997000Y-9418000D01*
X8997000Y-9886000D02*
X9037000Y-9926000D01*
X9037000Y-9886000D02*
X8997000Y-9926000D01*
X9456321Y-8743000D02*
X9496321Y-8783000D01*
X9496321Y-8743000D02*
X9456321Y-8783000D01*
X10140000Y-9632000D02*
X10180000Y-9672000D01*
X10180000Y-9632000D02*
X10140000Y-9672000D01*
X10203500Y-8679500D02*
X10243500Y-8719500D01*
X10243500Y-8679500D02*
X10203500Y-8719500D01*
D13*
X8178000Y-8255000D02*
G75*
G03*
X8178000Y-8255000I-50000J0D01*
G01*
X8432000Y-8255000D02*
G75*
G03*
X8432000Y-8255000I-50000J0D01*
G01*
X8686000Y-8255000D02*
G75*
G03*
X8686000Y-8255000I-50000J0D01*
G01*
D11*
X6632119Y-11461976D02*
X6632119Y-11261976D01*
X6679738Y-11261976D01*
X6708309Y-11271500D01*
X6727357Y-11290548D01*
X6736881Y-11309595D01*
X6746405Y-11347690D01*
X6746405Y-11376262D01*
X6736881Y-11414357D01*
X6727357Y-11433405D01*
X6708309Y-11452452D01*
X6679738Y-11461976D01*
X6632119Y-11461976D01*
X6832119Y-11461976D02*
X6832119Y-11328643D01*
X6832119Y-11366738D02*
X6841643Y-11347690D01*
X6851167Y-11338167D01*
X6870214Y-11328643D01*
X6889262Y-11328643D01*
X6955928Y-11461976D02*
X6955928Y-11328643D01*
X6955928Y-11261976D02*
X6946405Y-11271500D01*
X6955928Y-11281024D01*
X6965452Y-11271500D01*
X6955928Y-11261976D01*
X6955928Y-11281024D01*
X7079738Y-11461976D02*
X7060690Y-11452452D01*
X7051167Y-11433405D01*
X7051167Y-11261976D01*
X7184500Y-11461976D02*
X7165452Y-11452452D01*
X7155928Y-11433405D01*
X7155928Y-11261976D01*
X7413071Y-11461976D02*
X7413071Y-11261976D01*
X7479738Y-11404833D01*
X7546405Y-11261976D01*
X7546405Y-11461976D01*
X7727357Y-11461976D02*
X7727357Y-11357214D01*
X7717833Y-11338167D01*
X7698786Y-11328643D01*
X7660690Y-11328643D01*
X7641643Y-11338167D01*
X7727357Y-11452452D02*
X7708309Y-11461976D01*
X7660690Y-11461976D01*
X7641643Y-11452452D01*
X7632119Y-11433405D01*
X7632119Y-11414357D01*
X7641643Y-11395309D01*
X7660690Y-11385786D01*
X7708309Y-11385786D01*
X7727357Y-11376262D01*
X7822595Y-11328643D02*
X7822595Y-11528643D01*
X7822595Y-11338167D02*
X7841643Y-11328643D01*
X7879738Y-11328643D01*
X7898786Y-11338167D01*
X7908309Y-11347690D01*
X7917833Y-11366738D01*
X7917833Y-11423881D01*
X7908309Y-11442928D01*
X7898786Y-11452452D01*
X7879738Y-11461976D01*
X7841643Y-11461976D01*
X7822595Y-11452452D01*
X8003548Y-11442928D02*
X8013071Y-11452452D01*
X8003548Y-11461976D01*
X7994024Y-11452452D01*
X8003548Y-11442928D01*
X8003548Y-11461976D01*
X8003548Y-11338167D02*
X8013071Y-11347690D01*
X8003548Y-11357214D01*
X7994024Y-11347690D01*
X8003548Y-11338167D01*
X8003548Y-11357214D01*
D12*
X6334500Y-11771500D02*
X6374500Y-11811500D01*
X6374500Y-11771500D02*
X6334500Y-11811500D01*
D11*
X6670214Y-11681976D02*
X6689262Y-11681976D01*
X6708309Y-11691500D01*
X6717833Y-11701024D01*
X6727357Y-11720071D01*
X6736881Y-11758167D01*
X6736881Y-11805786D01*
X6727357Y-11843881D01*
X6717833Y-11862928D01*
X6708309Y-11872452D01*
X6689262Y-11881976D01*
X6670214Y-11881976D01*
X6651167Y-11872452D01*
X6641643Y-11862928D01*
X6632119Y-11843881D01*
X6622595Y-11805786D01*
X6622595Y-11758167D01*
X6632119Y-11720071D01*
X6641643Y-11701024D01*
X6651167Y-11691500D01*
X6670214Y-11681976D01*
X6822595Y-11862928D02*
X6832119Y-11872452D01*
X6822595Y-11881976D01*
X6813071Y-11872452D01*
X6822595Y-11862928D01*
X6822595Y-11881976D01*
X7003548Y-11748643D02*
X7003548Y-11881976D01*
X6955928Y-11672452D02*
X6908309Y-11815309D01*
X7032119Y-11815309D01*
X7146405Y-11681976D02*
X7165452Y-11681976D01*
X7184500Y-11691500D01*
X7194024Y-11701024D01*
X7203548Y-11720071D01*
X7213071Y-11758167D01*
X7213071Y-11805786D01*
X7203548Y-11843881D01*
X7194024Y-11862928D01*
X7184500Y-11872452D01*
X7165452Y-11881976D01*
X7146405Y-11881976D01*
X7127357Y-11872452D01*
X7117833Y-11862928D01*
X7108309Y-11843881D01*
X7098786Y-11805786D01*
X7098786Y-11758167D01*
X7108309Y-11720071D01*
X7117833Y-11701024D01*
X7127357Y-11691500D01*
X7146405Y-11681976D01*
X7336881Y-11681976D02*
X7355928Y-11681976D01*
X7374976Y-11691500D01*
X7384500Y-11701024D01*
X7394024Y-11720071D01*
X7403548Y-11758167D01*
X7403548Y-11805786D01*
X7394024Y-11843881D01*
X7384500Y-11862928D01*
X7374976Y-11872452D01*
X7355928Y-11881976D01*
X7336881Y-11881976D01*
X7317833Y-11872452D01*
X7308309Y-11862928D01*
X7298786Y-11843881D01*
X7289262Y-11805786D01*
X7289262Y-11758167D01*
X7298786Y-11720071D01*
X7308309Y-11701024D01*
X7317833Y-11691500D01*
X7336881Y-11681976D01*
X7489262Y-11881976D02*
X7489262Y-11748643D01*
X7489262Y-11767690D02*
X7498786Y-11758167D01*
X7517833Y-11748643D01*
X7546405Y-11748643D01*
X7565452Y-11758167D01*
X7574976Y-11777214D01*
X7574976Y-11881976D01*
X7574976Y-11777214D02*
X7584500Y-11758167D01*
X7603548Y-11748643D01*
X7632119Y-11748643D01*
X7651167Y-11758167D01*
X7660690Y-11777214D01*
X7660690Y-11881976D01*
X7755928Y-11881976D02*
X7755928Y-11748643D01*
X7755928Y-11767690D02*
X7765452Y-11758167D01*
X7784500Y-11748643D01*
X7813071Y-11748643D01*
X7832119Y-11758167D01*
X7841643Y-11777214D01*
X7841643Y-11881976D01*
X7841643Y-11777214D02*
X7851167Y-11758167D01*
X7870214Y-11748643D01*
X7898786Y-11748643D01*
X7917833Y-11758167D01*
X7927357Y-11777214D01*
X7927357Y-11881976D01*
X8317833Y-11672452D02*
X8146405Y-11929595D01*
X8574976Y-11681976D02*
X8594024Y-11681976D01*
X8613071Y-11691500D01*
X8622595Y-11701024D01*
X8632119Y-11720071D01*
X8641643Y-11758167D01*
X8641643Y-11805786D01*
X8632119Y-11843881D01*
X8622595Y-11862928D01*
X8613071Y-11872452D01*
X8594024Y-11881976D01*
X8574976Y-11881976D01*
X8555929Y-11872452D01*
X8546405Y-11862928D01*
X8536881Y-11843881D01*
X8527357Y-11805786D01*
X8527357Y-11758167D01*
X8536881Y-11720071D01*
X8546405Y-11701024D01*
X8555929Y-11691500D01*
X8574976Y-11681976D01*
X8727357Y-11862928D02*
X8736881Y-11872452D01*
X8727357Y-11881976D01*
X8717833Y-11872452D01*
X8727357Y-11862928D01*
X8727357Y-11881976D01*
X8860690Y-11681976D02*
X8879738Y-11681976D01*
X8898786Y-11691500D01*
X8908310Y-11701024D01*
X8917833Y-11720071D01*
X8927357Y-11758167D01*
X8927357Y-11805786D01*
X8917833Y-11843881D01*
X8908310Y-11862928D01*
X8898786Y-11872452D01*
X8879738Y-11881976D01*
X8860690Y-11881976D01*
X8841643Y-11872452D01*
X8832119Y-11862928D01*
X8822595Y-11843881D01*
X8813071Y-11805786D01*
X8813071Y-11758167D01*
X8822595Y-11720071D01*
X8832119Y-11701024D01*
X8841643Y-11691500D01*
X8860690Y-11681976D01*
X9117833Y-11881976D02*
X9003548Y-11881976D01*
X9060690Y-11881976D02*
X9060690Y-11681976D01*
X9041643Y-11710548D01*
X9022595Y-11729595D01*
X9003548Y-11739119D01*
X9298786Y-11681976D02*
X9203548Y-11681976D01*
X9194024Y-11777214D01*
X9203548Y-11767690D01*
X9222595Y-11758167D01*
X9270214Y-11758167D01*
X9289262Y-11767690D01*
X9298786Y-11777214D01*
X9308310Y-11796262D01*
X9308310Y-11843881D01*
X9298786Y-11862928D01*
X9289262Y-11872452D01*
X9270214Y-11881976D01*
X9222595Y-11881976D01*
X9203548Y-11872452D01*
X9194024Y-11862928D01*
X9374976Y-11681976D02*
X9508310Y-11681976D01*
X9422595Y-11881976D01*
X9574976Y-11681976D02*
X9574976Y-11720071D01*
X9651167Y-11681976D02*
X9651167Y-11720071D01*
X9946405Y-11958167D02*
X9936881Y-11948643D01*
X9917833Y-11920071D01*
X9908310Y-11901024D01*
X9898786Y-11872452D01*
X9889262Y-11824833D01*
X9889262Y-11786738D01*
X9898786Y-11739119D01*
X9908310Y-11710548D01*
X9917833Y-11691500D01*
X9936881Y-11662928D01*
X9946405Y-11653405D01*
X10127357Y-11881976D02*
X10013071Y-11881976D01*
X10070214Y-11881976D02*
X10070214Y-11681976D01*
X10051167Y-11710548D01*
X10032119Y-11729595D01*
X10013071Y-11739119D01*
X10194024Y-11681976D02*
X10317833Y-11681976D01*
X10251167Y-11758167D01*
X10279738Y-11758167D01*
X10298786Y-11767690D01*
X10308310Y-11777214D01*
X10317833Y-11796262D01*
X10317833Y-11843881D01*
X10308310Y-11862928D01*
X10298786Y-11872452D01*
X10279738Y-11881976D01*
X10222595Y-11881976D01*
X10203548Y-11872452D01*
X10194024Y-11862928D01*
X10555929Y-11881976D02*
X10555929Y-11681976D01*
X10641643Y-11881976D02*
X10641643Y-11777214D01*
X10632119Y-11758167D01*
X10613071Y-11748643D01*
X10584500Y-11748643D01*
X10565452Y-11758167D01*
X10555929Y-11767690D01*
X10765452Y-11881976D02*
X10746405Y-11872452D01*
X10736881Y-11862928D01*
X10727357Y-11843881D01*
X10727357Y-11786738D01*
X10736881Y-11767690D01*
X10746405Y-11758167D01*
X10765452Y-11748643D01*
X10794024Y-11748643D01*
X10813071Y-11758167D01*
X10822595Y-11767690D01*
X10832119Y-11786738D01*
X10832119Y-11843881D01*
X10822595Y-11862928D01*
X10813071Y-11872452D01*
X10794024Y-11881976D01*
X10765452Y-11881976D01*
X10946405Y-11881976D02*
X10927357Y-11872452D01*
X10917833Y-11853405D01*
X10917833Y-11681976D01*
X11098786Y-11872452D02*
X11079738Y-11881976D01*
X11041643Y-11881976D01*
X11022595Y-11872452D01*
X11013071Y-11853405D01*
X11013071Y-11777214D01*
X11022595Y-11758167D01*
X11041643Y-11748643D01*
X11079738Y-11748643D01*
X11098786Y-11758167D01*
X11108310Y-11777214D01*
X11108310Y-11796262D01*
X11013071Y-11815309D01*
X11184500Y-11872452D02*
X11203548Y-11881976D01*
X11241643Y-11881976D01*
X11260690Y-11872452D01*
X11270214Y-11853405D01*
X11270214Y-11843881D01*
X11260690Y-11824833D01*
X11241643Y-11815309D01*
X11213071Y-11815309D01*
X11194024Y-11805786D01*
X11184500Y-11786738D01*
X11184500Y-11777214D01*
X11194024Y-11758167D01*
X11213071Y-11748643D01*
X11241643Y-11748643D01*
X11260690Y-11758167D01*
X11336881Y-11958167D02*
X11346405Y-11948643D01*
X11365452Y-11920071D01*
X11374976Y-11901024D01*
X11384500Y-11872452D01*
X11394024Y-11824833D01*
X11394024Y-11786738D01*
X11384500Y-11739119D01*
X11374976Y-11710548D01*
X11365452Y-11691500D01*
X11346405Y-11662928D01*
X11336881Y-11653405D01*
D13*
X6374500Y-12055500D02*
G75*
G03*
X6374500Y-12055500I-50000J0D01*
G01*
D11*
X6736881Y-12145976D02*
X6622595Y-12145976D01*
X6679738Y-12145976D02*
X6679738Y-11945976D01*
X6660690Y-11974548D01*
X6641643Y-11993595D01*
X6622595Y-12003119D01*
X6822595Y-12126928D02*
X6832119Y-12136452D01*
X6822595Y-12145976D01*
X6813071Y-12136452D01*
X6822595Y-12126928D01*
X6822595Y-12145976D01*
X6955928Y-11945976D02*
X6974976Y-11945976D01*
X6994024Y-11955500D01*
X7003548Y-11965024D01*
X7013071Y-11984071D01*
X7022595Y-12022167D01*
X7022595Y-12069786D01*
X7013071Y-12107881D01*
X7003548Y-12126928D01*
X6994024Y-12136452D01*
X6974976Y-12145976D01*
X6955928Y-12145976D01*
X6936881Y-12136452D01*
X6927357Y-12126928D01*
X6917833Y-12107881D01*
X6908309Y-12069786D01*
X6908309Y-12022167D01*
X6917833Y-11984071D01*
X6927357Y-11965024D01*
X6936881Y-11955500D01*
X6955928Y-11945976D01*
X7146405Y-11945976D02*
X7165452Y-11945976D01*
X7184500Y-11955500D01*
X7194024Y-11965024D01*
X7203548Y-11984071D01*
X7213071Y-12022167D01*
X7213071Y-12069786D01*
X7203548Y-12107881D01*
X7194024Y-12126928D01*
X7184500Y-12136452D01*
X7165452Y-12145976D01*
X7146405Y-12145976D01*
X7127357Y-12136452D01*
X7117833Y-12126928D01*
X7108309Y-12107881D01*
X7098786Y-12069786D01*
X7098786Y-12022167D01*
X7108309Y-11984071D01*
X7117833Y-11965024D01*
X7127357Y-11955500D01*
X7146405Y-11945976D01*
X7336881Y-11945976D02*
X7355928Y-11945976D01*
X7374976Y-11955500D01*
X7384500Y-11965024D01*
X7394024Y-11984071D01*
X7403548Y-12022167D01*
X7403548Y-12069786D01*
X7394024Y-12107881D01*
X7384500Y-12126928D01*
X7374976Y-12136452D01*
X7355928Y-12145976D01*
X7336881Y-12145976D01*
X7317833Y-12136452D01*
X7308309Y-12126928D01*
X7298786Y-12107881D01*
X7289262Y-12069786D01*
X7289262Y-12022167D01*
X7298786Y-11984071D01*
X7308309Y-11965024D01*
X7317833Y-11955500D01*
X7336881Y-11945976D01*
X7489262Y-12145976D02*
X7489262Y-12012643D01*
X7489262Y-12031690D02*
X7498786Y-12022167D01*
X7517833Y-12012643D01*
X7546405Y-12012643D01*
X7565452Y-12022167D01*
X7574976Y-12041214D01*
X7574976Y-12145976D01*
X7574976Y-12041214D02*
X7584500Y-12022167D01*
X7603548Y-12012643D01*
X7632119Y-12012643D01*
X7651167Y-12022167D01*
X7660690Y-12041214D01*
X7660690Y-12145976D01*
X7755928Y-12145976D02*
X7755928Y-12012643D01*
X7755928Y-12031690D02*
X7765452Y-12022167D01*
X7784500Y-12012643D01*
X7813071Y-12012643D01*
X7832119Y-12022167D01*
X7841643Y-12041214D01*
X7841643Y-12145976D01*
X7841643Y-12041214D02*
X7851167Y-12022167D01*
X7870214Y-12012643D01*
X7898786Y-12012643D01*
X7917833Y-12022167D01*
X7927357Y-12041214D01*
X7927357Y-12145976D01*
X8317833Y-11936452D02*
X8146405Y-12193595D01*
X8574976Y-11945976D02*
X8594024Y-11945976D01*
X8613071Y-11955500D01*
X8622595Y-11965024D01*
X8632119Y-11984071D01*
X8641643Y-12022167D01*
X8641643Y-12069786D01*
X8632119Y-12107881D01*
X8622595Y-12126928D01*
X8613071Y-12136452D01*
X8594024Y-12145976D01*
X8574976Y-12145976D01*
X8555929Y-12136452D01*
X8546405Y-12126928D01*
X8536881Y-12107881D01*
X8527357Y-12069786D01*
X8527357Y-12022167D01*
X8536881Y-11984071D01*
X8546405Y-11965024D01*
X8555929Y-11955500D01*
X8574976Y-11945976D01*
X8727357Y-12126928D02*
X8736881Y-12136452D01*
X8727357Y-12145976D01*
X8717833Y-12136452D01*
X8727357Y-12126928D01*
X8727357Y-12145976D01*
X8860690Y-11945976D02*
X8879738Y-11945976D01*
X8898786Y-11955500D01*
X8908310Y-11965024D01*
X8917833Y-11984071D01*
X8927357Y-12022167D01*
X8927357Y-12069786D01*
X8917833Y-12107881D01*
X8908310Y-12126928D01*
X8898786Y-12136452D01*
X8879738Y-12145976D01*
X8860690Y-12145976D01*
X8841643Y-12136452D01*
X8832119Y-12126928D01*
X8822595Y-12107881D01*
X8813071Y-12069786D01*
X8813071Y-12022167D01*
X8822595Y-11984071D01*
X8832119Y-11965024D01*
X8841643Y-11955500D01*
X8860690Y-11945976D01*
X8994024Y-11945976D02*
X9117833Y-11945976D01*
X9051167Y-12022167D01*
X9079738Y-12022167D01*
X9098786Y-12031690D01*
X9108310Y-12041214D01*
X9117833Y-12060262D01*
X9117833Y-12107881D01*
X9108310Y-12126928D01*
X9098786Y-12136452D01*
X9079738Y-12145976D01*
X9022595Y-12145976D01*
X9003548Y-12136452D01*
X8994024Y-12126928D01*
X9213071Y-12145976D02*
X9251167Y-12145976D01*
X9270214Y-12136452D01*
X9279738Y-12126928D01*
X9298786Y-12098357D01*
X9308310Y-12060262D01*
X9308310Y-11984071D01*
X9298786Y-11965024D01*
X9289262Y-11955500D01*
X9270214Y-11945976D01*
X9232119Y-11945976D01*
X9213071Y-11955500D01*
X9203548Y-11965024D01*
X9194024Y-11984071D01*
X9194024Y-12031690D01*
X9203548Y-12050738D01*
X9213071Y-12060262D01*
X9232119Y-12069786D01*
X9270214Y-12069786D01*
X9289262Y-12060262D01*
X9298786Y-12050738D01*
X9308310Y-12031690D01*
X9479738Y-12012643D02*
X9479738Y-12145976D01*
X9432119Y-11936452D02*
X9384500Y-12079309D01*
X9508310Y-12079309D01*
X9574976Y-11945976D02*
X9574976Y-11984071D01*
X9651167Y-11945976D02*
X9651167Y-11984071D01*
X9946405Y-12222167D02*
X9936881Y-12212643D01*
X9917833Y-12184071D01*
X9908310Y-12165024D01*
X9898786Y-12136452D01*
X9889262Y-12088833D01*
X9889262Y-12050738D01*
X9898786Y-12003119D01*
X9908310Y-11974548D01*
X9917833Y-11955500D01*
X9936881Y-11926928D01*
X9946405Y-11917405D01*
X10003548Y-11945976D02*
X10127357Y-11945976D01*
X10060690Y-12022167D01*
X10089262Y-12022167D01*
X10108310Y-12031690D01*
X10117833Y-12041214D01*
X10127357Y-12060262D01*
X10127357Y-12107881D01*
X10117833Y-12126928D01*
X10108310Y-12136452D01*
X10089262Y-12145976D01*
X10032119Y-12145976D01*
X10013071Y-12136452D01*
X10003548Y-12126928D01*
X10365452Y-12145976D02*
X10365452Y-11945976D01*
X10451167Y-12145976D02*
X10451167Y-12041214D01*
X10441643Y-12022167D01*
X10422595Y-12012643D01*
X10394024Y-12012643D01*
X10374976Y-12022167D01*
X10365452Y-12031690D01*
X10574976Y-12145976D02*
X10555929Y-12136452D01*
X10546405Y-12126928D01*
X10536881Y-12107881D01*
X10536881Y-12050738D01*
X10546405Y-12031690D01*
X10555929Y-12022167D01*
X10574976Y-12012643D01*
X10603548Y-12012643D01*
X10622595Y-12022167D01*
X10632119Y-12031690D01*
X10641643Y-12050738D01*
X10641643Y-12107881D01*
X10632119Y-12126928D01*
X10622595Y-12136452D01*
X10603548Y-12145976D01*
X10574976Y-12145976D01*
X10755929Y-12145976D02*
X10736881Y-12136452D01*
X10727357Y-12117405D01*
X10727357Y-11945976D01*
X10908310Y-12136452D02*
X10889262Y-12145976D01*
X10851167Y-12145976D01*
X10832119Y-12136452D01*
X10822595Y-12117405D01*
X10822595Y-12041214D01*
X10832119Y-12022167D01*
X10851167Y-12012643D01*
X10889262Y-12012643D01*
X10908310Y-12022167D01*
X10917833Y-12041214D01*
X10917833Y-12060262D01*
X10822595Y-12079309D01*
X10994024Y-12136452D02*
X11013071Y-12145976D01*
X11051167Y-12145976D01*
X11070214Y-12136452D01*
X11079738Y-12117405D01*
X11079738Y-12107881D01*
X11070214Y-12088833D01*
X11051167Y-12079309D01*
X11022595Y-12079309D01*
X11003548Y-12069786D01*
X10994024Y-12050738D01*
X10994024Y-12041214D01*
X11003548Y-12022167D01*
X11022595Y-12012643D01*
X11051167Y-12012643D01*
X11070214Y-12022167D01*
X11146405Y-12222167D02*
X11155929Y-12212643D01*
X11174976Y-12184071D01*
X11184500Y-12165024D01*
X11194024Y-12136452D01*
X11203548Y-12088833D01*
X11203548Y-12050738D01*
X11194024Y-12003119D01*
X11184500Y-11974548D01*
X11174976Y-11955500D01*
X11155929Y-11926928D01*
X11146405Y-11917405D01*
M02*
