G04 #@! TF.GenerationSoftware,KiCad,Pcbnew,7.0.2*
G04 #@! TF.CreationDate,2023-05-04T11:04:43+02:00*
G04 #@! TF.ProjectId,Macropad,4d616372-6f70-4616-942e-6b696361645f,rev?*
G04 #@! TF.SameCoordinates,Original*
G04 #@! TF.FileFunction,Legend,Top*
G04 #@! TF.FilePolarity,Positive*
%FSLAX46Y46*%
G04 Gerber Fmt 4.6, Leading zero omitted, Abs format (unit mm)*
G04 Created by KiCad (PCBNEW 7.0.2) date 2023-05-04 11:04:43*
%MOMM*%
%LPD*%
G01*
G04 APERTURE LIST*
G04 Aperture macros list*
%AMRoundRect*
0 Rectangle with rounded corners*
0 $1 Rounding radius*
0 $2 $3 $4 $5 $6 $7 $8 $9 X,Y pos of 4 corners*
0 Add a 4 corners polygon primitive as box body*
4,1,4,$2,$3,$4,$5,$6,$7,$8,$9,$2,$3,0*
0 Add four circle primitives for the rounded corners*
1,1,$1+$1,$2,$3*
1,1,$1+$1,$4,$5*
1,1,$1+$1,$6,$7*
1,1,$1+$1,$8,$9*
0 Add four rect primitives between the rounded corners*
20,1,$1+$1,$2,$3,$4,$5,0*
20,1,$1+$1,$4,$5,$6,$7,0*
20,1,$1+$1,$6,$7,$8,$9,0*
20,1,$1+$1,$8,$9,$2,$3,0*%
G04 Aperture macros list end*
%ADD10C,0.300000*%
%ADD11C,0.254000*%
%ADD12C,0.150000*%
%ADD13C,0.100000*%
%ADD14C,0.200000*%
%ADD15C,0.120000*%
%ADD16C,1.800000*%
%ADD17C,4.875000*%
%ADD18C,1.700000*%
%ADD19C,4.000000*%
%ADD20C,2.200000*%
%ADD21C,0.700000*%
%ADD22C,4.400000*%
%ADD23C,1.600000*%
%ADD24RoundRect,0.200000X0.600000X0.600000X-0.600000X0.600000X-0.600000X-0.600000X0.600000X-0.600000X0*%
G04 APERTURE END LIST*
D10*
X65055714Y-37320000D02*
X65270000Y-37391428D01*
X65270000Y-37391428D02*
X65627142Y-37391428D01*
X65627142Y-37391428D02*
X65770000Y-37320000D01*
X65770000Y-37320000D02*
X65841428Y-37248571D01*
X65841428Y-37248571D02*
X65912857Y-37105714D01*
X65912857Y-37105714D02*
X65912857Y-36962857D01*
X65912857Y-36962857D02*
X65841428Y-36820000D01*
X65841428Y-36820000D02*
X65770000Y-36748571D01*
X65770000Y-36748571D02*
X65627142Y-36677142D01*
X65627142Y-36677142D02*
X65341428Y-36605714D01*
X65341428Y-36605714D02*
X65198571Y-36534285D01*
X65198571Y-36534285D02*
X65127142Y-36462857D01*
X65127142Y-36462857D02*
X65055714Y-36320000D01*
X65055714Y-36320000D02*
X65055714Y-36177142D01*
X65055714Y-36177142D02*
X65127142Y-36034285D01*
X65127142Y-36034285D02*
X65198571Y-35962857D01*
X65198571Y-35962857D02*
X65341428Y-35891428D01*
X65341428Y-35891428D02*
X65698571Y-35891428D01*
X65698571Y-35891428D02*
X65912857Y-35962857D01*
X66341428Y-36391428D02*
X66912856Y-36391428D01*
X66555713Y-35891428D02*
X66555713Y-37177142D01*
X66555713Y-37177142D02*
X66627142Y-37320000D01*
X66627142Y-37320000D02*
X66769999Y-37391428D01*
X66769999Y-37391428D02*
X66912856Y-37391428D01*
X67984285Y-37320000D02*
X67841428Y-37391428D01*
X67841428Y-37391428D02*
X67555714Y-37391428D01*
X67555714Y-37391428D02*
X67412856Y-37320000D01*
X67412856Y-37320000D02*
X67341428Y-37177142D01*
X67341428Y-37177142D02*
X67341428Y-36605714D01*
X67341428Y-36605714D02*
X67412856Y-36462857D01*
X67412856Y-36462857D02*
X67555714Y-36391428D01*
X67555714Y-36391428D02*
X67841428Y-36391428D01*
X67841428Y-36391428D02*
X67984285Y-36462857D01*
X67984285Y-36462857D02*
X68055714Y-36605714D01*
X68055714Y-36605714D02*
X68055714Y-36748571D01*
X68055714Y-36748571D02*
X67341428Y-36891428D01*
X68698570Y-36391428D02*
X68698570Y-37391428D01*
X68698570Y-36534285D02*
X68769999Y-36462857D01*
X68769999Y-36462857D02*
X68912856Y-36391428D01*
X68912856Y-36391428D02*
X69127142Y-36391428D01*
X69127142Y-36391428D02*
X69269999Y-36462857D01*
X69269999Y-36462857D02*
X69341428Y-36605714D01*
X69341428Y-36605714D02*
X69341428Y-37391428D01*
X65127142Y-39821428D02*
X65127142Y-38321428D01*
X65127142Y-39035714D02*
X65984285Y-39035714D01*
X65984285Y-39821428D02*
X65984285Y-38321428D01*
X67341429Y-38821428D02*
X67341429Y-39821428D01*
X66698571Y-38821428D02*
X66698571Y-39607142D01*
X66698571Y-39607142D02*
X66770000Y-39750000D01*
X66770000Y-39750000D02*
X66912857Y-39821428D01*
X66912857Y-39821428D02*
X67127143Y-39821428D01*
X67127143Y-39821428D02*
X67270000Y-39750000D01*
X67270000Y-39750000D02*
X67341429Y-39678571D01*
X68270000Y-39821428D02*
X68127143Y-39750000D01*
X68127143Y-39750000D02*
X68055714Y-39607142D01*
X68055714Y-39607142D02*
X68055714Y-38321428D01*
X68770000Y-39750000D02*
X68912857Y-39821428D01*
X68912857Y-39821428D02*
X69198571Y-39821428D01*
X69198571Y-39821428D02*
X69341428Y-39750000D01*
X69341428Y-39750000D02*
X69412857Y-39607142D01*
X69412857Y-39607142D02*
X69412857Y-39535714D01*
X69412857Y-39535714D02*
X69341428Y-39392857D01*
X69341428Y-39392857D02*
X69198571Y-39321428D01*
X69198571Y-39321428D02*
X68984286Y-39321428D01*
X68984286Y-39321428D02*
X68841428Y-39250000D01*
X68841428Y-39250000D02*
X68770000Y-39107142D01*
X68770000Y-39107142D02*
X68770000Y-39035714D01*
X68770000Y-39035714D02*
X68841428Y-38892857D01*
X68841428Y-38892857D02*
X68984286Y-38821428D01*
X68984286Y-38821428D02*
X69198571Y-38821428D01*
X69198571Y-38821428D02*
X69341428Y-38892857D01*
X70055714Y-39821428D02*
X70055714Y-38321428D01*
X70055714Y-38892857D02*
X70198572Y-38821428D01*
X70198572Y-38821428D02*
X70484286Y-38821428D01*
X70484286Y-38821428D02*
X70627143Y-38892857D01*
X70627143Y-38892857D02*
X70698572Y-38964285D01*
X70698572Y-38964285D02*
X70770000Y-39107142D01*
X70770000Y-39107142D02*
X70770000Y-39535714D01*
X70770000Y-39535714D02*
X70698572Y-39678571D01*
X70698572Y-39678571D02*
X70627143Y-39750000D01*
X70627143Y-39750000D02*
X70484286Y-39821428D01*
X70484286Y-39821428D02*
X70198572Y-39821428D01*
X70198572Y-39821428D02*
X70055714Y-39750000D01*
X71984286Y-39750000D02*
X71841429Y-39821428D01*
X71841429Y-39821428D02*
X71555715Y-39821428D01*
X71555715Y-39821428D02*
X71412857Y-39750000D01*
X71412857Y-39750000D02*
X71341429Y-39607142D01*
X71341429Y-39607142D02*
X71341429Y-39035714D01*
X71341429Y-39035714D02*
X71412857Y-38892857D01*
X71412857Y-38892857D02*
X71555715Y-38821428D01*
X71555715Y-38821428D02*
X71841429Y-38821428D01*
X71841429Y-38821428D02*
X71984286Y-38892857D01*
X71984286Y-38892857D02*
X72055715Y-39035714D01*
X72055715Y-39035714D02*
X72055715Y-39178571D01*
X72055715Y-39178571D02*
X71341429Y-39321428D01*
X72698571Y-39821428D02*
X72698571Y-38821428D01*
X72698571Y-39107142D02*
X72770000Y-38964285D01*
X72770000Y-38964285D02*
X72841429Y-38892857D01*
X72841429Y-38892857D02*
X72984286Y-38821428D01*
X72984286Y-38821428D02*
X73127143Y-38821428D01*
X74270000Y-38821428D02*
X74270000Y-40035714D01*
X74270000Y-40035714D02*
X74198571Y-40178571D01*
X74198571Y-40178571D02*
X74127142Y-40250000D01*
X74127142Y-40250000D02*
X73984285Y-40321428D01*
X73984285Y-40321428D02*
X73770000Y-40321428D01*
X73770000Y-40321428D02*
X73627142Y-40250000D01*
X74270000Y-39750000D02*
X74127142Y-39821428D01*
X74127142Y-39821428D02*
X73841428Y-39821428D01*
X73841428Y-39821428D02*
X73698571Y-39750000D01*
X73698571Y-39750000D02*
X73627142Y-39678571D01*
X73627142Y-39678571D02*
X73555714Y-39535714D01*
X73555714Y-39535714D02*
X73555714Y-39107142D01*
X73555714Y-39107142D02*
X73627142Y-38964285D01*
X73627142Y-38964285D02*
X73698571Y-38892857D01*
X73698571Y-38892857D02*
X73841428Y-38821428D01*
X73841428Y-38821428D02*
X74127142Y-38821428D01*
X74127142Y-38821428D02*
X74270000Y-38892857D01*
X75555714Y-39750000D02*
X75412857Y-39821428D01*
X75412857Y-39821428D02*
X75127143Y-39821428D01*
X75127143Y-39821428D02*
X74984285Y-39750000D01*
X74984285Y-39750000D02*
X74912857Y-39607142D01*
X74912857Y-39607142D02*
X74912857Y-39035714D01*
X74912857Y-39035714D02*
X74984285Y-38892857D01*
X74984285Y-38892857D02*
X75127143Y-38821428D01*
X75127143Y-38821428D02*
X75412857Y-38821428D01*
X75412857Y-38821428D02*
X75555714Y-38892857D01*
X75555714Y-38892857D02*
X75627143Y-39035714D01*
X75627143Y-39035714D02*
X75627143Y-39178571D01*
X75627143Y-39178571D02*
X74912857Y-39321428D01*
X76269999Y-38821428D02*
X76269999Y-39821428D01*
X76269999Y-38964285D02*
X76341428Y-38892857D01*
X76341428Y-38892857D02*
X76484285Y-38821428D01*
X76484285Y-38821428D02*
X76698571Y-38821428D01*
X76698571Y-38821428D02*
X76841428Y-38892857D01*
X76841428Y-38892857D02*
X76912857Y-39035714D01*
X76912857Y-39035714D02*
X76912857Y-39821428D01*
D11*
X90760237Y-42587526D02*
X90760237Y-41317526D01*
X92090714Y-42466573D02*
X92030238Y-42527050D01*
X92030238Y-42527050D02*
X91848809Y-42587526D01*
X91848809Y-42587526D02*
X91727857Y-42587526D01*
X91727857Y-42587526D02*
X91546428Y-42527050D01*
X91546428Y-42527050D02*
X91425476Y-42406097D01*
X91425476Y-42406097D02*
X91364999Y-42285145D01*
X91364999Y-42285145D02*
X91304523Y-42043240D01*
X91304523Y-42043240D02*
X91304523Y-41861811D01*
X91304523Y-41861811D02*
X91364999Y-41619907D01*
X91364999Y-41619907D02*
X91425476Y-41498954D01*
X91425476Y-41498954D02*
X91546428Y-41378002D01*
X91546428Y-41378002D02*
X91727857Y-41317526D01*
X91727857Y-41317526D02*
X91848809Y-41317526D01*
X91848809Y-41317526D02*
X92030238Y-41378002D01*
X92030238Y-41378002D02*
X92090714Y-41438478D01*
X92574523Y-41438478D02*
X92634999Y-41378002D01*
X92634999Y-41378002D02*
X92755952Y-41317526D01*
X92755952Y-41317526D02*
X93058333Y-41317526D01*
X93058333Y-41317526D02*
X93179285Y-41378002D01*
X93179285Y-41378002D02*
X93239761Y-41438478D01*
X93239761Y-41438478D02*
X93300238Y-41559430D01*
X93300238Y-41559430D02*
X93300238Y-41680383D01*
X93300238Y-41680383D02*
X93239761Y-41861811D01*
X93239761Y-41861811D02*
X92514047Y-42587526D01*
X92514047Y-42587526D02*
X93300238Y-42587526D01*
X48760237Y-42587526D02*
X48760237Y-41317526D01*
X50090714Y-42466573D02*
X50030238Y-42527050D01*
X50030238Y-42527050D02*
X49848809Y-42587526D01*
X49848809Y-42587526D02*
X49727857Y-42587526D01*
X49727857Y-42587526D02*
X49546428Y-42527050D01*
X49546428Y-42527050D02*
X49425476Y-42406097D01*
X49425476Y-42406097D02*
X49364999Y-42285145D01*
X49364999Y-42285145D02*
X49304523Y-42043240D01*
X49304523Y-42043240D02*
X49304523Y-41861811D01*
X49304523Y-41861811D02*
X49364999Y-41619907D01*
X49364999Y-41619907D02*
X49425476Y-41498954D01*
X49425476Y-41498954D02*
X49546428Y-41378002D01*
X49546428Y-41378002D02*
X49727857Y-41317526D01*
X49727857Y-41317526D02*
X49848809Y-41317526D01*
X49848809Y-41317526D02*
X50030238Y-41378002D01*
X50030238Y-41378002D02*
X50090714Y-41438478D01*
X51300238Y-42587526D02*
X50574523Y-42587526D01*
X50937380Y-42587526D02*
X50937380Y-41317526D01*
X50937380Y-41317526D02*
X50816428Y-41498954D01*
X50816428Y-41498954D02*
X50695476Y-41619907D01*
X50695476Y-41619907D02*
X50574523Y-41680383D01*
D12*
X90638095Y-55541000D02*
X90780952Y-55588619D01*
X90780952Y-55588619D02*
X91019047Y-55588619D01*
X91019047Y-55588619D02*
X91114285Y-55541000D01*
X91114285Y-55541000D02*
X91161904Y-55493380D01*
X91161904Y-55493380D02*
X91209523Y-55398142D01*
X91209523Y-55398142D02*
X91209523Y-55302904D01*
X91209523Y-55302904D02*
X91161904Y-55207666D01*
X91161904Y-55207666D02*
X91114285Y-55160047D01*
X91114285Y-55160047D02*
X91019047Y-55112428D01*
X91019047Y-55112428D02*
X90828571Y-55064809D01*
X90828571Y-55064809D02*
X90733333Y-55017190D01*
X90733333Y-55017190D02*
X90685714Y-54969571D01*
X90685714Y-54969571D02*
X90638095Y-54874333D01*
X90638095Y-54874333D02*
X90638095Y-54779095D01*
X90638095Y-54779095D02*
X90685714Y-54683857D01*
X90685714Y-54683857D02*
X90733333Y-54636238D01*
X90733333Y-54636238D02*
X90828571Y-54588619D01*
X90828571Y-54588619D02*
X91066666Y-54588619D01*
X91066666Y-54588619D02*
X91209523Y-54636238D01*
X92114285Y-54588619D02*
X91638095Y-54588619D01*
X91638095Y-54588619D02*
X91590476Y-55064809D01*
X91590476Y-55064809D02*
X91638095Y-55017190D01*
X91638095Y-55017190D02*
X91733333Y-54969571D01*
X91733333Y-54969571D02*
X91971428Y-54969571D01*
X91971428Y-54969571D02*
X92066666Y-55017190D01*
X92066666Y-55017190D02*
X92114285Y-55064809D01*
X92114285Y-55064809D02*
X92161904Y-55160047D01*
X92161904Y-55160047D02*
X92161904Y-55398142D01*
X92161904Y-55398142D02*
X92114285Y-55493380D01*
X92114285Y-55493380D02*
X92066666Y-55541000D01*
X92066666Y-55541000D02*
X91971428Y-55588619D01*
X91971428Y-55588619D02*
X91733333Y-55588619D01*
X91733333Y-55588619D02*
X91638095Y-55541000D01*
X91638095Y-55541000D02*
X91590476Y-55493380D01*
X49838095Y-75941000D02*
X49980952Y-75988619D01*
X49980952Y-75988619D02*
X50219047Y-75988619D01*
X50219047Y-75988619D02*
X50314285Y-75941000D01*
X50314285Y-75941000D02*
X50361904Y-75893380D01*
X50361904Y-75893380D02*
X50409523Y-75798142D01*
X50409523Y-75798142D02*
X50409523Y-75702904D01*
X50409523Y-75702904D02*
X50361904Y-75607666D01*
X50361904Y-75607666D02*
X50314285Y-75560047D01*
X50314285Y-75560047D02*
X50219047Y-75512428D01*
X50219047Y-75512428D02*
X50028571Y-75464809D01*
X50028571Y-75464809D02*
X49933333Y-75417190D01*
X49933333Y-75417190D02*
X49885714Y-75369571D01*
X49885714Y-75369571D02*
X49838095Y-75274333D01*
X49838095Y-75274333D02*
X49838095Y-75179095D01*
X49838095Y-75179095D02*
X49885714Y-75083857D01*
X49885714Y-75083857D02*
X49933333Y-75036238D01*
X49933333Y-75036238D02*
X50028571Y-74988619D01*
X50028571Y-74988619D02*
X50266666Y-74988619D01*
X50266666Y-74988619D02*
X50409523Y-75036238D01*
X50790476Y-75083857D02*
X50838095Y-75036238D01*
X50838095Y-75036238D02*
X50933333Y-74988619D01*
X50933333Y-74988619D02*
X51171428Y-74988619D01*
X51171428Y-74988619D02*
X51266666Y-75036238D01*
X51266666Y-75036238D02*
X51314285Y-75083857D01*
X51314285Y-75083857D02*
X51361904Y-75179095D01*
X51361904Y-75179095D02*
X51361904Y-75274333D01*
X51361904Y-75274333D02*
X51314285Y-75417190D01*
X51314285Y-75417190D02*
X50742857Y-75988619D01*
X50742857Y-75988619D02*
X51361904Y-75988619D01*
X70238095Y-55541000D02*
X70380952Y-55588619D01*
X70380952Y-55588619D02*
X70619047Y-55588619D01*
X70619047Y-55588619D02*
X70714285Y-55541000D01*
X70714285Y-55541000D02*
X70761904Y-55493380D01*
X70761904Y-55493380D02*
X70809523Y-55398142D01*
X70809523Y-55398142D02*
X70809523Y-55302904D01*
X70809523Y-55302904D02*
X70761904Y-55207666D01*
X70761904Y-55207666D02*
X70714285Y-55160047D01*
X70714285Y-55160047D02*
X70619047Y-55112428D01*
X70619047Y-55112428D02*
X70428571Y-55064809D01*
X70428571Y-55064809D02*
X70333333Y-55017190D01*
X70333333Y-55017190D02*
X70285714Y-54969571D01*
X70285714Y-54969571D02*
X70238095Y-54874333D01*
X70238095Y-54874333D02*
X70238095Y-54779095D01*
X70238095Y-54779095D02*
X70285714Y-54683857D01*
X70285714Y-54683857D02*
X70333333Y-54636238D01*
X70333333Y-54636238D02*
X70428571Y-54588619D01*
X70428571Y-54588619D02*
X70666666Y-54588619D01*
X70666666Y-54588619D02*
X70809523Y-54636238D01*
X71142857Y-54588619D02*
X71761904Y-54588619D01*
X71761904Y-54588619D02*
X71428571Y-54969571D01*
X71428571Y-54969571D02*
X71571428Y-54969571D01*
X71571428Y-54969571D02*
X71666666Y-55017190D01*
X71666666Y-55017190D02*
X71714285Y-55064809D01*
X71714285Y-55064809D02*
X71761904Y-55160047D01*
X71761904Y-55160047D02*
X71761904Y-55398142D01*
X71761904Y-55398142D02*
X71714285Y-55493380D01*
X71714285Y-55493380D02*
X71666666Y-55541000D01*
X71666666Y-55541000D02*
X71571428Y-55588619D01*
X71571428Y-55588619D02*
X71285714Y-55588619D01*
X71285714Y-55588619D02*
X71190476Y-55541000D01*
X71190476Y-55541000D02*
X71142857Y-55493380D01*
X70238095Y-75941000D02*
X70380952Y-75988619D01*
X70380952Y-75988619D02*
X70619047Y-75988619D01*
X70619047Y-75988619D02*
X70714285Y-75941000D01*
X70714285Y-75941000D02*
X70761904Y-75893380D01*
X70761904Y-75893380D02*
X70809523Y-75798142D01*
X70809523Y-75798142D02*
X70809523Y-75702904D01*
X70809523Y-75702904D02*
X70761904Y-75607666D01*
X70761904Y-75607666D02*
X70714285Y-75560047D01*
X70714285Y-75560047D02*
X70619047Y-75512428D01*
X70619047Y-75512428D02*
X70428571Y-75464809D01*
X70428571Y-75464809D02*
X70333333Y-75417190D01*
X70333333Y-75417190D02*
X70285714Y-75369571D01*
X70285714Y-75369571D02*
X70238095Y-75274333D01*
X70238095Y-75274333D02*
X70238095Y-75179095D01*
X70238095Y-75179095D02*
X70285714Y-75083857D01*
X70285714Y-75083857D02*
X70333333Y-75036238D01*
X70333333Y-75036238D02*
X70428571Y-74988619D01*
X70428571Y-74988619D02*
X70666666Y-74988619D01*
X70666666Y-74988619D02*
X70809523Y-75036238D01*
X71666666Y-75321952D02*
X71666666Y-75988619D01*
X71428571Y-74941000D02*
X71190476Y-75655285D01*
X71190476Y-75655285D02*
X71809523Y-75655285D01*
X90638095Y-75941000D02*
X90780952Y-75988619D01*
X90780952Y-75988619D02*
X91019047Y-75988619D01*
X91019047Y-75988619D02*
X91114285Y-75941000D01*
X91114285Y-75941000D02*
X91161904Y-75893380D01*
X91161904Y-75893380D02*
X91209523Y-75798142D01*
X91209523Y-75798142D02*
X91209523Y-75702904D01*
X91209523Y-75702904D02*
X91161904Y-75607666D01*
X91161904Y-75607666D02*
X91114285Y-75560047D01*
X91114285Y-75560047D02*
X91019047Y-75512428D01*
X91019047Y-75512428D02*
X90828571Y-75464809D01*
X90828571Y-75464809D02*
X90733333Y-75417190D01*
X90733333Y-75417190D02*
X90685714Y-75369571D01*
X90685714Y-75369571D02*
X90638095Y-75274333D01*
X90638095Y-75274333D02*
X90638095Y-75179095D01*
X90638095Y-75179095D02*
X90685714Y-75083857D01*
X90685714Y-75083857D02*
X90733333Y-75036238D01*
X90733333Y-75036238D02*
X90828571Y-74988619D01*
X90828571Y-74988619D02*
X91066666Y-74988619D01*
X91066666Y-74988619D02*
X91209523Y-75036238D01*
X92066666Y-74988619D02*
X91876190Y-74988619D01*
X91876190Y-74988619D02*
X91780952Y-75036238D01*
X91780952Y-75036238D02*
X91733333Y-75083857D01*
X91733333Y-75083857D02*
X91638095Y-75226714D01*
X91638095Y-75226714D02*
X91590476Y-75417190D01*
X91590476Y-75417190D02*
X91590476Y-75798142D01*
X91590476Y-75798142D02*
X91638095Y-75893380D01*
X91638095Y-75893380D02*
X91685714Y-75941000D01*
X91685714Y-75941000D02*
X91780952Y-75988619D01*
X91780952Y-75988619D02*
X91971428Y-75988619D01*
X91971428Y-75988619D02*
X92066666Y-75941000D01*
X92066666Y-75941000D02*
X92114285Y-75893380D01*
X92114285Y-75893380D02*
X92161904Y-75798142D01*
X92161904Y-75798142D02*
X92161904Y-75560047D01*
X92161904Y-75560047D02*
X92114285Y-75464809D01*
X92114285Y-75464809D02*
X92066666Y-75417190D01*
X92066666Y-75417190D02*
X91971428Y-75369571D01*
X91971428Y-75369571D02*
X91780952Y-75369571D01*
X91780952Y-75369571D02*
X91685714Y-75417190D01*
X91685714Y-75417190D02*
X91638095Y-75464809D01*
X91638095Y-75464809D02*
X91590476Y-75560047D01*
X49838095Y-55541000D02*
X49980952Y-55588619D01*
X49980952Y-55588619D02*
X50219047Y-55588619D01*
X50219047Y-55588619D02*
X50314285Y-55541000D01*
X50314285Y-55541000D02*
X50361904Y-55493380D01*
X50361904Y-55493380D02*
X50409523Y-55398142D01*
X50409523Y-55398142D02*
X50409523Y-55302904D01*
X50409523Y-55302904D02*
X50361904Y-55207666D01*
X50361904Y-55207666D02*
X50314285Y-55160047D01*
X50314285Y-55160047D02*
X50219047Y-55112428D01*
X50219047Y-55112428D02*
X50028571Y-55064809D01*
X50028571Y-55064809D02*
X49933333Y-55017190D01*
X49933333Y-55017190D02*
X49885714Y-54969571D01*
X49885714Y-54969571D02*
X49838095Y-54874333D01*
X49838095Y-54874333D02*
X49838095Y-54779095D01*
X49838095Y-54779095D02*
X49885714Y-54683857D01*
X49885714Y-54683857D02*
X49933333Y-54636238D01*
X49933333Y-54636238D02*
X50028571Y-54588619D01*
X50028571Y-54588619D02*
X50266666Y-54588619D01*
X50266666Y-54588619D02*
X50409523Y-54636238D01*
X51361904Y-55588619D02*
X50790476Y-55588619D01*
X51076190Y-55588619D02*
X51076190Y-54588619D01*
X51076190Y-54588619D02*
X50980952Y-54731476D01*
X50980952Y-54731476D02*
X50885714Y-54826714D01*
X50885714Y-54826714D02*
X50790476Y-54874333D01*
D13*
X87800000Y-35450000D02*
X85800000Y-35450000D01*
X85800000Y-35450000D02*
X85800000Y-38250000D01*
X90800000Y-35450000D02*
X93200000Y-35450000D01*
X95900000Y-35450000D02*
X98200000Y-35450000D01*
X98200000Y-35450000D02*
X98200000Y-38550000D01*
D14*
X88100000Y-33750000D02*
X88100000Y-33750000D01*
X88000000Y-33750000D02*
X88000000Y-33750000D01*
X88100000Y-33750000D02*
G75*
G03*
X88000000Y-33750000I-50000J0D01*
G01*
X88000000Y-33750000D02*
G75*
G03*
X88100000Y-33750000I50000J0D01*
G01*
D13*
X45800000Y-35450000D02*
X43800000Y-35450000D01*
X43800000Y-35450000D02*
X43800000Y-38250000D01*
X48800000Y-35450000D02*
X51200000Y-35450000D01*
X53900000Y-35450000D02*
X56200000Y-35450000D01*
X56200000Y-35450000D02*
X56200000Y-38550000D01*
D14*
X46100000Y-33750000D02*
X46100000Y-33750000D01*
X46000000Y-33750000D02*
X46000000Y-33750000D01*
X46100000Y-33750000D02*
G75*
G03*
X46000000Y-33750000I-50000J0D01*
G01*
X46000000Y-33750000D02*
G75*
G03*
X46100000Y-33750000I50000J0D01*
G01*
D15*
X84415000Y-56015000D02*
X98385000Y-56015000D01*
X84415000Y-69985000D02*
X84415000Y-56015000D01*
X98385000Y-56015000D02*
X98385000Y-69985000D01*
X98385000Y-69985000D02*
X84415000Y-69985000D01*
X43615000Y-76415000D02*
X57585000Y-76415000D01*
X43615000Y-90385000D02*
X43615000Y-76415000D01*
X57585000Y-76415000D02*
X57585000Y-90385000D01*
X57585000Y-90385000D02*
X43615000Y-90385000D01*
X64015000Y-56015000D02*
X77985000Y-56015000D01*
X64015000Y-69985000D02*
X64015000Y-56015000D01*
X77985000Y-56015000D02*
X77985000Y-69985000D01*
X77985000Y-69985000D02*
X64015000Y-69985000D01*
X64015000Y-76415000D02*
X77985000Y-76415000D01*
X64015000Y-90385000D02*
X64015000Y-76415000D01*
X77985000Y-76415000D02*
X77985000Y-90385000D01*
X77985000Y-90385000D02*
X64015000Y-90385000D01*
X84415000Y-76415000D02*
X98385000Y-76415000D01*
X84415000Y-90385000D02*
X84415000Y-76415000D01*
X98385000Y-76415000D02*
X98385000Y-90385000D01*
X98385000Y-90385000D02*
X84415000Y-90385000D01*
X43615000Y-56015000D02*
X57585000Y-56015000D01*
X43615000Y-69985000D02*
X43615000Y-56015000D01*
X57585000Y-56015000D02*
X57585000Y-69985000D01*
X57585000Y-69985000D02*
X43615000Y-69985000D01*
%LPC*%
D16*
X89500000Y-34900000D03*
X94500000Y-34900000D03*
X89500000Y-49400000D03*
X94500000Y-49400000D03*
X92000000Y-49400000D03*
D17*
X97600000Y-41900000D03*
X86400000Y-41900000D03*
D16*
X47500000Y-34900000D03*
X52500000Y-34900000D03*
X47500000Y-49400000D03*
X52500000Y-49400000D03*
X50000000Y-49400000D03*
D17*
X55600000Y-41900000D03*
X44400000Y-41900000D03*
D18*
X86320000Y-63000000D03*
D19*
X91400000Y-63000000D03*
D18*
X96480000Y-63000000D03*
D20*
X93940000Y-57920000D03*
X87590000Y-60460000D03*
D21*
X79350000Y-88750000D03*
X79833274Y-87583274D03*
X79833274Y-89916726D03*
X81000000Y-87100000D03*
D22*
X81000000Y-88750000D03*
D21*
X81000000Y-90400000D03*
X82166726Y-87583274D03*
X82166726Y-89916726D03*
X82650000Y-88750000D03*
X59350000Y-88750000D03*
X59833274Y-87583274D03*
X59833274Y-89916726D03*
X61000000Y-87100000D03*
D22*
X61000000Y-88750000D03*
D21*
X61000000Y-90400000D03*
X62166726Y-87583274D03*
X62166726Y-89916726D03*
X62650000Y-88750000D03*
D18*
X45520000Y-83400000D03*
D19*
X50600000Y-83400000D03*
D18*
X55680000Y-83400000D03*
D20*
X53140000Y-78320000D03*
X46790000Y-80860000D03*
D18*
X65920000Y-63000000D03*
D19*
X71000000Y-63000000D03*
D18*
X76080000Y-63000000D03*
D20*
X73540000Y-57920000D03*
X67190000Y-60460000D03*
D18*
X65920000Y-83400000D03*
D19*
X71000000Y-83400000D03*
D18*
X76080000Y-83400000D03*
D20*
X73540000Y-78320000D03*
X67190000Y-80860000D03*
D18*
X86320000Y-83400000D03*
D19*
X91400000Y-83400000D03*
D18*
X96480000Y-83400000D03*
D20*
X93940000Y-78320000D03*
X87590000Y-80860000D03*
D21*
X84150000Y-53000000D03*
X84633274Y-51833274D03*
X84633274Y-54166726D03*
X85800000Y-51350000D03*
D22*
X85800000Y-53000000D03*
D21*
X85800000Y-54650000D03*
X86966726Y-51833274D03*
X86966726Y-54166726D03*
X87450000Y-53000000D03*
X54550000Y-53000000D03*
X55033274Y-51833274D03*
X55033274Y-54166726D03*
X56200000Y-51350000D03*
D22*
X56200000Y-53000000D03*
D21*
X56200000Y-54650000D03*
X57366726Y-51833274D03*
X57366726Y-54166726D03*
X57850000Y-53000000D03*
D18*
X45520000Y-63000000D03*
D19*
X50600000Y-63000000D03*
D18*
X55680000Y-63000000D03*
D20*
X53140000Y-57920000D03*
X46790000Y-60460000D03*
D23*
X79780000Y-34290000D03*
X79780000Y-36830000D03*
D24*
X79780000Y-39370000D03*
D23*
X79780000Y-41910000D03*
X79780000Y-44450000D03*
X79780000Y-46990000D03*
X79780000Y-49530000D03*
D24*
X79780000Y-52070000D03*
D23*
X79780000Y-54610000D03*
X79780000Y-57150000D03*
X79780000Y-59690000D03*
X79780000Y-62230000D03*
D24*
X79780000Y-64770000D03*
D23*
X79780000Y-67310000D03*
X79780000Y-69850000D03*
X79738119Y-72390000D03*
X79780000Y-74930000D03*
D24*
X79780000Y-77470000D03*
D23*
X79780000Y-80010000D03*
X79780000Y-82550000D03*
X62000000Y-82550000D03*
X62000000Y-80010000D03*
D24*
X62000000Y-77470000D03*
D23*
X62000000Y-74930000D03*
X62000000Y-72390000D03*
X62000000Y-69850000D03*
X62000000Y-67310000D03*
D24*
X62000000Y-64770000D03*
D23*
X62000000Y-62230000D03*
X62000000Y-59690000D03*
X62000000Y-57150000D03*
X62000000Y-54610000D03*
D24*
X62000000Y-52070000D03*
D23*
X62000000Y-49530000D03*
X62000000Y-46990000D03*
X62000000Y-44450000D03*
X62000000Y-41910000D03*
D24*
X62000000Y-39370000D03*
D23*
X62000000Y-36830000D03*
X62000000Y-34290000D03*
%LPD*%
M02*
