M48
; DRILL file {KiCad 7.0.2} date Thu May  4 11:05:43 2023
; FORMAT={-:-/ absolute / metric / decimal}
; #@! TF.CreationDate,2023-05-04T11:05:43+02:00
; #@! TF.GenerationSoftware,Kicad,Pcbnew,7.0.2
; #@! TF.FileFunction,Plated,1,2,PTH
FMAT,2
METRIC
; #@! TA.AperFunction,Plated,PTH,ComponentDrill
T1C0.400
; #@! TA.AperFunction,Plated,PTH,ComponentDrill
T2C1.000
; #@! TA.AperFunction,Plated,PTH,ComponentDrill
T3C1.200
; #@! TA.AperFunction,Plated,PTH,ComponentDrill
T4C1.500
; #@! TA.AperFunction,Plated,PTH,ComponentDrill
T5C2.200
; #@! TA.AperFunction,Plated,PTH,ComponentDrill
T6C3.250
%
G90
G05
T1
X54.55Y-53.0
X55.033Y-51.833
X55.033Y-54.167
X56.2Y-51.35
X56.2Y-54.65
X57.367Y-51.833
X57.367Y-54.167
X57.85Y-53.0
X59.35Y-88.75
X59.833Y-87.583
X59.833Y-89.917
X61.0Y-87.1
X61.0Y-90.4
X62.167Y-87.583
X62.167Y-89.917
X62.65Y-88.75
X79.35Y-88.75
X79.833Y-87.583
X79.833Y-89.917
X81.0Y-87.1
X81.0Y-90.4
X82.167Y-87.583
X82.167Y-89.917
X82.65Y-88.75
X84.15Y-53.0
X84.633Y-51.833
X84.633Y-54.167
X85.8Y-51.35
X85.8Y-54.65
X86.967Y-51.833
X86.967Y-54.167
X87.45Y-53.0
T2
X62.0Y-34.29
X62.0Y-36.83
X62.0Y-39.37
X62.0Y-41.91
X62.0Y-44.45
X62.0Y-46.99
X62.0Y-49.53
X62.0Y-52.07
X62.0Y-54.61
X62.0Y-57.15
X62.0Y-59.69
X62.0Y-62.23
X62.0Y-64.77
X62.0Y-67.31
X62.0Y-69.85
X62.0Y-72.39
X62.0Y-74.93
X62.0Y-77.47
X62.0Y-80.01
X62.0Y-82.55
X79.738Y-72.39
X79.78Y-34.29
X79.78Y-36.83
X79.78Y-39.37
X79.78Y-41.91
X79.78Y-44.45
X79.78Y-46.99
X79.78Y-49.53
X79.78Y-52.07
X79.78Y-54.61
X79.78Y-57.15
X79.78Y-59.69
X79.78Y-62.23
X79.78Y-64.77
X79.78Y-67.31
X79.78Y-69.85
X79.78Y-74.93
X79.78Y-77.47
X79.78Y-80.01
X79.78Y-82.55
T3
X47.5Y-34.9
X47.5Y-49.4
X50.0Y-49.4
X52.5Y-34.9
X52.5Y-49.4
X89.5Y-34.9
X89.5Y-49.4
X92.0Y-49.4
X94.5Y-34.9
X94.5Y-49.4
T4
X46.79Y-60.46
X46.79Y-80.86
X53.14Y-57.92
X53.14Y-78.32
X67.19Y-60.46
X67.19Y-80.86
X73.54Y-57.92
X73.54Y-78.32
X87.59Y-60.46
X87.59Y-80.86
X93.94Y-57.92
X93.94Y-78.32
T5
X56.2Y-53.0
X61.0Y-88.75
X81.0Y-88.75
X85.8Y-53.0
T6
X44.4Y-41.9
X55.6Y-41.9
X86.4Y-41.9
X97.6Y-41.9
T0
M30
